{
 "cells": [
  {
   "cell_type": "code",
   "execution_count": 42,
   "metadata": {},
   "outputs": [],
   "source": [
    "import mido\n",
    "from mido import Message, MidiFile, MidiTrack"
   ]
  },
  {
   "cell_type": "code",
   "execution_count": 199,
   "metadata": {},
   "outputs": [
    {
     "data": {
      "text/plain": [
       "False"
      ]
     },
     "execution_count": 199,
     "metadata": {},
     "output_type": "execute_result"
    }
   ],
   "source": [
    "isinstance(temp[1], MetaMessage)"
   ]
  },
  {
   "cell_type": "code",
   "execution_count": 235,
   "metadata": {},
   "outputs": [
    {
     "name": "stdout",
     "output_type": "stream",
     "text": [
      "Track 0: \n",
      "Track 1: Elec Piano\n",
      "Track 2: Elec Piano\n",
      "Track 3: String\n",
      "Track 4: String\n",
      "Track 5: Vibe\n",
      "Track 6: Elec Guitar\n",
      "Track 7: Acou Bass\n",
      "Track 8: Thump Bass 1\n",
      "Track 9: Breath Sax\n",
      "Track 10: Warm Bell\n",
      "Track 11: Warm Bell\n",
      "Track 12: Rezin Choir\n",
      "Track 13: Sound Track\n",
      "Track 14: Melody\n",
      "Track 15: Snare\n",
      "Track 16: Hi-hat\n",
      "Track 17: Open Hi-hat\n",
      "Track 18: Acou Tom\n",
      "Track 19: Clash\n",
      "Track 20: Tambourine\n",
      "Track 21: Shaker\n",
      "Track 22: Conga\n",
      "Track 23: Clave\n",
      "Track 24: BassDrum\n",
      "Track 25: Rim shot\n"
     ]
    }
   ],
   "source": [
    "## read midi file\n",
    "mid = MidiFile('MidiSample/wakeup.mid')\n",
    "\n",
    "## get midi information\n",
    "temp=[]\n",
    "for i, track in enumerate(mid.tracks):\n",
    "    print('Track {}: {}'.format(i, track.name))"
   ]
  },
  {
   "cell_type": "code",
   "execution_count": 227,
   "metadata": {},
   "outputs": [],
   "source": [
    "## only extract note_on and note_off\n",
    "t=[]\n",
    "for i in range(len(temp)):\n",
    "    if 'note_on' in str(temp[i]) or 'note_off' in str(temp[i]):\n",
    "        t.append(temp[i])"
   ]
  },
  {
   "cell_type": "code",
   "execution_count": 238,
   "metadata": {},
   "outputs": [
    {
     "name": "stdout",
     "output_type": "stream",
     "text": [
      "Track 0: \n",
      "Track 1: \n",
      "Track 2: \n",
      "Track 3: \n",
      "Track 4: \n",
      "program_change channel=0 program=0 time=0\n",
      "control_change channel=0 control=7 value=127 time=0\n",
      "control_change channel=0 control=91 value=127 time=0\n",
      "control_change channel=0 control=93 value=1 time=0\n",
      "control_change channel=0 control=10 value=64 time=0\n",
      "control_change channel=0 control=32 value=0 time=0\n",
      "control_change channel=0 control=0 value=0 time=0\n",
      "note_on channel=0 note=49 velocity=40 time=503\n",
      "note_on channel=0 note=64 velocity=44 time=2\n",
      "control_change channel=0 control=64 value=127 time=50\n",
      "note_on channel=0 note=71 velocity=51 time=110\n",
      "note_on channel=0 note=56 velocity=47 time=3\n",
      "note_off channel=0 note=64 velocity=64 time=73\n",
      "note_on channel=0 note=76 velocity=62 time=84\n",
      "note_off channel=0 note=71 velocity=64 time=32\n",
      "note_on channel=0 note=61 velocity=39 time=111\n",
      "note_off channel=0 note=76 velocity=64 time=23\n",
      "note_on channel=0 note=76 velocity=57 time=142\n",
      "note_off channel=0 note=61 velocity=64 time=153\n",
      "note_off channel=0 note=76 velocity=64 time=10\n",
      "note_off channel=0 note=56 velocity=64 time=84\n",
      "note_on channel=0 note=76 velocity=37 time=71\n",
      "note_off channel=0 note=49 velocity=64 time=7\n",
      "note_off channel=0 note=76 velocity=64 time=123\n",
      "note_on channel=0 note=71 velocity=41 time=35\n",
      "note_off channel=0 note=71 velocity=64 time=119\n",
      "note_on channel=0 note=64 velocity=72 time=22\n",
      "note_on channel=0 note=47 velocity=59 time=5\n",
      "control_change channel=0 control=64 value=0 time=3\n",
      "control_change channel=0 control=64 value=127 time=102\n",
      "note_on channel=0 note=54 velocity=45 time=53\n",
      "note_on channel=0 note=71 velocity=58 time=0\n",
      "note_on channel=0 note=76 velocity=82 time=130\n",
      "note_off channel=0 note=71 velocity=64 time=18\n",
      "note_on channel=0 note=59 velocity=59 time=110\n",
      "note_off channel=0 note=64 velocity=64 time=28\n",
      "note_off channel=0 note=76 velocity=64 time=84\n",
      "note_on channel=0 note=64 velocity=58 time=60\n",
      "note_off channel=0 note=59 velocity=64 time=15\n",
      "note_off channel=0 note=54 velocity=64 time=296\n",
      "note_off channel=0 note=47 velocity=64 time=26\n",
      "note_off channel=0 note=64 velocity=64 time=38\n",
      "note_on channel=0 note=76 velocity=59 time=80\n",
      "note_on channel=0 note=71 velocity=55 time=75\n",
      "note_off channel=0 note=76 velocity=64 time=3\n",
      "control_change channel=0 control=64 value=0 time=39\n",
      "note_off channel=0 note=71 velocity=64 time=15\n",
      "note_on channel=0 note=64 velocity=87 time=9\n",
      "note_on channel=0 note=45 velocity=64 time=4\n",
      "control_change channel=0 control=64 value=127 time=67\n",
      "note_on channel=0 note=71 velocity=66 time=71\n",
      "note_on channel=0 note=52 velocity=62 time=3\n",
      "note_off channel=0 note=64 velocity=64 time=77\n",
      "note_on channel=0 note=64 velocity=96 time=68\n",
      "note_on channel=0 note=76 velocity=93 time=1\n",
      "note_off channel=0 note=71 velocity=64 time=21\n",
      "note_on channel=0 note=57 velocity=58 time=129\n",
      "note_off channel=0 note=64 velocity=64 time=36\n",
      "note_off channel=0 note=76 velocity=64 time=12\n",
      "note_on channel=0 note=76 velocity=76 time=101\n",
      "note_off channel=0 note=45 velocity=64 time=57\n",
      "note_off channel=0 note=57 velocity=64 time=48\n",
      "note_off channel=0 note=52 velocity=64 time=219\n",
      "note_off channel=0 note=76 velocity=64 time=123\n",
      "note_on channel=0 note=71 velocity=43 time=19\n",
      "control_change channel=0 control=64 value=0 time=113\n",
      "note_off channel=0 note=71 velocity=64 time=13\n",
      "note_on channel=0 note=64 velocity=66 time=15\n",
      "note_on channel=0 note=47 velocity=58 time=5\n",
      "control_change channel=0 control=64 value=127 time=67\n",
      "note_on channel=0 note=54 velocity=41 time=73\n",
      "note_off channel=0 note=64 velocity=64 time=135\n",
      "note_on channel=0 note=71 velocity=55 time=14\n",
      "note_off channel=0 note=71 velocity=64 time=39\n",
      "note_on channel=0 note=59 velocity=35 time=101\n",
      "note_on channel=0 note=76 velocity=80 time=140\n",
      "note_on channel=0 note=88 velocity=82 time=5\n",
      "note_off channel=0 note=59 velocity=64 time=13\n",
      "note_off channel=0 note=76 velocity=64 time=30\n",
      "note_off channel=0 note=88 velocity=64 time=58\n",
      "note_on channel=0 note=59 velocity=34 time=52\n",
      "note_off channel=0 note=47 velocity=64 time=98\n",
      "note_on channel=0 note=75 velocity=80 time=37\n",
      "note_on channel=0 note=87 velocity=78 time=1\n",
      "note_off channel=0 note=59 velocity=64 time=10\n",
      "note_off channel=0 note=75 velocity=64 time=19\n",
      "note_off channel=0 note=87 velocity=64 time=2\n",
      "note_off channel=0 note=54 velocity=64 time=44\n",
      "note_on channel=0 note=64 velocity=70 time=219\n",
      "note_on channel=0 note=49 velocity=45 time=6\n",
      "note_on channel=0 note=56 velocity=44 time=135\n",
      "note_on channel=0 note=71 velocity=55 time=10\n",
      "note_on channel=0 note=76 velocity=74 time=152\n",
      "note_off channel=0 note=71 velocity=64 time=8\n",
      "note_off channel=0 note=64 velocity=64 time=125\n",
      "note_on channel=0 note=61 velocity=41 time=19\n",
      "note_off channel=0 note=76 velocity=64 time=6\n",
      "note_on channel=0 note=76 velocity=66 time=144\n",
      "note_off channel=0 note=61 velocity=64 time=5\n",
      "note_on channel=0 note=61 velocity=43 time=146\n",
      "note_off channel=0 note=76 velocity=64 time=10\n",
      "note_off channel=0 note=61 velocity=64 time=91\n",
      "note_off channel=0 note=56 velocity=64 time=14\n",
      "note_on channel=0 note=76 velocity=59 time=25\n",
      "note_off channel=0 note=49 velocity=64 time=36\n",
      "note_off channel=0 note=76 velocity=64 time=114\n",
      "note_on channel=0 note=71 velocity=45 time=1\n",
      "note_off channel=0 note=71 velocity=64 time=129\n",
      "note_on channel=0 note=47 velocity=64 time=12\n",
      "control_change channel=0 control=64 value=0 time=3\n",
      "note_on channel=0 note=64 velocity=70 time=0\n",
      "control_change channel=0 control=64 value=127 time=87\n",
      "note_on channel=0 note=54 velocity=52 time=57\n",
      "note_on channel=0 note=71 velocity=34 time=80\n",
      "note_on channel=0 note=76 velocity=76 time=76\n",
      "note_off channel=0 note=71 velocity=64 time=1\n",
      "note_on channel=0 note=59 velocity=52 time=131\n",
      "note_off channel=0 note=76 velocity=64 time=88\n",
      "note_on channel=0 note=71 velocity=45 time=65\n",
      "note_off channel=0 note=64 velocity=64 time=9\n",
      "note_off channel=0 note=71 velocity=64 time=123\n",
      "note_off channel=0 note=59 velocity=64 time=10\n",
      "note_on channel=0 note=78 velocity=52 time=9\n",
      "note_off channel=0 note=78 velocity=64 time=95\n",
      "note_on channel=0 note=59 velocity=40 time=41\n",
      "note_off channel=0 note=47 velocity=64 time=64\n",
      "note_off channel=0 note=59 velocity=64 time=59\n",
      "note_on channel=0 note=64 velocity=58 time=12\n",
      "note_off channel=0 note=54 velocity=64 time=37\n",
      "note_off channel=0 note=64 velocity=64 time=32\n",
      "control_change channel=0 control=64 value=0 time=63\n",
      "note_on channel=0 note=45 velocity=64 time=45\n",
      "note_on channel=0 note=64 velocity=80 time=0\n",
      "control_change channel=0 control=64 value=127 time=31\n",
      "note_on channel=0 note=52 velocity=62 time=81\n",
      "note_on channel=0 note=71 velocity=47 time=10\n",
      "note_off channel=0 note=64 velocity=64 time=75\n",
      "note_on channel=0 note=64 velocity=54 time=76\n",
      "note_off channel=0 note=71 velocity=64 time=3\n",
      "note_on channel=0 note=76 velocity=80 time=2\n",
      "note_on channel=0 note=57 velocity=39 time=135\n",
      "note_off channel=0 note=64 velocity=64 time=20\n",
      "note_off channel=0 note=76 velocity=64 time=14\n",
      "note_on channel=0 note=76 velocity=68 time=129\n",
      "note_off channel=0 note=45 velocity=64 time=64\n",
      "note_on channel=0 note=71 velocity=42 time=226\n",
      "note_off channel=0 note=76 velocity=64 time=4\n",
      "note_off channel=0 note=52 velocity=64 time=48\n",
      "note_off channel=0 note=57 velocity=64 time=35\n",
      "note_off channel=0 note=71 velocity=64 time=34\n",
      "note_on channel=0 note=64 velocity=52 time=20\n",
      "note_off channel=0 note=64 velocity=64 time=74\n",
      "control_change channel=0 control=64 value=0 time=90\n",
      "note_on channel=0 note=47 velocity=51 time=2\n",
      "note_on channel=0 note=64 velocity=62 time=2\n",
      "control_change channel=0 control=64 value=127 time=90\n",
      "note_on channel=0 note=54 velocity=44 time=57\n",
      "note_on channel=0 note=71 velocity=58 time=6\n",
      "note_off channel=0 note=64 velocity=64 time=94\n",
      "note_off channel=0 note=71 velocity=64 time=74\n",
      "note_on channel=0 note=64 velocity=42 time=1\n",
      "note_on channel=0 note=76 velocity=76 time=3\n",
      "note_on channel=0 note=59 velocity=47 time=165\n",
      "note_off channel=0 note=64 velocity=64 time=88\n",
      "note_off channel=0 note=76 velocity=64 time=4\n",
      "note_on channel=0 note=76 velocity=55 time=163\n",
      "note_off channel=0 note=59 velocity=64 time=33\n",
      "note_off channel=0 note=47 velocity=64 time=75\n",
      "note_off channel=0 note=54 velocity=64 time=8\n",
      "note_on channel=0 note=47 velocity=18 time=906\n",
      "note_on channel=0 note=35 velocity=9 time=20\n",
      "note_off channel=0 note=35 velocity=64 time=331\n",
      "note_off channel=0 note=47 velocity=64 time=304\n",
      "note_off channel=0 note=76 velocity=64 time=189\n",
      "note_on channel=0 note=76 velocity=37 time=500\n",
      "note_on channel=0 note=64 velocity=25 time=9\n",
      "control_change channel=0 control=64 value=0 time=3\n",
      "note_on channel=0 note=40 velocity=29 time=8\n",
      "control_change channel=0 control=64 value=127 time=44\n",
      "note_on channel=0 note=47 velocity=35 time=88\n",
      "note_off channel=0 note=64 velocity=64 time=14\n",
      "note_off channel=0 note=40 velocity=64 time=23\n",
      "note_off channel=0 note=47 velocity=64 time=98\n",
      "note_off channel=0 note=76 velocity=64 time=23\n",
      "note_on channel=0 note=52 velocity=45 time=5\n",
      "note_off channel=0 note=52 velocity=64 time=66\n",
      "note_on channel=0 note=64 velocity=45 time=63\n",
      "note_off channel=0 note=64 velocity=64 time=36\n",
      "note_on channel=0 note=64 velocity=46 time=132\n",
      "note_on channel=0 note=59 velocity=5 time=50\n",
      "note_off channel=0 note=64 velocity=64 time=37\n",
      "note_off channel=0 note=59 velocity=64 time=153\n",
      "note_on channel=0 note=64 velocity=42 time=214\n",
      "note_off channel=0 note=64 velocity=64 time=126\n",
      "note_on channel=0 note=54 velocity=28 time=28\n",
      "control_change channel=0 control=64 value=0 time=15\n",
      "note_on channel=0 note=63 velocity=41 time=4\n",
      "note_off channel=0 note=63 velocity=64 time=271\n",
      "note_on channel=0 note=64 velocity=50 time=16\n",
      "control_change channel=0 control=64 value=127 time=31\n",
      "note_off channel=0 note=64 velocity=64 time=253\n",
      "note_on channel=0 note=59 velocity=33 time=35\n",
      "note_off channel=0 note=54 velocity=64 time=131\n",
      "note_off channel=0 note=59 velocity=64 time=118\n",
      "note_on channel=0 note=64 velocity=48 time=196\n",
      "control_change channel=0 control=64 value=0 time=120\n",
      "note_off channel=0 note=64 velocity=64 time=6\n",
      "note_on channel=0 note=63 velocity=52 time=18\n",
      "note_on channel=0 note=52 velocity=55 time=0\n",
      "control_change channel=0 control=64 value=127 time=73\n",
      "note_on channel=0 note=57 velocity=51 time=72\n",
      "note_off channel=0 note=63 velocity=64 time=48\n",
      "note_on channel=0 note=64 velocity=64 time=110\n",
      "note_on channel=0 note=61 velocity=47 time=305\n",
      "note_off channel=0 note=52 velocity=64 time=152\n",
      "note_off channel=0 note=61 velocity=64 time=10\n",
      "note_off channel=0 note=57 velocity=64 time=93\n",
      "note_off channel=0 note=64 velocity=64 time=187\n",
      "note_on channel=0 note=66 velocity=50 time=17\n",
      "control_change channel=0 control=64 value=0 time=100\n",
      "note_off channel=0 note=66 velocity=64 time=46\n",
      "note_on channel=0 note=68 velocity=47 time=9\n",
      "note_on channel=0 note=52 velocity=40 time=1\n",
      "control_change channel=0 control=64 value=127 time=53\n",
      "note_on channel=0 note=59 velocity=35 time=89\n",
      "note_off channel=0 note=68 velocity=64 time=113\n",
      "note_on channel=0 note=63 velocity=48 time=27\n",
      "note_off channel=0 note=63 velocity=64 time=83\n",
      "note_on channel=0 note=68 velocity=51 time=48\n",
      "note_off channel=0 note=68 velocity=64 time=130\n",
      "note_on channel=0 note=66 velocity=51 time=21\n",
      "note_on channel=0 note=63 velocity=46 time=288\n",
      "note_off channel=0 note=52 velocity=64 time=3\n",
      "note_off channel=0 note=59 velocity=64 time=7\n",
      "note_off channel=0 note=63 velocity=64 time=26\n",
      "note_off channel=0 note=66 velocity=64 time=76\n",
      "note_on channel=0 note=64 velocity=49 time=40\n",
      "note_off channel=0 note=64 velocity=64 time=44\n",
      "note_on channel=0 note=63 velocity=55 time=5\n",
      "note_off channel=0 note=63 velocity=64 time=52\n",
      "control_change channel=0 control=64 value=0 time=37\n",
      "note_on channel=0 note=52 velocity=52 time=18\n",
      "note_on channel=0 note=64 velocity=55 time=0\n",
      "control_change channel=0 control=64 value=127 time=87\n",
      "note_on channel=0 note=59 velocity=42 time=71\n",
      "note_off channel=0 note=64 velocity=64 time=46\n",
      "note_on channel=0 note=64 velocity=48 time=293\n",
      "note_off channel=0 note=64 velocity=64 time=11\n",
      "note_on channel=0 note=64 velocity=80 time=119\n",
      "note_off channel=0 note=59 velocity=64 time=87\n",
      "note_off channel=0 note=64 velocity=64 time=154\n",
      "note_off channel=0 note=52 velocity=64 time=35\n",
      "note_on channel=0 note=59 velocity=30 time=24\n",
      "note_on channel=0 note=64 velocity=61 time=136\n",
      "note_off channel=0 note=59 velocity=64 time=66\n",
      "control_change channel=0 control=64 value=0 time=50\n",
      "note_off channel=0 note=64 velocity=64 time=23\n",
      "note_on channel=0 note=63 velocity=59 time=8\n",
      "note_on channel=0 note=54 velocity=40 time=2\n",
      "control_change channel=0 control=64 value=127 time=67\n",
      "note_on channel=0 note=59 velocity=5 time=178\n",
      "note_off channel=0 note=63 velocity=64 time=12\n",
      "note_on channel=0 note=64 velocity=49 time=48\n",
      "note_off channel=0 note=59 velocity=64 time=53\n",
      "note_on channel=0 note=59 velocity=48 time=234\n",
      "note_off channel=0 note=64 velocity=64 time=51\n",
      "note_off channel=0 note=59 velocity=64 time=69\n",
      "note_off channel=0 note=54 velocity=64 time=28\n",
      "note_on channel=0 note=64 velocity=41 time=162\n",
      "control_change channel=0 control=64 value=0 time=261\n",
      "note_off channel=0 note=64 velocity=64 time=38\n",
      "note_on channel=0 note=45 velocity=40 time=4\n",
      "note_on channel=0 note=59 velocity=39 time=0\n",
      "control_change channel=0 control=64 value=127 time=26\n",
      "note_on channel=0 note=52 velocity=57 time=87\n",
      "note_off channel=0 note=59 velocity=64 time=7\n",
      "note_on channel=0 note=57 velocity=61 time=163\n",
      "note_off channel=0 note=52 velocity=64 time=4\n",
      "note_on channel=0 note=52 velocity=52 time=135\n",
      "note_off channel=0 note=57 velocity=64 time=11\n",
      "note_on channel=0 note=57 velocity=52 time=154\n",
      "note_off channel=0 note=52 velocity=64 time=14\n",
      "note_off channel=0 note=45 velocity=64 time=251\n",
      "note_on channel=0 note=52 velocity=50 time=20\n",
      "note_off channel=0 note=57 velocity=64 time=35\n",
      "note_off channel=0 note=52 velocity=64 time=105\n",
      "note_on channel=0 note=57 velocity=68 time=5\n",
      "note_off channel=0 note=57 velocity=64 time=55\n",
      "note_on channel=0 note=57 velocity=76 time=93\n",
      "note_on channel=0 note=45 velocity=52 time=3\n",
      "note_on channel=0 note=52 velocity=68 time=5\n",
      "note_off channel=0 note=57 velocity=64 time=145\n",
      "note_on channel=0 note=59 velocity=59 time=3\n",
      "note_off channel=0 note=59 velocity=64 time=115\n",
      "note_on channel=0 note=61 velocity=55 time=6\n",
      "note_on channel=0 note=64 velocity=74 time=143\n",
      "note_off channel=0 note=52 velocity=64 time=5\n",
      "note_off channel=0 note=61 velocity=64 time=5\n",
      "note_off channel=0 note=64 velocity=64 time=30\n",
      "note_on channel=0 note=52 velocity=62 time=117\n",
      "note_on channel=0 note=69 velocity=57 time=178\n",
      "note_off channel=0 note=69 velocity=64 time=55\n",
      "note_on channel=0 note=71 velocity=50 time=5\n",
      "note_off channel=0 note=71 velocity=64 time=46\n",
      "note_off channel=0 note=52 velocity=64 time=17\n",
      "note_off channel=0 note=45 velocity=64 time=13\n",
      "note_on channel=0 note=73 velocity=72 time=12\n",
      "note_on channel=0 note=76 velocity=80 time=135\n",
      "note_off channel=0 note=73 velocity=64 time=2\n",
      "note_off channel=0 note=76 velocity=64 time=101\n",
      "control_change channel=0 control=64 value=0 time=25\n",
      "note_on channel=0 note=40 velocity=61 time=6\n",
      "note_on channel=0 note=71 velocity=72 time=9\n",
      "note_on channel=0 note=76 velocity=82 time=7\n",
      "note_on channel=0 note=64 velocity=80 time=2\n",
      "control_change channel=0 control=64 value=127 time=73\n",
      "note_on channel=0 note=47 velocity=57 time=72\n",
      "note_off channel=0 note=64 velocity=64 time=82\n",
      "note_on channel=0 note=52 velocity=90 time=48\n",
      "note_off channel=0 note=76 velocity=64 time=25\n",
      "note_off channel=0 note=71 velocity=64 time=15\n",
      "note_on channel=0 note=64 velocity=74 time=96\n",
      "note_off channel=0 note=64 velocity=64 time=94\n",
      "note_on channel=0 note=64 velocity=82 time=47\n",
      "note_on channel=0 note=76 velocity=87 time=1\n",
      "note_on channel=0 note=71 velocity=87 time=4\n",
      "note_off channel=0 note=52 velocity=64 time=90\n",
      "note_off channel=0 note=64 velocity=64 time=71\n",
      "note_off channel=0 note=40 velocity=64 time=57\n",
      "note_off channel=0 note=71 velocity=64 time=8\n",
      "note_off channel=0 note=76 velocity=64 time=3\n",
      "note_off channel=0 note=47 velocity=64 time=34\n",
      "note_on channel=0 note=52 velocity=68 time=8\n",
      "note_off channel=0 note=52 velocity=64 time=24\n",
      "note_on channel=0 note=64 velocity=51 time=36\n",
      "note_off channel=0 note=64 velocity=64 time=63\n",
      "note_on channel=0 note=76 velocity=72 time=4\n",
      "note_off channel=0 note=76 velocity=64 time=122\n",
      "control_change channel=0 control=64 value=0 time=23\n",
      "note_on channel=0 note=54 velocity=49 time=6\n",
      "note_on channel=0 note=63 velocity=66 time=7\n",
      "note_on channel=0 note=75 velocity=68 time=5\n",
      "control_change channel=0 control=64 value=127 time=74\n",
      "note_off channel=0 note=63 velocity=64 time=50\n",
      "note_on channel=0 note=59 velocity=37 time=18\n",
      "note_off channel=0 note=75 velocity=64 time=71\n",
      "note_on channel=0 note=64 velocity=59 time=69\n",
      "note_on channel=0 note=76 velocity=64 time=3\n",
      "note_on channel=0 note=63 velocity=57 time=283\n",
      "note_off channel=0 note=64 velocity=64 time=39\n",
      "note_off channel=0 note=76 velocity=64 time=21\n",
      "note_off channel=0 note=63 velocity=64 time=44\n",
      "note_off channel=0 note=59 velocity=64 time=63\n",
      "note_off channel=0 note=54 velocity=64 time=4\n",
      "note_on channel=0 note=64 velocity=64 time=93\n",
      "note_on channel=0 note=76 velocity=58 time=3\n",
      "note_off channel=0 note=64 velocity=64 time=58\n",
      "note_off channel=0 note=76 velocity=64 time=195\n",
      "control_change channel=0 control=64 value=0 time=25\n",
      "note_on channel=0 note=63 velocity=47 time=2\n",
      "note_on channel=0 note=52 velocity=54 time=3\n",
      "note_on channel=0 note=75 velocity=46 time=2\n",
      "control_change channel=0 control=64 value=127 time=89\n",
      "note_off channel=0 note=63 velocity=64 time=69\n",
      "note_on channel=0 note=57 velocity=50 time=49\n",
      "note_off channel=0 note=75 velocity=64 time=21\n",
      "note_on channel=0 note=64 velocity=64 time=62\n",
      "note_on channel=0 note=76 velocity=74 time=3\n",
      "note_off channel=0 note=64 velocity=64 time=145\n",
      "note_on channel=0 note=61 velocity=61 time=137\n",
      "note_off channel=0 note=76 velocity=64 time=19\n",
      "note_off channel=0 note=52 velocity=64 time=9\n",
      "note_off channel=0 note=57 velocity=64 time=5\n",
      "note_off channel=0 note=61 velocity=64 time=151\n",
      "note_on channel=0 note=66 velocity=64 time=95\n",
      "note_on channel=0 note=78 velocity=72 time=1\n",
      "note_off channel=0 note=66 velocity=64 time=43\n",
      "note_off channel=0 note=78 velocity=64 time=26\n",
      "control_change channel=0 control=64 value=0 time=185\n",
      "note_on channel=0 note=80 velocity=74 time=58\n",
      "note_on channel=0 note=68 velocity=62 time=0\n",
      "note_on channel=0 note=52 velocity=57 time=0\n",
      "control_change channel=0 control=64 value=127 time=40\n",
      "note_on channel=0 note=59 velocity=40 time=86\n",
      "note_off channel=0 note=68 velocity=64 time=44\n",
      "note_off channel=0 note=80 velocity=64 time=31\n",
      "note_on channel=0 note=63 velocity=46 time=66\n",
      "note_off channel=0 note=63 velocity=64 time=95\n",
      "note_on channel=0 note=80 velocity=70 time=28\n",
      "note_on channel=0 note=68 velocity=52 time=5\n",
      "note_off channel=0 note=68 velocity=64 time=53\n",
      "note_off channel=0 note=80 velocity=64 time=0\n",
      "note_on channel=0 note=78 velocity=80 time=84\n",
      "note_on channel=0 note=66 velocity=66 time=4\n",
      "note_off channel=0 note=66 velocity=64 time=31\n",
      "note_off channel=0 note=78 velocity=64 time=14\n",
      "note_off channel=0 note=52 velocity=64 time=164\n",
      "note_off channel=0 note=59 velocity=64 time=73\n",
      "note_on channel=0 note=64 velocity=70 time=143\n",
      "note_off channel=0 note=64 velocity=64 time=85\n",
      "control_change channel=0 control=64 value=0 time=47\n",
      "note_on channel=0 note=40 velocity=58 time=8\n",
      "note_on channel=0 note=76 velocity=68 time=9\n",
      "note_on channel=0 note=64 velocity=68 time=1\n",
      "note_on channel=0 note=71 velocity=74 time=10\n",
      "control_change channel=0 control=64 value=127 time=74\n",
      "note_on channel=0 note=47 velocity=47 time=56\n",
      "note_off channel=0 note=64 velocity=64 time=72\n",
      "note_on channel=0 note=52 velocity=52 time=62\n",
      "note_off channel=0 note=76 velocity=64 time=5\n",
      "note_off channel=0 note=71 velocity=64 time=30\n",
      "note_on channel=0 note=64 velocity=76 time=111\n",
      "note_off channel=0 note=64 velocity=64 time=74\n",
      "note_on channel=0 note=76 velocity=87 time=68\n",
      "note_on channel=0 note=64 velocity=90 time=2\n",
      "note_on channel=0 note=71 velocity=90 time=6\n",
      "note_off channel=0 note=52 velocity=64 time=70\n",
      "note_off channel=0 note=64 velocity=64 time=59\n",
      "note_off channel=0 note=76 velocity=64 time=25\n",
      "note_off channel=0 note=71 velocity=64 time=3\n",
      "note_on channel=0 note=76 velocity=76 time=129\n",
      "note_off channel=0 note=40 velocity=64 time=1\n",
      "note_on channel=0 note=64 velocity=74 time=5\n",
      "note_on channel=0 note=71 velocity=55 time=7\n",
      "note_off channel=0 note=71 velocity=64 time=26\n",
      "note_off channel=0 note=64 velocity=64 time=26\n",
      "note_off channel=0 note=47 velocity=64 time=35\n",
      "note_on channel=0 note=52 velocity=70 time=38\n",
      "note_off channel=0 note=76 velocity=64 time=56\n",
      "control_change channel=0 control=64 value=0 time=60\n",
      "note_off channel=0 note=52 velocity=64 time=1\n",
      "note_on channel=0 note=63 velocity=68 time=28\n",
      "note_on channel=0 note=75 velocity=72 time=1\n",
      "note_on channel=0 note=42 velocity=49 time=10\n",
      "control_change channel=0 control=64 value=127 time=49\n",
      "note_off channel=0 note=63 velocity=64 time=50\n",
      "note_on channel=0 note=47 velocity=50 time=36\n",
      "note_off channel=0 note=75 velocity=64 time=51\n",
      "note_on channel=0 note=64 velocity=70 time=99\n",
      "note_on channel=0 note=76 velocity=80 time=1\n",
      "note_off channel=0 note=47 velocity=64 time=95\n",
      "note_off channel=0 note=64 velocity=64 time=186\n",
      "note_off channel=0 note=76 velocity=64 time=18\n",
      "note_on channel=0 note=47 velocity=46 time=34\n",
      "note_off channel=0 note=42 velocity=64 time=61\n",
      "note_off channel=0 note=47 velocity=64 time=47\n",
      "note_on channel=0 note=64 velocity=57 time=97\n",
      "note_on channel=0 note=76 velocity=58 time=0\n",
      "note_off channel=0 note=76 velocity=64 time=47\n",
      "note_off channel=0 note=64 velocity=64 time=6\n",
      "control_change channel=0 control=64 value=0 time=245\n",
      "note_on channel=0 note=71 velocity=49 time=4\n",
      "note_on channel=0 note=45 velocity=46 time=5\n",
      "note_on channel=0 note=59 velocity=44 time=0\n",
      "control_change channel=0 control=64 value=127 time=84\n",
      "note_on channel=0 note=52 velocity=47 time=56\n",
      "note_off channel=0 note=59 velocity=64 time=25\n",
      "note_off channel=0 note=71 velocity=64 time=68\n",
      "note_on channel=0 note=59 velocity=49 time=33\n",
      "note_on channel=0 note=64 velocity=46 time=182\n",
      "note_off channel=0 note=52 velocity=64 time=15\n",
      "note_on channel=0 note=52 velocity=61 time=96\n",
      "note_off channel=0 note=59 velocity=64 time=4\n",
      "note_off channel=0 note=64 velocity=64 time=117\n",
      "note_on channel=0 note=59 velocity=61 time=25\n",
      "note_off channel=0 note=52 velocity=64 time=29\n",
      "note_off channel=0 note=45 velocity=64 time=16\n",
      "note_on channel=0 note=64 velocity=70 time=90\n",
      "note_off channel=0 note=59 velocity=64 time=28\n",
      "note_on channel=0 note=71 velocity=70 time=113\n",
      "note_off channel=0 note=64 velocity=64 time=4\n",
      "note_off channel=0 note=71 velocity=64 time=36\n",
      "control_change channel=0 control=64 value=0 time=87\n",
      "note_on channel=0 note=32 velocity=64 time=20\n",
      "note_on channel=0 note=44 velocity=62 time=5\n",
      "note_on channel=0 note=73 velocity=82 time=1\n",
      "note_on channel=0 note=61 velocity=80 time=4\n",
      "control_change channel=0 control=64 value=127 time=61\n",
      "note_off channel=0 note=44 velocity=64 time=164\n",
      "note_off channel=0 note=61 velocity=64 time=16\n",
      "note_off channel=0 note=73 velocity=64 time=49\n",
      "note_on channel=0 note=44 velocity=70 time=106\n",
      "note_on channel=0 note=63 velocity=96 time=150\n",
      "note_on channel=0 note=75 velocity=96 time=1\n",
      "note_off channel=0 note=44 velocity=64 time=9\n",
      "note_off channel=0 note=32 velocity=64 time=51\n",
      "note_off channel=0 note=63 velocity=64 time=8\n",
      "note_off channel=0 note=75 velocity=64 time=15\n",
      "note_on channel=0 note=64 velocity=58 time=186\n",
      "note_off channel=0 note=64 velocity=64 time=111\n",
      "note_on channel=0 note=71 velocity=43 time=24\n",
      "control_change channel=0 control=64 value=0 time=80\n",
      "note_off channel=0 note=71 velocity=64 time=4\n",
      "note_on channel=0 note=37 velocity=55 time=45\n",
      "note_on channel=0 note=76 velocity=72 time=6\n",
      "note_on channel=0 note=64 velocity=68 time=7\n",
      "note_on channel=0 note=71 velocity=51 time=5\n",
      "control_change channel=0 control=64 value=127 time=7\n",
      "note_off channel=0 note=64 velocity=64 time=40\n",
      "note_off channel=0 note=76 velocity=64 time=7\n",
      "note_off channel=0 note=71 velocity=64 time=14\n",
      "note_on channel=0 note=44 velocity=44 time=64\n",
      "note_on channel=0 note=49 velocity=59 time=272\n",
      "note_off channel=0 note=44 velocity=64 time=4\n",
      "note_off channel=0 note=49 velocity=64 time=104\n",
      "note_on channel=0 note=44 velocity=48 time=50\n",
      "note_on channel=0 note=49 velocity=52 time=255\n",
      "note_off channel=0 note=44 velocity=64 time=3\n",
      "note_off channel=0 note=49 velocity=64 time=85\n",
      "note_off channel=0 note=37 velocity=64 time=40\n",
      "note_on channel=0 note=44 velocity=66 time=12\n",
      "note_off channel=0 note=44 velocity=64 time=52\n",
      "note_on channel=0 note=66 velocity=87 time=84\n",
      "note_on channel=0 note=78 velocity=93 time=0\n",
      "control_change channel=0 control=64 value=0 time=4\n",
      "note_on channel=0 note=35 velocity=72 time=6\n",
      "control_change channel=0 control=64 value=127 time=74\n",
      "note_on channel=0 note=42 velocity=43 time=58\n",
      "note_off channel=0 note=66 velocity=64 time=100\n",
      "note_on channel=0 note=47 velocity=49 time=39\n",
      "note_off channel=0 note=78 velocity=64 time=29\n",
      "note_on channel=0 note=66 velocity=58 time=111\n",
      "note_off channel=0 note=66 velocity=64 time=68\n",
      "note_on channel=0 note=66 velocity=84 time=68\n",
      "note_on channel=0 note=78 velocity=84 time=4\n",
      "note_off channel=0 note=66 velocity=64 time=26\n",
      "note_off channel=0 note=78 velocity=64 time=7\n",
      "note_off channel=0 note=47 velocity=64 time=30\n",
      "note_off channel=0 note=35 velocity=64 time=213\n",
      "note_on channel=0 note=59 velocity=72 time=3\n",
      "note_on channel=0 note=71 velocity=78 time=4\n",
      "note_on channel=0 note=47 velocity=35 time=5\n",
      "note_off channel=0 note=42 velocity=64 time=3\n",
      "note_off channel=0 note=59 velocity=64 time=14\n",
      "note_off channel=0 note=71 velocity=64 time=20\n",
      "note_off channel=0 note=47 velocity=64 time=36\n",
      "note_on channel=0 note=71 velocity=61 time=210\n",
      "note_on channel=0 note=33 velocity=49 time=2\n",
      "note_on channel=0 note=83 velocity=68 time=0\n",
      "control_change channel=0 control=64 value=0 time=10\n",
      "control_change channel=0 control=64 value=127 time=81\n",
      "note_on channel=0 note=40 velocity=33 time=49\n",
      "note_off channel=0 note=71 velocity=64 time=151\n",
      "note_off channel=0 note=83 velocity=64 time=7\n",
      "note_off channel=0 note=40 velocity=64 time=3\n",
      "note_on channel=0 note=47 velocity=26 time=20\n",
      "note_off channel=0 note=47 velocity=64 time=42\n",
      "note_on channel=0 note=40 velocity=44 time=77\n",
      "note_on channel=0 note=69 velocity=64 time=133\n",
      "note_on channel=0 note=81 velocity=66 time=9\n",
      "note_off channel=0 note=69 velocity=64 time=53\n",
      "note_off channel=0 note=81 velocity=64 time=71\n",
      "note_off channel=0 note=33 velocity=64 time=29\n",
      "note_on channel=0 note=47 velocity=48 time=110\n",
      "note_off channel=0 note=40 velocity=64 time=30\n",
      "note_on channel=0 note=68 velocity=43 time=75\n",
      "note_off channel=0 note=47 velocity=64 time=1\n",
      "note_on channel=0 note=80 velocity=76 time=50\n",
      "note_off channel=0 note=68 velocity=64 time=6\n",
      "note_off channel=0 note=80 velocity=64 time=48\n",
      "note_on channel=0 note=78 velocity=54 time=83\n",
      "control_change channel=0 control=64 value=0 time=2\n",
      "note_on channel=0 note=66 velocity=46 time=1\n",
      "note_on channel=0 note=35 velocity=54 time=7\n",
      "control_change channel=0 control=64 value=127 time=100\n",
      "note_on channel=0 note=42 velocity=39 time=34\n",
      "note_off channel=0 note=66 velocity=64 time=91\n",
      "note_off channel=0 note=78 velocity=64 time=29\n",
      "note_on channel=0 note=47 velocity=48 time=24\n",
      "note_on channel=0 note=66 velocity=55 time=126\n",
      "note_off channel=0 note=66 velocity=64 time=66\n",
      "note_on channel=0 note=66 velocity=90 time=72\n",
      "note_off channel=0 note=66 velocity=64 time=37\n",
      "note_on channel=0 note=78 velocity=90 time=18\n",
      "note_off channel=0 note=78 velocity=64 time=8\n",
      "note_off channel=0 note=47 velocity=64 time=40\n",
      "note_on channel=0 note=68 velocity=70 time=75\n",
      "note_on channel=0 note=80 velocity=59 time=5\n",
      "note_off channel=0 note=35 velocity=64 time=45\n",
      "note_off channel=0 note=68 velocity=64 time=22\n",
      "note_on channel=0 note=47 velocity=62 time=13\n",
      "note_off channel=0 note=80 velocity=64 time=4\n",
      "note_on channel=0 note=69 velocity=74 time=76\n",
      "note_on channel=0 note=81 velocity=82 time=4\n",
      "note_off channel=0 note=47 velocity=64 time=19\n",
      "note_off channel=0 note=42 velocity=64 time=2\n",
      "note_off channel=0 note=69 velocity=64 time=24\n",
      "note_off channel=0 note=81 velocity=64 time=55\n",
      "control_change channel=0 control=64 value=0 time=95\n",
      "note_on channel=0 note=68 velocity=52 time=5\n",
      "note_on channel=0 note=80 velocity=62 time=3\n",
      "note_on channel=0 note=37 velocity=43 time=3\n",
      "control_change channel=0 control=64 value=127 time=108\n",
      "note_on channel=0 note=44 velocity=40 time=50\n",
      "note_off channel=0 note=68 velocity=64 time=82\n",
      "note_off channel=0 note=80 velocity=64 time=13\n",
      "note_on channel=0 note=49 velocity=45 time=54\n",
      "note_on channel=0 note=66 velocity=55 time=255\n",
      "note_on channel=0 note=78 velocity=61 time=0\n",
      "note_off channel=0 note=66 velocity=64 time=38\n",
      "note_off channel=0 note=49 velocity=64 time=0\n",
      "note_off channel=0 note=78 velocity=64 time=4\n",
      "note_on channel=0 note=49 velocity=51 time=226\n",
      "note_off channel=0 note=44 velocity=64 time=20\n",
      "note_off channel=0 note=49 velocity=64 time=38\n",
      "note_off channel=0 note=37 velocity=64 time=25\n",
      "note_on channel=0 note=64 velocity=61 time=44\n",
      "note_on channel=0 note=76 velocity=70 time=28\n",
      "note_off channel=0 note=64 velocity=64 time=5\n",
      "note_off channel=0 note=76 velocity=64 time=55\n",
      "control_change channel=0 control=64 value=0 time=52\n",
      "note_on channel=0 note=63 velocity=58 time=7\n",
      "note_on channel=0 note=75 velocity=61 time=4\n",
      "note_on channel=0 note=35 velocity=51 time=1\n",
      "control_change channel=0 control=64 value=127 time=78\n",
      "note_on channel=0 note=42 velocity=44 time=58\n",
      "note_off channel=0 note=63 velocity=64 time=27\n",
      "note_off channel=0 note=75 velocity=64 time=87\n",
      "note_on channel=0 note=76 velocity=57 time=63\n",
      "note_on channel=0 note=64 velocity=61 time=0\n",
      "control_change channel=0 control=64 value=0 time=247\n",
      "note_on channel=0 note=47 velocity=42 time=16\n",
      "note_off channel=0 note=64 velocity=64 time=28\n",
      "control_change channel=0 control=64 value=127 time=19\n",
      "note_off channel=0 note=76 velocity=64 time=195\n",
      "note_on channel=0 note=75 velocity=49 time=47\n",
      "note_on channel=0 note=63 velocity=48 time=3\n",
      "note_off channel=0 note=75 velocity=64 time=43\n",
      "note_off channel=0 note=63 velocity=64 time=2\n",
      "note_off channel=0 note=35 velocity=64 time=15\n",
      "note_off channel=0 note=47 velocity=64 time=58\n",
      "note_off channel=0 note=42 velocity=64 time=55\n",
      "note_on channel=0 note=61 velocity=43 time=262\n",
      "note_on channel=0 note=33 velocity=34 time=2\n",
      "note_on channel=0 note=73 velocity=43 time=36\n",
      "control_change channel=0 control=64 value=0 time=10\n",
      "control_change channel=0 control=64 value=127 time=70\n",
      "note_off channel=0 note=73 velocity=64 time=42\n",
      "note_on channel=0 note=40 velocity=37 time=5\n",
      "note_off channel=0 note=61 velocity=64 time=13\n",
      "note_on channel=0 note=45 velocity=50 time=135\n",
      "note_on channel=0 note=49 velocity=51 time=120\n",
      "note_off channel=0 note=49 velocity=64 time=130\n",
      "note_on channel=0 note=52 velocity=59 time=23\n",
      "note_off channel=0 note=45 velocity=64 time=75\n",
      "note_off channel=0 note=52 velocity=64 time=62\n",
      "note_on channel=0 note=57 velocity=62 time=9\n",
      "note_off channel=0 note=33 velocity=64 time=36\n",
      "note_off channel=0 note=57 velocity=64 time=10\n",
      "note_on channel=0 note=45 velocity=55 time=152\n",
      "note_off channel=0 note=45 velocity=64 time=61\n",
      "note_on channel=0 note=33 velocity=57 time=17\n",
      "note_off channel=0 note=40 velocity=64 time=9\n",
      "note_off channel=0 note=33 velocity=64 time=45\n",
      "note_on channel=0 note=32 velocity=58 time=95\n",
      "note_on channel=0 note=71 velocity=80 time=4\n",
      "note_on channel=0 note=59 velocity=74 time=1\n",
      "control_change channel=0 control=64 value=0 time=8\n",
      "control_change channel=0 control=64 value=127 time=85\n",
      "note_off channel=0 note=32 velocity=64 time=212\n",
      "note_off channel=0 note=59 velocity=64 time=35\n",
      "note_on channel=0 note=32 velocity=51 time=89\n",
      "note_off channel=0 note=32 velocity=64 time=117\n",
      "note_off channel=0 note=71 velocity=64 time=4\n",
      "note_on channel=0 note=69 velocity=64 time=23\n",
      "note_on channel=0 note=30 velocity=58 time=1\n",
      "control_change channel=0 control=64 value=0 time=2\n",
      "note_on channel=0 note=57 velocity=72 time=3\n",
      "control_change channel=0 control=64 value=127 time=71\n",
      "note_off channel=0 note=57 velocity=64 time=74\n",
      "note_off channel=0 note=30 velocity=64 time=24\n",
      "note_off channel=0 note=69 velocity=64 time=36\n",
      "note_on channel=0 note=30 velocity=52 time=61\n",
      "note_off channel=0 note=30 velocity=64 time=40\n",
      "note_on channel=0 note=37 velocity=64 time=238\n",
      "note_on channel=0 note=76 velocity=84 time=3\n",
      "note_on channel=0 note=73 velocity=78 time=4\n",
      "control_change channel=0 control=64 value=0 time=3\n",
      "control_change channel=0 control=64 value=127 time=82\n",
      "note_on channel=0 note=44 velocity=45 time=54\n",
      "note_off channel=0 note=73 velocity=64 time=135\n",
      "note_on channel=0 note=64 velocity=68 time=4\n",
      "note_off channel=0 note=76 velocity=64 time=1\n",
      "note_on channel=0 note=73 velocity=74 time=130\n",
      "note_off channel=0 note=64 velocity=64 time=80\n",
      "note_off channel=0 note=73 velocity=64 time=41\n",
      "note_on channel=0 note=64 velocity=99 time=33\n",
      "note_on channel=0 note=73 velocity=72 time=0\n",
      "note_on channel=0 note=76 velocity=93 time=0\n",
      "note_off channel=0 note=64 velocity=64 time=40\n",
      "note_off channel=0 note=73 velocity=64 time=48\n",
      "note_off channel=0 note=76 velocity=64 time=42\n",
      "note_off channel=0 note=37 velocity=64 time=151\n",
      "note_on channel=0 note=49 velocity=59 time=6\n",
      "note_off channel=0 note=44 velocity=64 time=15\n",
      "note_off channel=0 note=49 velocity=64 time=34\n",
      "note_on channel=0 note=78 velocity=66 time=94\n",
      "note_off channel=0 note=78 velocity=64 time=46\n",
      "control_change channel=0 control=64 value=0 time=85\n",
      "note_on channel=0 note=78 velocity=82 time=4\n",
      "note_on channel=0 note=35 velocity=64 time=5\n",
      "note_on channel=0 note=75 velocity=44 time=15\n",
      "note_off channel=0 note=75 velocity=64 time=20\n",
      "control_change channel=0 control=64 value=127 time=33\n",
      "note_on channel=0 note=42 velocity=45 time=72\n",
      "note_on channel=0 note=47 velocity=59 time=138\n",
      "note_off channel=0 note=78 velocity=64 time=137\n",
      "note_on channel=0 note=75 velocity=61 time=20\n",
      "note_on channel=0 note=78 velocity=78 time=113\n",
      "note_off channel=0 note=75 velocity=64 time=10\n",
      "note_off channel=0 note=78 velocity=64 time=15\n",
      "note_off channel=0 note=47 velocity=64 time=134\n",
      "note_on channel=0 note=59 velocity=70 time=125\n",
      "note_on channel=0 note=71 velocity=70 time=5\n",
      "note_off channel=0 note=59 velocity=64 time=13\n",
      "note_off channel=0 note=71 velocity=64 time=28\n",
      "note_off channel=0 note=35 velocity=64 time=40\n",
      "note_off channel=0 note=42 velocity=64 time=45\n",
      "note_on channel=0 note=47 velocity=49 time=3\n",
      "note_off channel=0 note=47 velocity=64 time=46\n",
      "note_on channel=0 note=71 velocity=84 time=105\n",
      "note_on channel=0 note=83 velocity=87 time=1\n",
      "note_on channel=0 note=33 velocity=66 time=10\n",
      "control_change channel=0 control=64 value=0 time=9\n",
      "control_change channel=0 control=64 value=127 time=83\n",
      "note_on channel=0 note=40 velocity=35 time=42\n",
      "note_on channel=0 note=45 velocity=51 time=143\n",
      "note_off channel=0 note=40 velocity=64 time=6\n",
      "note_off channel=0 note=71 velocity=64 time=60\n",
      "note_off channel=0 note=83 velocity=64 time=11\n",
      "note_off channel=0 note=45 velocity=64 time=33\n",
      "note_on channel=0 note=40 velocity=43 time=30\n",
      "note_on channel=0 note=69 velocity=84 time=142\n",
      "note_on channel=0 note=81 velocity=84 time=0\n",
      "note_on channel=0 note=45 velocity=64 time=3\n",
      "note_off channel=0 note=40 velocity=64 time=15\n",
      "note_off channel=0 note=69 velocity=64 time=35\n",
      "note_off channel=0 note=81 velocity=64 time=83\n",
      "note_off channel=0 note=45 velocity=64 time=78\n",
      "note_off channel=0 note=33 velocity=64 time=29\n",
      "note_on channel=0 note=68 velocity=61 time=37\n",
      "note_on channel=0 note=40 velocity=38 time=3\n",
      "note_on channel=0 note=80 velocity=62 time=1\n",
      "note_off channel=0 note=80 velocity=64 time=39\n",
      "note_off channel=0 note=68 velocity=64 time=3\n",
      "note_on channel=0 note=78 velocity=78 time=85\n",
      "note_on channel=0 note=66 velocity=70 time=4\n",
      "note_off channel=0 note=40 velocity=64 time=46\n",
      "control_change channel=0 control=64 value=0 time=54\n",
      "note_on channel=0 note=35 velocity=61 time=39\n",
      "control_change channel=0 control=64 value=127 time=90\n",
      "note_on channel=0 note=42 velocity=38 time=44\n",
      "note_off channel=0 note=66 velocity=64 time=77\n",
      "note_off channel=0 note=78 velocity=64 time=50\n",
      "note_on channel=0 note=47 velocity=50 time=21\n",
      "note_on channel=0 note=66 velocity=54 time=124\n",
      "note_off channel=0 note=66 velocity=64 time=73\n",
      "note_on channel=0 note=66 velocity=87 time=65\n",
      "note_on channel=0 note=78 velocity=93 time=0\n",
      "note_off channel=0 note=66 velocity=64 time=36\n",
      "note_off channel=0 note=78 velocity=64 time=27\n",
      "note_off channel=0 note=47 velocity=64 time=58\n",
      "note_on channel=0 note=68 velocity=84 time=60\n",
      "note_on channel=0 note=80 velocity=90 time=1\n",
      "note_on channel=0 note=47 velocity=84 time=76\n",
      "note_off channel=0 note=80 velocity=64 time=10\n",
      "note_off channel=0 note=68 velocity=64 time=2\n",
      "note_off channel=0 note=35 velocity=64 time=3\n",
      "note_on channel=0 note=69 velocity=96 time=54\n",
      "note_on channel=0 note=81 velocity=96 time=3\n",
      "note_off channel=0 note=42 velocity=64 time=31\n",
      "note_off channel=0 note=69 velocity=64 time=14\n",
      "note_off channel=0 note=47 velocity=64 time=5\n",
      "note_off channel=0 note=81 velocity=64 time=35\n",
      "note_on channel=0 note=68 velocity=70 time=130\n",
      "note_on channel=0 note=80 velocity=78 time=1\n",
      "note_on channel=0 note=37 velocity=50 time=10\n",
      "control_change channel=0 control=64 value=0 time=2\n",
      "control_change channel=0 control=64 value=127 time=108\n",
      "note_on channel=0 note=44 velocity=42 time=37\n",
      "note_off channel=0 note=80 velocity=64 time=108\n",
      "note_off channel=0 note=68 velocity=64 time=30\n",
      "note_on channel=0 note=49 velocity=46 time=5\n",
      "note_on channel=0 note=66 velocity=42 time=127\n",
      "note_off channel=0 note=66 velocity=64 time=70\n",
      "note_on channel=0 note=78 velocity=72 time=78\n",
      "note_on channel=0 note=66 velocity=62 time=2\n",
      "note_off channel=0 note=66 velocity=64 time=39\n",
      "note_off channel=0 note=49 velocity=64 time=5\n",
      "note_off channel=0 note=78 velocity=64 time=1\n",
      "note_on channel=0 note=49 velocity=33 time=237\n",
      "note_off channel=0 note=44 velocity=64 time=17\n",
      "note_off channel=0 note=49 velocity=64 time=9\n",
      "note_on channel=0 note=76 velocity=72 time=9\n",
      "note_on channel=0 note=64 velocity=55 time=0\n",
      "note_off channel=0 note=64 velocity=64 time=8\n",
      "note_on channel=0 note=44 velocity=47 time=90\n",
      "note_off channel=0 note=37 velocity=64 time=2\n",
      "note_off channel=0 note=44 velocity=64 time=18\n",
      "note_off channel=0 note=76 velocity=64 time=90\n",
      "note_on channel=0 note=63 velocity=62 time=29\n",
      "note_on channel=0 note=75 velocity=62 time=3\n",
      "note_on channel=0 note=35 velocity=58 time=11\n",
      "control_change channel=0 control=64 value=0 time=1\n",
      "control_change channel=0 control=64 value=127 time=90\n",
      "note_on channel=0 note=42 velocity=52 time=48\n",
      "note_off channel=0 note=63 velocity=64 time=31\n",
      "note_off channel=0 note=75 velocity=64 time=67\n",
      "note_on channel=0 note=64 velocity=64 time=52\n",
      "note_on channel=0 note=76 velocity=72 time=6\n",
      "note_on channel=0 note=47 velocity=72 time=281\n",
      "note_off channel=0 note=64 velocity=64 time=21\n",
      "note_off channel=0 note=35 velocity=64 time=104\n",
      "note_off channel=0 note=47 velocity=64 time=28\n",
      "note_off channel=0 note=42 velocity=64 time=63\n",
      "note_off channel=0 note=76 velocity=64 time=67\n",
      "note_on channel=0 note=63 velocity=72 time=26\n",
      "note_on channel=0 note=75 velocity=80 time=105\n",
      "note_off channel=0 note=63 velocity=64 time=1\n",
      "note_off channel=0 note=75 velocity=64 time=75\n",
      "control_change channel=0 control=64 value=0 time=54\n",
      "note_on channel=0 note=63 velocity=90 time=19\n",
      "note_on channel=0 note=75 velocity=90 time=3\n",
      "note_on channel=0 note=33 velocity=78 time=3\n",
      "control_change channel=0 control=64 value=127 time=62\n",
      "note_on channel=0 note=40 velocity=76 time=77\n",
      "note_off channel=0 note=63 velocity=64 time=30\n",
      "note_off channel=0 note=75 velocity=64 time=42\n",
      "note_on channel=0 note=76 velocity=99 time=73\n",
      "note_on channel=0 note=64 velocity=102 time=0\n",
      "note_off channel=0 note=64 velocity=64 time=48\n",
      "note_off channel=0 note=76 velocity=64 time=32\n",
      "note_on channel=0 note=45 velocity=84 time=201\n",
      "note_off channel=0 note=33 velocity=64 time=95\n",
      "note_off channel=0 note=45 velocity=64 time=89\n",
      "note_off channel=0 note=40 velocity=64 time=81\n",
      "note_on channel=0 note=78 velocity=84 time=17\n",
      "note_on channel=0 note=66 velocity=82 time=4\n",
      "note_off channel=0 note=66 velocity=64 time=44\n",
      "note_off channel=0 note=78 velocity=64 time=20\n",
      "control_change channel=0 control=64 value=0 time=199\n",
      "note_on channel=0 note=35 velocity=64 time=8\n",
      "note_on channel=0 note=68 velocity=68 time=2\n",
      "note_on channel=0 note=80 velocity=76 time=1\n",
      "note_on channel=0 note=47 velocity=52 time=2\n",
      "control_change channel=0 control=64 value=127 time=85\n",
      "note_off channel=0 note=47 velocity=64 time=160\n",
      "note_off channel=0 note=68 velocity=64 time=25\n",
      "note_off channel=0 note=80 velocity=64 time=57\n",
      "note_on channel=0 note=66 velocity=44 time=205\n",
      "note_on channel=0 note=78 velocity=68 time=37\n",
      "note_off channel=0 note=66 velocity=64 time=6\n",
      "note_off channel=0 note=78 velocity=64 time=30\n",
      "note_off channel=0 note=35 velocity=64 time=35\n",
      "note_on channel=0 note=47 velocity=35 time=194\n",
      "note_off channel=0 note=47 velocity=64 time=46\n",
      "control_change channel=0 control=64 value=0 time=220\n",
      "note_on channel=0 note=40 velocity=31 time=10\n",
      "note_on channel=0 note=64 velocity=40 time=0\n",
      "note_on channel=0 note=76 velocity=40 time=0\n",
      "control_change channel=0 control=64 value=127 time=78\n",
      "note_on channel=0 note=47 velocity=28 time=60\n",
      "note_off channel=0 note=64 velocity=64 time=36\n",
      "note_on channel=0 note=52 velocity=44 time=115\n",
      "note_off channel=0 note=76 velocity=64 time=1\n",
      "note_on channel=0 note=64 velocity=32 time=128\n",
      "note_on channel=0 note=71 velocity=44 time=154\n",
      "note_off channel=0 note=71 velocity=64 time=121\n",
      "note_on channel=0 note=76 velocity=51 time=15\n",
      "note_off channel=0 note=52 velocity=64 time=106\n",
      "note_off channel=0 note=64 velocity=64 time=43\n",
      "note_off channel=0 note=76 velocity=64 time=141\n",
      "note_on channel=0 note=71 velocity=35 time=20\n",
      "note_off channel=0 note=40 velocity=64 time=11\n",
      "note_off channel=0 note=71 velocity=64 time=228\n",
      "note_on channel=0 note=64 velocity=49 time=60\n",
      "note_on channel=0 note=71 velocity=35 time=272\n",
      "note_on channel=0 note=52 velocity=40 time=154\n",
      "note_off channel=0 note=64 velocity=64 time=10\n",
      "note_off channel=0 note=71 velocity=64 time=115\n",
      "note_on channel=0 note=76 velocity=59 time=9\n",
      "note_off channel=0 note=47 velocity=64 time=58\n",
      "note_off channel=0 note=52 velocity=64 time=43\n",
      "note_on channel=0 note=71 velocity=66 time=45\n",
      "note_off channel=0 note=76 velocity=64 time=14\n",
      "note_off channel=0 note=71 velocity=64 time=125\n",
      "note_on channel=0 note=64 velocity=84 time=1\n",
      "note_off channel=0 note=64 velocity=64 time=102\n",
      "note_on channel=0 note=71 velocity=45 time=52\n",
      "note_on channel=0 note=52 velocity=59 time=10\n",
      "note_off channel=0 note=71 velocity=64 time=20\n",
      "control_change channel=0 control=64 value=0 time=17\n",
      "control_change channel=0 control=64 value=127 time=79\n",
      "note_on channel=0 note=59 velocity=48 time=36\n",
      "note_on channel=0 note=64 velocity=61 time=271\n",
      "note_off channel=0 note=64 velocity=64 time=54\n",
      "note_off channel=0 note=59 velocity=64 time=70\n",
      "note_on channel=0 note=64 velocity=96 time=29\n",
      "note_off channel=0 note=52 velocity=64 time=220\n",
      "note_off channel=0 note=64 velocity=64 time=30\n",
      "note_on channel=0 note=59 velocity=50 time=24\n",
      "note_on channel=0 note=64 velocity=54 time=132\n",
      "note_off channel=0 note=59 velocity=64 time=69\n",
      "control_change channel=0 control=64 value=0 time=70\n",
      "note_on channel=0 note=54 velocity=43 time=11\n",
      "note_on channel=0 note=63 velocity=76 time=8\n",
      "note_off channel=0 note=64 velocity=64 time=7\n",
      "control_change channel=0 control=64 value=127 time=60\n",
      "note_on channel=0 note=59 velocity=54 time=75\n",
      "note_off channel=0 note=63 velocity=64 time=108\n",
      "note_on channel=0 note=64 velocity=82 time=33\n",
      "note_off channel=0 note=59 velocity=64 time=75\n",
      "note_off channel=0 note=54 velocity=64 time=217\n",
      "note_on channel=0 note=59 velocity=84 time=5\n",
      "note_off channel=0 note=59 velocity=64 time=41\n",
      "note_off channel=0 note=64 velocity=64 time=12\n",
      "note_on channel=0 note=64 velocity=76 time=250\n",
      "control_change channel=0 control=64 value=0 time=248\n",
      "note_off channel=0 note=64 velocity=64 time=21\n",
      "note_on channel=0 note=40 velocity=59 time=5\n",
      "note_on channel=0 note=63 velocity=82 time=8\n",
      "control_change channel=0 control=64 value=127 time=68\n",
      "note_on channel=0 note=47 velocity=61 time=62\n",
      "note_off channel=0 note=63 velocity=64 time=80\n",
      "note_on channel=0 note=64 velocity=82 time=63\n",
      "note_on channel=0 note=52 velocity=78 time=294\n",
      "note_off channel=0 note=52 velocity=64 time=236\n",
      "note_on channel=0 note=66 velocity=62 time=77\n",
      "note_off channel=0 note=40 velocity=64 time=38\n",
      "note_off channel=0 note=64 velocity=64 time=25\n",
      "note_off channel=0 note=47 velocity=64 time=25\n",
      "note_on channel=0 note=52 velocity=58 time=23\n",
      "note_off channel=0 note=52 velocity=64 time=84\n",
      "note_off channel=0 note=66 velocity=64 time=56\n",
      "note_on channel=0 note=68 velocity=80 time=4\n",
      "note_on channel=0 note=40 velocity=66 time=3\n",
      "control_change channel=0 control=64 value=0 time=2\n",
      "control_change channel=0 control=64 value=127 time=78\n",
      "note_on channel=0 note=47 velocity=57 time=47\n",
      "note_on channel=0 note=52 velocity=76 time=162\n",
      "note_off channel=0 note=68 velocity=64 time=119\n",
      "control_change channel=0 control=64 value=127 time=0\n",
      "note_on channel=0 note=66 velocity=68 time=0\n",
      "note_off channel=0 note=66 velocity=64 time=52\n",
      "note_on channel=0 note=66 velocity=93 time=84\n",
      "note_off channel=0 note=52 velocity=64 time=73\n",
      "note_off channel=0 note=66 velocity=64 time=6\n",
      "control_change channel=0 control=64 value=0 time=204\n",
      "note_on channel=0 note=52 velocity=70 time=1\n",
      "note_off channel=0 note=40 velocity=64 time=82\n",
      "note_on channel=0 note=64 velocity=82 time=42\n",
      "note_off channel=0 note=52 velocity=64 time=56\n",
      "note_off channel=0 note=64 velocity=64 time=5\n",
      "note_off channel=0 note=47 velocity=64 time=67\n",
      "control_change channel=0 control=64 value=0 time=17\n",
      "note_on channel=0 note=40 velocity=74 time=60\n",
      "note_on channel=0 note=64 velocity=99 time=0\n",
      "control_change channel=0 control=64 value=127 time=23\n",
      "control_change channel=0 control=64 value=127 time=55\n",
      "note_on channel=0 note=47 velocity=52 time=15\n",
      "note_off channel=0 note=64 velocity=64 time=102\n",
      "note_on channel=0 note=52 velocity=66 time=36\n",
      "note_on channel=0 note=64 velocity=70 time=131\n",
      "note_off channel=0 note=64 velocity=64 time=21\n",
      "note_on channel=0 note=64 velocity=87 time=125\n",
      "note_off channel=0 note=52 velocity=64 time=72\n",
      "note_off channel=0 note=40 velocity=64 time=61\n",
      "note_off channel=0 note=64 velocity=64 time=146\n",
      "note_off channel=0 note=47 velocity=64 time=6\n",
      "note_on channel=0 note=52 velocity=58 time=0\n",
      "note_on channel=0 note=64 velocity=61 time=167\n",
      "note_off channel=0 note=52 velocity=64 time=31\n",
      "control_change channel=0 control=64 value=0 time=1\n",
      "control_change channel=0 control=64 value=0 time=71\n",
      "note_off channel=0 note=64 velocity=64 time=7\n",
      "note_on channel=0 note=63 velocity=78 time=1\n",
      "note_on channel=0 note=42 velocity=46 time=7\n",
      "control_change channel=0 control=64 value=127 time=73\n",
      "note_on channel=0 note=47 velocity=50 time=62\n",
      "note_off channel=0 note=63 velocity=64 time=112\n",
      "control_change channel=0 control=64 value=127 time=6\n",
      "note_on channel=0 note=64 velocity=70 time=24\n",
      "note_off channel=0 note=64 velocity=64 time=293\n",
      "note_off channel=0 note=42 velocity=64 time=4\n",
      "note_on channel=0 note=51 velocity=52 time=1\n",
      "note_off channel=0 note=47 velocity=64 time=12\n",
      "note_off channel=0 note=51 velocity=64 time=48\n",
      "control_change channel=0 control=64 value=0 time=163\n",
      "note_on channel=0 note=64 velocity=44 time=44\n",
      "note_off channel=0 note=64 velocity=64 time=102\n",
      "note_on channel=0 note=59 velocity=36 time=58\n",
      "note_off channel=0 note=59 velocity=64 time=45\n",
      "control_change channel=0 control=64 value=0 time=67\n",
      "note_on channel=0 note=33 velocity=30 time=16\n",
      "note_on channel=0 note=59 velocity=62 time=7\n",
      "control_change channel=0 control=64 value=127 time=42\n",
      "control_change channel=0 control=64 value=127 time=30\n",
      "note_off channel=0 note=59 velocity=64 time=69\n",
      "note_on channel=0 note=40 velocity=38 time=14\n",
      "note_on channel=0 note=45 velocity=46 time=123\n",
      "note_on channel=0 note=52 velocity=44 time=148\n",
      "control_change channel=0 control=64 value=0 time=90\n",
      "note_off channel=0 note=52 velocity=64 time=30\n",
      "note_off channel=0 note=45 velocity=64 time=2\n",
      "note_on channel=0 note=57 velocity=57 time=18\n",
      "note_off channel=0 note=57 velocity=64 time=69\n",
      "control_change channel=0 control=64 value=127 time=17\n",
      "note_on channel=0 note=45 velocity=55 time=39\n",
      "note_off channel=0 note=40 velocity=64 time=19\n",
      "note_on channel=0 note=57 velocity=76 time=131\n",
      "note_off channel=0 note=33 velocity=64 time=59\n",
      "note_off channel=0 note=57 velocity=64 time=68\n",
      "note_off channel=0 note=45 velocity=64 time=17\n",
      "note_on channel=0 note=33 velocity=57 time=110\n",
      "note_on channel=0 note=57 velocity=64 time=3\n",
      "note_on channel=0 note=45 velocity=43 time=8\n",
      "note_off channel=0 note=33 velocity=64 time=14\n",
      "note_off channel=0 note=45 velocity=64 time=17\n",
      "note_off channel=0 note=57 velocity=64 time=98\n",
      "note_on channel=0 note=59 velocity=57 time=0\n",
      "note_off channel=0 note=59 velocity=64 time=111\n",
      "note_on channel=0 note=57 velocity=70 time=22\n",
      "note_on channel=0 note=69 velocity=59 time=0\n",
      "note_on channel=0 note=61 velocity=49 time=5\n",
      "note_off channel=0 note=57 velocity=64 time=22\n",
      "note_off channel=0 note=69 velocity=64 time=3\n",
      "note_off channel=0 note=61 velocity=64 time=89\n",
      "note_on channel=0 note=64 velocity=52 time=5\n",
      "note_on channel=0 note=59 velocity=59 time=3\n",
      "note_on channel=0 note=71 velocity=57 time=5\n",
      "note_off channel=0 note=64 velocity=64 time=13\n",
      "note_off channel=0 note=59 velocity=64 time=3\n",
      "note_off channel=0 note=71 velocity=64 time=6\n",
      "note_on channel=0 note=61 velocity=64 time=103\n",
      "note_on channel=0 note=73 velocity=61 time=3\n",
      "note_off channel=0 note=61 velocity=64 time=28\n",
      "note_on channel=0 note=69 velocity=80 time=1\n",
      "note_off channel=0 note=73 velocity=64 time=4\n",
      "note_on channel=0 note=64 velocity=70 time=75\n",
      "note_on channel=0 note=76 velocity=78 time=5\n",
      "note_off channel=0 note=64 velocity=64 time=15\n",
      "note_off channel=0 note=76 velocity=64 time=21\n",
      "note_off channel=0 note=69 velocity=64 time=16\n",
      "note_on channel=0 note=71 velocity=61 time=5\n",
      "note_on channel=0 note=69 velocity=78 time=79\n",
      "note_on channel=0 note=81 velocity=64 time=8\n",
      "note_off channel=0 note=69 velocity=64 time=32\n",
      "note_off channel=0 note=81 velocity=64 time=9\n",
      "note_on channel=0 note=73 velocity=40 time=34\n",
      "note_off channel=0 note=71 velocity=64 time=43\n",
      "note_on channel=0 note=71 velocity=59 time=20\n",
      "note_on channel=0 note=83 velocity=78 time=5\n",
      "note_off channel=0 note=71 velocity=64 time=17\n",
      "note_off channel=0 note=83 velocity=64 time=21\n",
      "control_change channel=0 control=64 value=0 time=2\n",
      "note_off channel=0 note=73 velocity=64 time=3\n",
      "note_on channel=0 note=88 velocity=51 time=125\n",
      "note_on channel=0 note=76 velocity=46 time=4\n",
      "note_on channel=0 note=76 velocity=93 time=56\n",
      "note_on channel=0 note=64 velocity=93 time=0\n",
      "note_on channel=0 note=71 velocity=90 time=5\n",
      "note_on channel=0 note=40 velocity=62 time=5\n",
      "control_change channel=0 control=64 value=0 time=2\n",
      "control_change channel=0 control=64 value=127 time=78\n",
      "note_on channel=0 note=47 velocity=52 time=50\n",
      "control_change channel=0 control=64 value=127 time=1\n",
      "note_off channel=0 note=64 velocity=64 time=65\n",
      "note_off channel=0 note=88 velocity=64 time=50\n",
      "note_off channel=0 note=76 velocity=64 time=13\n",
      "note_off channel=0 note=76 velocity=64 time=30\n",
      "note_off channel=0 note=71 velocity=64 time=6\n",
      "note_on channel=0 note=52 velocity=84 time=24\n",
      "note_on channel=0 note=64 velocity=80 time=85\n",
      "note_off channel=0 note=64 velocity=64 time=92\n",
      "note_on channel=0 note=64 velocity=99 time=50\n",
      "note_on channel=0 note=76 velocity=93 time=0\n",
      "note_on channel=0 note=71 velocity=99 time=5\n",
      "note_off channel=0 note=52 velocity=64 time=49\n",
      "note_off channel=0 note=64 velocity=64 time=142\n",
      "note_off channel=0 note=76 velocity=64 time=32\n",
      "note_off channel=0 note=71 velocity=64 time=8\n",
      "note_off channel=0 note=40 velocity=64 time=18\n",
      "note_on channel=0 note=52 velocity=82 time=26\n",
      "note_off channel=0 note=47 velocity=64 time=38\n",
      "note_on channel=0 note=76 velocity=74 time=98\n",
      "note_on channel=0 note=64 velocity=74 time=4\n",
      "note_off channel=0 note=52 velocity=64 time=8\n",
      "note_off channel=0 note=64 velocity=64 time=40\n",
      "note_off channel=0 note=76 velocity=64 time=60\n",
      "note_on channel=0 note=42 velocity=62 time=25\n",
      "note_on channel=0 note=75 velocity=80 time=7\n",
      "control_change channel=0 control=64 value=0 time=3\n",
      "note_on channel=0 note=63 velocity=76 time=0\n",
      "control_change channel=0 control=64 value=127 time=70\n",
      "note_off channel=0 note=63 velocity=64 time=90\n",
      "note_on channel=0 note=47 velocity=64 time=10\n",
      "note_off channel=0 note=75 velocity=64 time=72\n",
      "note_on channel=0 note=64 velocity=93 time=38\n",
      "note_on channel=0 note=76 velocity=96 time=2\n",
      "note_off channel=0 note=47 velocity=64 time=144\n",
      "note_on channel=0 note=47 velocity=87 time=149\n",
      "note_off channel=0 note=42 velocity=64 time=18\n",
      "note_off channel=0 note=64 velocity=64 time=69\n",
      "note_off channel=0 note=76 velocity=64 time=39\n",
      "note_on channel=0 note=64 velocity=96 time=129\n",
      "note_on channel=0 note=76 velocity=93 time=1\n",
      "note_off channel=0 note=64 velocity=64 time=79\n",
      "control_change channel=0 control=64 value=0 time=103\n",
      "note_off channel=0 note=47 velocity=64 time=18\n",
      "note_off channel=0 note=76 velocity=64 time=52\n",
      "control_change channel=0 control=64 value=0 time=15\n",
      "note_on channel=0 note=75 velocity=87 time=32\n",
      "note_on channel=0 note=63 velocity=87 time=0\n",
      "note_on channel=0 note=40 velocity=78 time=0\n",
      "control_change channel=0 control=64 value=127 time=51\n",
      "note_off channel=0 note=63 velocity=64 time=54\n",
      "note_on channel=0 note=47 velocity=68 time=15\n",
      "note_off channel=0 note=75 velocity=64 time=35\n",
      "note_on channel=0 note=64 velocity=99 time=106\n",
      "note_on channel=0 note=76 velocity=96 time=1\n",
      "note_off channel=0 note=64 velocity=64 time=50\n",
      "note_off channel=0 note=76 velocity=64 time=73\n",
      "control_change channel=0 control=64 value=127 time=75\n",
      "note_on channel=0 note=52 velocity=68 time=62\n",
      "note_off channel=0 note=52 velocity=64 time=199\n",
      "note_on channel=0 note=66 velocity=87 time=72\n",
      "note_on channel=0 note=78 velocity=90 time=2\n",
      "note_on channel=0 note=87 velocity=38 time=15\n",
      "note_on channel=0 note=75 velocity=31 time=3\n",
      "note_off channel=0 note=75 velocity=64 time=23\n",
      "note_off channel=0 note=87 velocity=64 time=0\n",
      "note_off channel=0 note=66 velocity=64 time=10\n",
      "note_off channel=0 note=40 velocity=64 time=30\n",
      "note_off channel=0 note=78 velocity=64 time=9\n",
      "note_off channel=0 note=47 velocity=64 time=40\n",
      "note_on channel=0 note=52 velocity=74 time=35\n",
      "note_off channel=0 note=52 velocity=64 time=81\n",
      "control_change channel=0 control=64 value=0 time=21\n",
      "note_on channel=0 note=80 velocity=99 time=4\n",
      "note_on channel=0 note=68 velocity=93 time=1\n",
      "note_on channel=0 note=40 velocity=72 time=4\n",
      "note_on channel=0 note=90 velocity=61 time=47\n",
      "note_on channel=0 note=78 velocity=66 time=2\n",
      "control_change channel=0 control=64 value=0 time=2\n",
      "control_change channel=0 control=64 value=127 time=24\n",
      "note_on channel=0 note=47 velocity=54 time=66\n",
      "control_change channel=0 control=64 value=127 time=74\n",
      "note_off channel=0 note=68 velocity=64 time=21\n",
      "note_off channel=0 note=80 velocity=64 time=16\n",
      "note_off channel=0 note=78 velocity=64 time=23\n",
      "note_on channel=0 note=52 velocity=74 time=4\n",
      "note_off channel=0 note=90 velocity=64 time=16\n",
      "note_on channel=0 note=66 velocity=57 time=114\n",
      "note_off channel=0 note=66 velocity=64 time=73\n",
      "note_on channel=0 note=78 velocity=93 time=57\n",
      "note_on channel=0 note=66 velocity=99 time=1\n",
      "note_off channel=0 note=66 velocity=64 time=55\n",
      "note_off channel=0 note=78 velocity=64 time=9\n",
      "note_off channel=0 note=52 velocity=64 time=11\n",
      "note_on channel=0 note=90 velocity=59 time=177\n",
      "note_on channel=0 note=78 velocity=68 time=8\n",
      "note_off channel=0 note=40 velocity=64 time=14\n",
      "note_off channel=0 note=90 velocity=64 time=7\n",
      "note_off channel=0 note=47 velocity=64 time=3\n",
      "note_off channel=0 note=78 velocity=64 time=10\n",
      "note_on channel=0 note=52 velocity=76 time=15\n",
      "note_off channel=0 note=52 velocity=64 time=105\n",
      "note_on channel=0 note=64 velocity=68 time=0\n",
      "note_off channel=0 note=64 velocity=64 time=61\n",
      "note_on channel=0 note=71 velocity=62 time=4\n",
      "note_on channel=0 note=64 velocity=51 time=37\n",
      "note_off channel=0 note=71 velocity=64 time=11\n",
      "control_change channel=0 control=64 value=0 time=0\n",
      "control_change channel=0 control=64 value=0 time=19\n",
      "note_on channel=0 note=64 velocity=93 time=11\n",
      "note_on channel=0 note=76 velocity=90 time=2\n",
      "note_on channel=0 note=71 velocity=70 time=0\n",
      "note_on channel=0 note=40 velocity=72 time=5\n",
      "note_on channel=0 note=71 velocity=93 time=0\n",
      "note_on channel=0 note=76 velocity=72 time=32\n",
      "control_change channel=0 control=64 value=127 time=24\n",
      "note_on channel=0 note=47 velocity=70 time=84\n",
      "control_change channel=0 control=64 value=127 time=2\n",
      "note_off channel=0 note=64 velocity=64 time=75\n",
      "note_off channel=0 note=64 velocity=64 time=38\n",
      "note_on channel=0 note=52 velocity=87 time=12\n",
      "note_off channel=0 note=71 velocity=64 time=4\n",
      "note_off channel=0 note=76 velocity=64 time=21\n",
      "note_off channel=0 note=76 velocity=64 time=9\n",
      "note_off channel=0 note=71 velocity=64 time=35\n",
      "note_on channel=0 note=64 velocity=82 time=66\n",
      "note_on channel=0 note=64 velocity=78 time=4\n",
      "note_off channel=0 note=64 velocity=64 time=79\n",
      "note_off channel=0 note=64 velocity=64 time=28\n",
      "note_on channel=0 note=76 velocity=87 time=24\n",
      "note_on channel=0 note=64 velocity=96 time=1\n",
      "note_on channel=0 note=76 velocity=90 time=3\n",
      "note_on channel=0 note=71 velocity=96 time=4\n",
      "note_on channel=0 note=71 velocity=90 time=1\n",
      "note_off channel=0 note=52 velocity=64 time=62\n",
      "note_off channel=0 note=76 velocity=64 time=4\n",
      "note_off channel=0 note=71 velocity=64 time=28\n",
      "note_on channel=0 note=64 velocity=93 time=65\n",
      "note_off channel=0 note=40 velocity=64 time=5\n",
      "note_off channel=0 note=64 velocity=64 time=2\n",
      "note_off channel=0 note=76 velocity=64 time=28\n",
      "note_off channel=0 note=71 velocity=64 time=10\n",
      "note_off channel=0 note=47 velocity=64 time=57\n",
      "note_off channel=0 note=64 velocity=64 time=1\n",
      "note_on channel=0 note=52 velocity=72 time=7\n",
      "note_on channel=0 note=71 velocity=90 time=7\n",
      "note_on channel=0 note=76 velocity=90 time=0\n",
      "note_on channel=0 note=64 velocity=87 time=16\n",
      "note_on channel=0 note=76 velocity=82 time=2\n",
      "note_on channel=0 note=71 velocity=66 time=13\n",
      "note_off channel=0 note=76 velocity=64 time=49\n",
      "note_off channel=0 note=64 velocity=64 time=3\n",
      "note_off channel=0 note=71 velocity=64 time=12\n",
      "note_off channel=0 note=71 velocity=64 time=3\n",
      "note_off channel=0 note=52 velocity=64 time=18\n",
      "note_on channel=0 note=64 velocity=82 time=30\n",
      "note_off channel=0 note=64 velocity=64 time=48\n",
      "note_off channel=0 note=76 velocity=64 time=42\n",
      "control_change channel=0 control=64 value=0 time=7\n",
      "note_on channel=0 note=42 velocity=54 time=8\n",
      "note_on channel=0 note=63 velocity=76 time=22\n",
      "note_on channel=0 note=75 velocity=72 time=3\n",
      "note_on channel=0 note=75 velocity=70 time=13\n",
      "control_change channel=0 control=64 value=0 time=2\n",
      "control_change channel=0 control=64 value=127 time=40\n",
      "note_on channel=0 note=47 velocity=66 time=72\n",
      "note_off channel=0 note=63 velocity=64 time=5\n",
      "note_off channel=0 note=75 velocity=64 time=85\n",
      "control_change channel=0 control=64 value=127 time=0\n",
      "note_on channel=0 note=76 velocity=82 time=55\n",
      "note_on channel=0 note=64 velocity=76 time=0\n",
      "note_off channel=0 note=47 velocity=64 time=35\n",
      "note_off channel=0 note=75 velocity=64 time=82\n",
      "note_on channel=0 note=47 velocity=50 time=23\n",
      "note_off channel=0 note=64 velocity=64 time=35\n",
      "note_off channel=0 note=76 velocity=64 time=1\n",
      "control_change channel=0 control=64 value=0 time=92\n",
      "note_on channel=0 note=76 velocity=64 time=27\n",
      "note_on channel=0 note=64 velocity=80 time=0\n",
      "note_on channel=0 note=76 velocity=82 time=0\n",
      "note_off channel=0 note=47 velocity=64 time=27\n",
      "control_change channel=0 control=64 value=127 time=39\n",
      "note_off channel=0 note=76 velocity=64 time=84\n",
      "note_off channel=0 note=64 velocity=64 time=3\n",
      "note_off channel=0 note=76 velocity=64 time=15\n",
      "note_on channel=0 note=47 velocity=42 time=123\n",
      "note_off channel=0 note=42 velocity=64 time=60\n",
      "note_off channel=0 note=47 velocity=64 time=55\n",
      "note_on channel=0 note=59 velocity=59 time=0\n",
      "note_off channel=0 note=59 velocity=64 time=71\n",
      "note_on channel=0 note=59 velocity=64 time=61\n",
      "note_on channel=0 note=71 velocity=80 time=2\n",
      "control_change channel=0 control=64 value=0 time=2\n",
      "note_on channel=0 note=45 velocity=54 time=6\n",
      "control_change channel=0 control=64 value=127 time=77\n",
      "note_on channel=0 note=52 velocity=61 time=40\n",
      "note_off channel=0 note=59 velocity=64 time=16\n",
      "note_on channel=0 note=83 velocity=45 time=70\n",
      "note_off channel=0 note=71 velocity=64 time=55\n",
      "note_on channel=0 note=57 velocity=72 time=10\n",
      "note_off channel=0 note=83 velocity=64 time=29\n",
      "note_off channel=0 note=57 velocity=64 time=47\n",
      "note_on channel=0 note=95 velocity=72 time=4\n",
      "note_off channel=0 note=95 velocity=64 time=17\n",
      "note_on channel=0 note=59 velocity=76 time=47\n",
      "note_off channel=0 note=59 velocity=64 time=61\n",
      "note_on channel=0 note=59 velocity=80 time=57\n",
      "note_on channel=0 note=64 velocity=84 time=0\n",
      "note_off channel=0 note=59 velocity=64 time=67\n",
      "note_off channel=0 note=64 velocity=64 time=47\n",
      "note_on channel=0 note=95 velocity=62 time=19\n",
      "note_on channel=0 note=59 velocity=82 time=5\n",
      "note_off channel=0 note=59 velocity=64 time=40\n",
      "note_off channel=0 note=95 velocity=64 time=49\n",
      "note_off channel=0 note=45 velocity=64 time=33\n",
      "note_off channel=0 note=52 velocity=64 time=20\n",
      "note_on channel=0 note=57 velocity=90 time=0\n",
      "note_on channel=0 note=107 velocity=76 time=2\n",
      "note_off channel=0 note=107 velocity=64 time=15\n",
      "note_off channel=0 note=57 velocity=64 time=17\n",
      "note_on channel=0 note=61 velocity=66 time=105\n",
      "note_off channel=0 note=61 velocity=64 time=79\n",
      "control_change channel=0 control=64 value=0 time=46\n",
      "note_on channel=0 note=44 velocity=93 time=9\n",
      "note_on channel=0 note=61 velocity=105 time=1\n",
      "note_on channel=0 note=73 velocity=102 time=0\n",
      "note_on channel=0 note=32 velocity=93 time=1\n",
      "control_change channel=0 control=64 value=127 time=73\n",
      "note_off channel=0 note=44 velocity=64 time=165\n",
      "note_off channel=0 note=32 velocity=64 time=6\n",
      "note_off channel=0 note=61 velocity=64 time=18\n",
      "note_off channel=0 note=73 velocity=64 time=51\n",
      "note_on channel=0 note=44 velocity=99 time=107\n",
      "note_on channel=0 note=32 velocity=82 time=2\n",
      "note_on channel=0 note=75 velocity=99 time=135\n",
      "note_on channel=0 note=63 velocity=108 time=0\n",
      "note_off channel=0 note=44 velocity=64 time=117\n",
      "note_off channel=0 note=32 velocity=64 time=18\n",
      "note_off channel=0 note=63 velocity=64 time=13\n",
      "note_off channel=0 note=75 velocity=64 time=94\n",
      "note_on channel=0 note=44 velocity=74 time=23\n",
      "note_on channel=0 note=32 velocity=68 time=1\n",
      "note_off channel=0 note=44 velocity=64 time=40\n",
      "note_off channel=0 note=32 velocity=64 time=34\n",
      "note_on channel=0 note=76 velocity=87 time=68\n",
      "note_off channel=0 note=76 velocity=64 time=73\n",
      "control_change channel=0 control=64 value=0 time=32\n",
      "note_on channel=0 note=25 velocity=87 time=30\n",
      "note_on channel=0 note=37 velocity=90 time=2\n",
      "note_on channel=0 note=73 velocity=102 time=1\n",
      "note_on channel=0 note=76 velocity=102 time=0\n",
      "control_change channel=0 control=64 value=127 time=52\n",
      "note_off channel=0 note=76 velocity=64 time=307\n",
      "note_off channel=0 note=73 velocity=64 time=30\n",
      "note_on channel=0 note=64 velocity=84 time=30\n",
      "note_off channel=0 note=64 velocity=64 time=63\n",
      "note_on channel=0 note=64 velocity=108 time=69\n",
      "note_on channel=0 note=76 velocity=102 time=1\n",
      "note_on channel=0 note=73 velocity=96 time=3\n",
      "note_off channel=0 note=64 velocity=64 time=87\n",
      "note_off channel=0 note=37 velocity=64 time=33\n",
      "note_off channel=0 note=25 velocity=64 time=10\n",
      "note_off channel=0 note=76 velocity=64 time=24\n",
      "note_off channel=0 note=73 velocity=64 time=17\n",
      "note_on channel=0 note=25 velocity=62 time=89\n",
      "note_on channel=0 note=37 velocity=62 time=4\n",
      "note_off channel=0 note=37 velocity=64 time=51\n",
      "note_off channel=0 note=25 velocity=64 time=10\n",
      "note_on channel=0 note=66 velocity=66 time=59\n",
      "note_off channel=0 note=66 velocity=64 time=57\n",
      "note_on channel=0 note=78 velocity=87 time=8\n",
      "note_off channel=0 note=78 velocity=64 time=52\n",
      "control_change channel=0 control=64 value=0 time=15\n",
      "control_change channel=0 control=64 value=0 time=5\n",
      "note_on channel=0 note=35 velocity=93 time=28\n",
      "note_on channel=0 note=75 velocity=87 time=0\n",
      "note_on channel=0 note=78 velocity=96 time=0\n",
      "note_on channel=0 note=66 velocity=96 time=0\n",
      "control_change channel=0 control=64 value=127 time=57\n",
      "note_off channel=0 note=66 velocity=64 time=153\n",
      "note_off channel=0 note=78 velocity=64 time=105\n",
      "note_off channel=0 note=75 velocity=64 time=2\n",
      "control_change channel=0 control=64 value=127 time=46\n",
      "note_on channel=0 note=66 velocity=61 time=12\n",
      "note_on channel=0 note=66 velocity=57 time=33\n",
      "note_off channel=0 note=66 velocity=64 time=22\n",
      "note_on channel=0 note=78 velocity=90 time=72\n",
      "note_on channel=0 note=66 velocity=99 time=1\n",
      "note_on channel=0 note=75 velocity=90 time=5\n",
      "note_off channel=0 note=66 velocity=64 time=30\n",
      "note_on channel=0 note=78 velocity=70 time=2\n",
      "note_off channel=0 note=75 velocity=64 time=3\n",
      "note_off channel=0 note=78 velocity=64 time=2\n",
      "note_off channel=0 note=66 velocity=64 time=6\n",
      "note_off channel=0 note=78 velocity=64 time=26\n",
      "note_off channel=0 note=35 velocity=64 time=84\n",
      "note_on channel=0 note=59 velocity=90 time=49\n",
      "note_on channel=0 note=71 velocity=90 time=0\n",
      "note_off channel=0 note=59 velocity=64 time=32\n",
      "note_off channel=0 note=71 velocity=64 time=25\n",
      "note_on channel=0 note=35 velocity=87 time=9\n",
      "note_off channel=0 note=35 velocity=64 time=184\n",
      "control_change channel=0 control=64 value=0 time=48\n",
      "note_on channel=0 note=83 velocity=99 time=4\n",
      "note_on channel=0 note=33 velocity=93 time=3\n",
      "note_on channel=0 note=71 velocity=99 time=0\n",
      "control_change channel=0 control=64 value=0 time=2\n",
      "note_on channel=0 note=95 velocity=99 time=8\n",
      "note_on channel=0 note=83 velocity=93 time=2\n",
      "control_change channel=0 control=64 value=127 time=64\n",
      "control_change channel=0 control=64 value=127 time=34\n",
      "note_off channel=0 note=33 velocity=64 time=172\n",
      "note_off channel=0 note=71 velocity=64 time=8\n",
      "note_off channel=0 note=83 velocity=64 time=1\n",
      "note_off channel=0 note=83 velocity=64 time=17\n",
      "note_off channel=0 note=95 velocity=64 time=3\n",
      "note_on channel=0 note=33 velocity=78 time=64\n",
      "note_on channel=0 note=69 velocity=99 time=133\n",
      "note_on channel=0 note=81 velocity=96 time=0\n",
      "control_change channel=0 control=64 value=0 time=17\n",
      "note_on channel=0 note=81 velocity=70 time=8\n",
      "note_on channel=0 note=93 velocity=74 time=3\n",
      "note_off channel=0 note=69 velocity=64 time=46\n",
      "note_off channel=0 note=33 velocity=64 time=11\n",
      "note_off channel=0 note=81 velocity=64 time=22\n",
      "control_change channel=0 control=64 value=127 time=3\n",
      "note_off channel=0 note=81 velocity=64 time=5\n",
      "note_off channel=0 note=93 velocity=64 time=18\n",
      "note_on channel=0 note=33 velocity=62 time=130\n",
      "note_on channel=0 note=80 velocity=76 time=1\n",
      "note_on channel=0 note=92 velocity=78 time=3\n",
      "note_off channel=0 note=80 velocity=64 time=37\n",
      "note_off channel=0 note=92 velocity=64 time=16\n",
      "note_off channel=0 note=33 velocity=64 time=33\n",
      "note_on channel=0 note=68 velocity=76 time=44\n",
      "note_on channel=0 note=80 velocity=76 time=2\n",
      "note_off channel=0 note=68 velocity=64 time=45\n",
      "note_off channel=0 note=80 velocity=64 time=10\n",
      "control_change channel=0 control=64 value=0 time=66\n",
      "control_change channel=0 control=64 value=0 time=8\n",
      "note_on channel=0 note=90 velocity=70 time=4\n",
      "note_on channel=0 note=78 velocity=66 time=3\n",
      "note_on channel=0 note=66 velocity=90 time=5\n",
      "note_on channel=0 note=78 velocity=90 time=2\n",
      "note_on channel=0 note=35 velocity=74 time=1\n",
      "control_change channel=0 control=64 value=127 time=72\n",
      "control_change channel=0 control=64 value=127 time=30\n",
      "note_on channel=0 note=42 velocity=51 time=40\n",
      "note_off channel=0 note=90 velocity=64 time=8\n",
      "note_off channel=0 note=78 velocity=64 time=40\n",
      "note_off channel=0 note=66 velocity=64 time=31\n",
      "note_on channel=0 note=47 velocity=76 time=60\n",
      "note_off channel=0 note=78 velocity=64 time=1\n",
      "note_on channel=0 note=66 velocity=82 time=115\n",
      "note_off channel=0 note=66 velocity=64 time=55\n",
      "note_on channel=0 note=66 velocity=105 time=89\n",
      "note_on channel=0 note=78 velocity=102 time=1\n",
      "note_off channel=0 note=66 velocity=64 time=40\n",
      "note_off channel=0 note=78 velocity=64 time=30\n",
      "note_off channel=0 note=47 velocity=64 time=68\n",
      "note_on channel=0 note=68 velocity=72 time=21\n",
      "note_on channel=0 note=80 velocity=78 time=4\n",
      "note_on channel=0 note=68 velocity=80 time=20\n",
      "note_on channel=0 note=80 velocity=82 time=1\n",
      "note_off channel=0 note=68 velocity=64 time=40\n",
      "note_off channel=0 note=80 velocity=64 time=6\n",
      "note_off channel=0 note=68 velocity=64 time=17\n",
      "note_off channel=0 note=80 velocity=64 time=10\n",
      "note_on channel=0 note=47 velocity=82 time=15\n",
      "note_off channel=0 note=35 velocity=64 time=28\n",
      "note_on channel=0 note=69 velocity=93 time=17\n",
      "note_on channel=0 note=81 velocity=96 time=1\n",
      "note_on channel=0 note=69 velocity=96 time=16\n",
      "note_on channel=0 note=81 velocity=99 time=0\n",
      "note_off channel=0 note=69 velocity=64 time=24\n",
      "note_off channel=0 note=47 velocity=64 time=16\n",
      "note_off channel=0 note=69 velocity=64 time=5\n",
      "note_off channel=0 note=81 velocity=64 time=3\n",
      "note_off channel=0 note=42 velocity=64 time=6\n",
      "note_off channel=0 note=81 velocity=64 time=20\n",
      "control_change channel=0 control=64 value=0 time=82\n",
      "note_on channel=0 note=80 velocity=62 time=24\n",
      "note_on channel=0 note=68 velocity=57 time=3\n",
      "note_on channel=0 note=80 velocity=102 time=6\n",
      "note_on channel=0 note=68 velocity=87 time=0\n",
      "note_on channel=0 note=37 velocity=62 time=1\n",
      "control_change channel=0 control=64 value=0 time=5\n",
      "control_change channel=0 control=64 value=127 time=91\n",
      "note_on channel=0 note=44 velocity=50 time=52\n",
      "note_off channel=0 note=68 velocity=64 time=85\n",
      "control_change channel=0 control=64 value=127 time=5\n",
      "note_off channel=0 note=80 velocity=64 time=3\n",
      "note_on channel=0 note=49 velocity=59 time=30\n",
      "note_on channel=0 note=66 velocity=66 time=135\n",
      "note_off channel=0 note=68 velocity=64 time=25\n",
      "note_off channel=0 note=66 velocity=64 time=33\n",
      "note_on channel=0 note=66 velocity=96 time=77\n",
      "note_on channel=0 note=78 velocity=96 time=2\n",
      "note_off channel=0 note=66 velocity=64 time=37\n",
      "note_off channel=0 note=78 velocity=64 time=16\n",
      "note_off channel=0 note=49 velocity=64 time=15\n",
      "note_off channel=0 note=80 velocity=64 time=19\n",
      "note_on channel=0 note=78 velocity=64 time=78\n",
      "note_on channel=0 note=64 velocity=80 time=96\n",
      "note_on channel=0 note=49 velocity=62 time=6\n",
      "note_off channel=0 note=44 velocity=64 time=16\n",
      "note_on channel=0 note=76 velocity=93 time=2\n",
      "note_off channel=0 note=49 velocity=64 time=22\n",
      "note_off channel=0 note=64 velocity=64 time=9\n",
      "note_off channel=0 note=78 velocity=64 time=0\n",
      "note_off channel=0 note=37 velocity=64 time=6\n",
      "note_on channel=0 note=76 velocity=74 time=6\n",
      "note_off channel=0 note=76 velocity=64 time=37\n",
      "note_off channel=0 note=76 velocity=64 time=38\n",
      "control_change channel=0 control=64 value=0 time=113\n",
      "control_change channel=0 control=64 value=0 time=9\n",
      "note_on channel=0 note=75 velocity=70 time=2\n",
      "note_on channel=0 note=35 velocity=72 time=11\n",
      "note_on channel=0 note=63 velocity=87 time=4\n",
      "note_on channel=0 note=75 velocity=84 time=3\n",
      "control_change channel=0 control=64 value=127 time=70\n",
      "note_on channel=0 note=42 velocity=59 time=67\n",
      "note_off channel=0 note=63 velocity=64 time=29\n",
      "note_off channel=0 note=75 velocity=64 time=55\n",
      "control_change channel=0 control=64 value=127 time=26\n",
      "note_on channel=0 note=76 velocity=82 time=26\n",
      "note_on channel=0 note=64 velocity=76 time=0\n",
      "note_off channel=0 note=64 velocity=64 time=244\n",
      "note_on channel=0 note=47 velocity=58 time=63\n",
      "note_off channel=0 note=76 velocity=64 time=63\n",
      "note_off channel=0 note=75 velocity=64 time=57\n",
      "note_off channel=0 note=35 velocity=64 time=32\n",
      "note_off channel=0 note=47 velocity=64 time=31\n",
      "note_off channel=0 note=42 velocity=64 time=39\n",
      "note_on channel=0 note=75 velocity=59 time=13\n",
      "note_on channel=0 note=63 velocity=52 time=6\n",
      "note_off channel=0 note=75 velocity=64 time=66\n",
      "note_off channel=0 note=63 velocity=64 time=16\n",
      "control_change channel=0 control=64 value=0 time=178\n",
      "note_on channel=0 note=33 velocity=61 time=5\n",
      "note_on channel=0 note=73 velocity=68 time=4\n",
      "note_on channel=0 note=61 velocity=64 time=0\n",
      "control_change channel=0 control=64 value=0 time=18\n",
      "control_change channel=0 control=64 value=127 time=49\n",
      "note_off channel=0 note=73 velocity=64 time=30\n",
      "note_off channel=0 note=61 velocity=64 time=33\n",
      "note_on channel=0 note=40 velocity=44 time=5\n",
      "control_change channel=0 control=64 value=127 time=46\n",
      "note_on channel=0 note=45 velocity=62 time=104\n",
      "note_on channel=0 note=49 velocity=58 time=165\n",
      "note_off channel=0 note=49 velocity=64 time=55\n",
      "note_on channel=0 note=52 velocity=66 time=40\n",
      "note_off channel=0 note=45 velocity=64 time=120\n",
      "note_off channel=0 note=52 velocity=64 time=12\n",
      "note_on channel=0 note=57 velocity=80 time=3\n",
      "note_off channel=0 note=33 velocity=64 time=13\n",
      "note_off channel=0 note=57 velocity=64 time=28\n",
      "note_on channel=0 note=45 velocity=74 time=87\n",
      "note_on channel=0 note=33 velocity=74 time=128\n",
      "note_off channel=0 note=45 velocity=64 time=6\n",
      "note_off channel=0 note=40 velocity=64 time=9\n",
      "note_off channel=0 note=33 velocity=64 time=42\n",
      "control_change channel=0 control=64 value=0 time=84\n",
      "note_on channel=0 note=71 velocity=72 time=8\n",
      "note_on channel=0 note=59 velocity=105 time=7\n",
      "note_on channel=0 note=71 velocity=99 time=0\n",
      "note_on channel=0 note=32 velocity=76 time=3\n",
      "control_change channel=0 control=64 value=0 time=5\n",
      "control_change channel=0 control=64 value=127 time=76\n",
      "control_change channel=0 control=64 value=127 time=75\n",
      "note_off channel=0 note=32 velocity=64 time=134\n",
      "note_off channel=0 note=59 velocity=64 time=42\n",
      "note_on channel=0 note=32 velocity=80 time=89\n",
      "note_off channel=0 note=71 velocity=64 time=31\n",
      "note_off channel=0 note=71 velocity=64 time=44\n",
      "control_change channel=0 control=64 value=0 time=9\n",
      "control_change channel=0 control=64 value=0 time=7\n",
      "note_on channel=0 note=69 velocity=74 time=41\n",
      "note_on channel=0 note=69 velocity=82 time=9\n",
      "note_on channel=0 note=57 velocity=99 time=3\n",
      "control_change channel=0 control=64 value=127 time=6\n",
      "control_change channel=0 control=64 value=127 time=49\n",
      "note_off channel=0 note=57 velocity=64 time=71\n",
      "note_off channel=0 note=69 velocity=64 time=45\n",
      "note_off channel=0 note=69 velocity=64 time=31\n",
      "note_off channel=0 note=32 velocity=64 time=10\n",
      "note_on channel=0 note=30 velocity=70 time=34\n",
      "note_off channel=0 note=30 velocity=64 time=29\n",
      "control_change channel=0 control=64 value=0 time=233\n",
      "note_on channel=0 note=73 velocity=96 time=18\n",
      "note_on channel=0 note=76 velocity=102 time=0\n",
      "note_on channel=0 note=37 velocity=70 time=2\n",
      "control_change channel=0 control=64 value=0 time=3\n",
      "control_change channel=0 control=64 value=127 time=62\n",
      "control_change channel=0 control=64 value=127 time=49\n",
      "note_on channel=0 note=44 velocity=52 time=68\n",
      "note_off channel=0 note=73 velocity=64 time=45\n",
      "note_off channel=0 note=76 velocity=64 time=43\n",
      "note_on channel=0 note=49 velocity=70 time=5\n",
      "note_on channel=0 note=64 velocity=74 time=128\n",
      "note_off channel=0 note=64 velocity=64 time=71\n",
      "note_on channel=0 note=76 velocity=93 time=61\n",
      "note_on channel=0 note=64 velocity=108 time=2\n",
      "note_on channel=0 note=85 velocity=68 time=0\n",
      "note_on channel=0 note=73 velocity=99 time=5\n",
      "note_on channel=0 note=88 velocity=70 time=1\n",
      "aftertouch channel=0 value=6 time=15\n",
      "aftertouch channel=0 value=0 time=9\n",
      "note_off channel=0 note=49 velocity=64 time=61\n",
      "note_off channel=0 note=64 velocity=64 time=5\n",
      "note_off channel=0 note=73 velocity=64 time=90\n",
      "note_off channel=0 note=76 velocity=64 time=25\n",
      "note_off channel=0 note=85 velocity=64 time=60\n",
      "note_off channel=0 note=44 velocity=64 time=1\n",
      "note_on channel=0 note=49 velocity=52 time=5\n",
      "note_off channel=0 note=88 velocity=64 time=10\n",
      "note_off channel=0 note=49 velocity=64 time=35\n",
      "note_off channel=0 note=37 velocity=64 time=8\n",
      "note_on channel=0 note=78 velocity=78 time=78\n",
      "note_off channel=0 note=78 velocity=64 time=80\n",
      "control_change channel=0 control=64 value=0 time=43\n",
      "note_on channel=0 note=78 velocity=93 time=5\n",
      "note_on channel=0 note=35 velocity=80 time=5\n",
      "note_on channel=0 note=87 velocity=90 time=1\n",
      "note_on channel=0 note=90 velocity=82 time=3\n",
      "control_change channel=0 control=64 value=0 time=7\n",
      "control_change channel=0 control=64 value=127 time=71\n",
      "control_change channel=0 control=64 value=127 time=15\n",
      "note_on channel=0 note=42 velocity=48 time=42\n",
      "note_on channel=0 note=47 velocity=61 time=128\n",
      "note_off channel=0 note=90 velocity=64 time=67\n",
      "note_off channel=0 note=87 velocity=64 time=16\n",
      "note_off channel=0 note=78 velocity=64 time=40\n",
      "note_on channel=0 note=75 velocity=80 time=22\n",
      "note_off channel=0 note=75 velocity=64 time=87\n",
      "note_on channel=0 note=75 velocity=84 time=40\n",
      "note_on channel=0 note=78 velocity=102 time=1\n",
      "note_on channel=0 note=90 velocity=70 time=1\n",
      "note_on channel=0 note=87 velocity=72 time=3\n",
      "note_off channel=0 note=87 velocity=64 time=17\n",
      "note_off channel=0 note=90 velocity=64 time=3\n",
      "note_off channel=0 note=47 velocity=64 time=21\n",
      "note_off channel=0 note=75 velocity=64 time=4\n",
      "note_off channel=0 note=78 velocity=64 time=5\n",
      "note_off channel=0 note=35 velocity=64 time=206\n",
      "note_on channel=0 note=47 velocity=78 time=4\n",
      "note_off channel=0 note=42 velocity=64 time=28\n",
      "note_off channel=0 note=47 velocity=64 time=40\n",
      "note_on channel=0 note=59 velocity=87 time=50\n",
      "note_on channel=0 note=71 velocity=82 time=3\n",
      "note_on channel=0 note=83 velocity=90 time=2\n",
      "note_on channel=0 note=71 velocity=87 time=0\n",
      "note_off channel=0 note=59 velocity=64 time=10\n",
      "note_off channel=0 note=71 velocity=64 time=3\n",
      "note_off channel=0 note=83 velocity=64 time=25\n",
      "note_off channel=0 note=71 velocity=64 time=0\n",
      "note_on channel=0 note=83 velocity=90 time=105\n",
      "note_on channel=0 note=71 velocity=90 time=0\n",
      "note_on channel=0 note=33 velocity=72 time=11\n",
      "control_change channel=0 control=64 value=0 time=45\n",
      "note_on channel=0 note=40 velocity=48 time=78\n",
      "control_change channel=0 control=64 value=127 time=20\n",
      "note_on channel=0 note=95 velocity=80 time=38\n",
      "note_on channel=0 note=83 velocity=62 time=7\n",
      "control_change channel=0 control=64 value=0 time=21\n",
      "note_off channel=0 note=40 velocity=64 time=49\n",
      "note_on channel=0 note=45 velocity=72 time=1\n",
      "note_off channel=0 note=71 velocity=64 time=44\n",
      "control_change channel=0 control=64 value=127 time=16\n",
      "note_off channel=0 note=83 velocity=64 time=29\n",
      "note_off channel=0 note=45 velocity=64 time=23\n",
      "note_on channel=0 note=40 velocity=55 time=22\n",
      "note_on channel=0 note=69 velocity=99 time=133\n",
      "note_on channel=0 note=45 velocity=76 time=2\n",
      "note_on channel=0 note=81 velocity=99 time=0\n",
      "note_off channel=0 note=40 velocity=64 time=2\n",
      "note_off channel=0 note=69 velocity=64 time=64\n",
      "note_off channel=0 note=81 velocity=64 time=16\n",
      "note_off channel=0 note=45 velocity=64 time=35\n",
      "note_on channel=0 note=40 velocity=55 time=15\n",
      "note_off channel=0 note=83 velocity=64 time=41\n",
      "note_off channel=0 note=95 velocity=64 time=28\n",
      "note_on channel=0 note=68 velocity=99 time=55\n",
      "note_on channel=0 note=80 velocity=99 time=1\n",
      "note_off channel=0 note=68 velocity=64 time=29\n",
      "note_off channel=0 note=80 velocity=64 time=15\n",
      "note_off channel=0 note=33 velocity=64 time=16\n",
      "note_on channel=0 note=45 velocity=62 time=79\n",
      "note_off channel=0 note=40 velocity=64 time=5\n",
      "note_on channel=0 note=66 velocity=74 time=2\n",
      "note_on channel=0 note=78 velocity=74 time=2\n",
      "note_off channel=0 note=66 velocity=64 time=36\n",
      "note_off channel=0 note=78 velocity=64 time=12\n",
      "note_off channel=0 note=45 velocity=64 time=29\n",
      "note_on channel=0 note=35 velocity=82 time=48\n",
      "note_on channel=0 note=78 velocity=108 time=0\n",
      "note_on channel=0 note=66 velocity=105 time=0\n",
      "note_on channel=0 note=90 velocity=68 time=0\n",
      "note_on channel=0 note=78 velocity=64 time=3\n",
      "control_change channel=0 control=64 value=0 time=0\n",
      "control_change channel=0 control=64 value=0 time=4\n",
      "control_change channel=0 control=64 value=127 time=75\n",
      "note_on channel=0 note=42 velocity=54 time=56\n",
      "control_change channel=0 control=64 value=127 time=40\n",
      "note_off channel=0 note=66 velocity=64 time=50\n",
      "note_off channel=0 note=78 velocity=64 time=45\n",
      "note_on channel=0 note=47 velocity=80 time=4\n",
      "note_off channel=0 note=78 velocity=64 time=95\n",
      "note_on channel=0 note=66 velocity=68 time=26\n",
      "note_off channel=0 note=66 velocity=64 time=54\n",
      "note_off channel=0 note=90 velocity=64 time=44\n",
      "note_on channel=0 note=66 velocity=93 time=30\n",
      "note_on channel=0 note=78 velocity=96 time=1\n",
      "note_off channel=0 note=66 velocity=64 time=48\n",
      "note_off channel=0 note=78 velocity=64 time=20\n",
      "note_off channel=0 note=47 velocity=64 time=40\n",
      "note_on channel=0 note=80 velocity=80 time=18\n",
      "note_on channel=0 note=92 velocity=84 time=2\n",
      "note_on channel=0 note=68 velocity=78 time=22\n",
      "note_on channel=0 note=80 velocity=72 time=1\n",
      "note_off channel=0 note=35 velocity=64 time=48\n",
      "note_off channel=0 note=80 velocity=64 time=6\n",
      "note_off channel=0 note=68 velocity=64 time=15\n",
      "note_off channel=0 note=92 velocity=64 time=4\n",
      "note_off channel=0 note=80 velocity=64 time=36\n",
      "note_on channel=0 note=47 velocity=74 time=18\n",
      "note_off channel=0 note=42 velocity=64 time=10\n",
      "note_on channel=0 note=93 velocity=93 time=7\n",
      "note_on channel=0 note=81 velocity=90 time=1\n",
      "note_on channel=0 note=69 velocity=90 time=4\n",
      "note_on channel=0 note=81 velocity=90 time=3\n",
      "note_off channel=0 note=47 velocity=64 time=25\n",
      "note_off channel=0 note=81 velocity=64 time=22\n",
      "note_off channel=0 note=69 velocity=64 time=3\n",
      "note_off channel=0 note=93 velocity=64 time=16\n",
      "note_off channel=0 note=81 velocity=64 time=7\n",
      "note_on channel=0 note=80 velocity=82 time=114\n",
      "control_change channel=0 control=64 value=0 time=0\n",
      "note_on channel=0 note=92 velocity=80 time=1\n",
      "control_change channel=0 control=64 value=0 time=8\n",
      "note_on channel=0 note=68 velocity=72 time=2\n",
      "note_on channel=0 note=80 velocity=87 time=2\n",
      "note_on channel=0 note=37 velocity=50 time=1\n",
      "control_change channel=0 control=64 value=127 time=91\n",
      "note_on channel=0 note=44 velocity=44 time=56\n",
      "control_change channel=0 control=64 value=127 time=24\n",
      "note_off channel=0 note=68 velocity=64 time=54\n",
      "note_off channel=0 note=80 velocity=64 time=24\n",
      "note_on channel=0 note=49 velocity=48 time=23\n",
      "note_off channel=0 note=80 velocity=64 time=29\n",
      "note_off channel=0 note=92 velocity=64 time=35\n",
      "note_on channel=0 note=66 velocity=57 time=63\n",
      "note_off channel=0 note=66 velocity=64 time=57\n",
      "note_on channel=0 note=66 velocity=84 time=78\n",
      "note_on channel=0 note=78 velocity=90 time=3\n",
      "note_off channel=0 note=66 velocity=64 time=39\n",
      "note_off channel=0 note=78 velocity=64 time=10\n",
      "note_on channel=0 note=78 velocity=72 time=46\n",
      "note_off channel=0 note=49 velocity=64 time=2\n",
      "note_on channel=0 note=90 velocity=66 time=1\n",
      "control_change channel=0 control=64 value=0 time=2\n",
      "control_change channel=0 control=64 value=127 time=54\n",
      "note_off channel=0 note=78 velocity=64 time=19\n",
      "note_off channel=0 note=90 velocity=64 time=20\n",
      "note_on channel=0 note=64 velocity=68 time=60\n",
      "note_on channel=0 note=49 velocity=51 time=11\n",
      "note_off channel=0 note=44 velocity=64 time=5\n",
      "note_on channel=0 note=76 velocity=87 time=1\n",
      "note_on channel=0 note=76 velocity=80 time=23\n",
      "note_off channel=0 note=64 velocity=64 time=6\n",
      "note_on channel=0 note=88 velocity=78 time=0\n",
      "note_off channel=0 note=49 velocity=64 time=5\n",
      "note_off channel=0 note=37 velocity=64 time=23\n",
      "note_off channel=0 note=76 velocity=64 time=16\n",
      "note_off channel=0 note=76 velocity=64 time=25\n",
      "note_off channel=0 note=88 velocity=64 time=24\n",
      "control_change channel=0 control=64 value=0 time=121\n",
      "note_on channel=0 note=75 velocity=72 time=7\n",
      "control_change channel=0 control=64 value=0 time=7\n",
      "note_on channel=0 note=87 velocity=68 time=1\n",
      "note_on channel=0 note=35 velocity=74 time=11\n",
      "note_on channel=0 note=63 velocity=82 time=1\n",
      "note_on channel=0 note=75 velocity=82 time=4\n",
      "control_change channel=0 control=64 value=127 time=71\n",
      "control_change channel=0 control=64 value=127 time=7\n",
      "note_off channel=0 note=75 velocity=64 time=42\n",
      "note_on channel=0 note=42 velocity=59 time=9\n",
      "note_off channel=0 note=63 velocity=64 time=9\n",
      "note_off channel=0 note=87 velocity=64 time=32\n",
      "note_off channel=0 note=75 velocity=64 time=40\n",
      "control_change channel=0 control=64 value=0 time=51\n",
      "note_on channel=0 note=76 velocity=49 time=0\n",
      "note_on channel=0 note=64 velocity=90 time=3\n",
      "note_on channel=0 note=76 velocity=93 time=1\n",
      "note_on channel=0 note=88 velocity=58 time=3\n",
      "control_change channel=0 control=64 value=127 time=228\n",
      "note_on channel=0 note=47 velocity=99 time=45\n",
      "note_off channel=0 note=64 velocity=64 time=9\n",
      "note_off channel=0 note=88 velocity=64 time=54\n",
      "note_off channel=0 note=76 velocity=64 time=42\n",
      "note_off channel=0 note=35 velocity=64 time=64\n",
      "note_off channel=0 note=47 velocity=64 time=34\n",
      "note_off channel=0 note=42 velocity=64 time=29\n",
      "note_off channel=0 note=76 velocity=64 time=2\n",
      "note_on channel=0 note=63 velocity=93 time=45\n",
      "note_off channel=0 note=63 velocity=64 time=100\n",
      "note_on channel=0 note=75 velocity=93 time=30\n",
      "note_off channel=0 note=75 velocity=64 time=79\n",
      "control_change channel=0 control=64 value=0 time=30\n",
      "note_on channel=0 note=33 velocity=84 time=26\n",
      "note_on channel=0 note=63 velocity=102 time=4\n",
      "note_on channel=0 note=75 velocity=102 time=2\n",
      "control_change channel=0 control=64 value=127 time=48\n",
      "note_off channel=0 note=63 velocity=64 time=52\n",
      "note_on channel=0 note=45 velocity=90 time=29\n",
      "note_off channel=0 note=75 velocity=64 time=9\n",
      "note_on channel=0 note=76 velocity=99 time=127\n",
      "note_on channel=0 note=64 velocity=105 time=0\n",
      "note_off channel=0 note=64 velocity=64 time=43\n",
      "note_off channel=0 note=76 velocity=64 time=17\n",
      "note_off channel=0 note=45 velocity=64 time=47\n",
      "control_change channel=0 control=64 value=0 time=48\n",
      "note_on channel=0 note=45 velocity=90 time=100\n",
      "note_off channel=0 note=33 velocity=64 time=34\n",
      "note_off channel=0 note=45 velocity=64 time=5\n",
      "note_on channel=0 note=66 velocity=87 time=230\n",
      "note_on channel=0 note=78 velocity=90 time=1\n",
      "note_off channel=0 note=66 velocity=64 time=37\n",
      "note_off channel=0 note=78 velocity=64 time=18\n",
      "control_change channel=0 control=64 value=0 time=167\n",
      "note_on channel=0 note=80 velocity=99 time=51\n",
      "note_on channel=0 note=35 velocity=93 time=1\n",
      "note_on channel=0 note=68 velocity=105 time=0\n",
      "control_change channel=0 control=64 value=127 time=11\n",
      "note_off channel=0 note=68 velocity=64 time=32\n",
      "note_off channel=0 note=80 velocity=64 time=13\n",
      "note_off channel=0 note=35 velocity=64 time=113\n",
      "note_on channel=0 note=92 velocity=61 time=142\n",
      "note_on channel=0 note=80 velocity=59 time=5\n",
      "control_change channel=0 control=64 value=127 time=52\n",
      "note_on channel=0 note=35 velocity=82 time=60\n",
      "note_off channel=0 note=35 velocity=64 time=50\n",
      "note_on channel=0 note=35 velocity=90 time=71\n",
      "note_off channel=0 note=92 velocity=64 time=47\n",
      "note_off channel=0 note=80 velocity=64 time=8\n",
      "note_off channel=0 note=35 velocity=64 time=94\n",
      "note_on channel=0 note=66 velocity=68 time=365\n",
      "note_on channel=0 note=35 velocity=52 time=6\n",
      "note_on channel=0 note=78 velocity=90 time=20\n",
      "note_off channel=0 note=66 velocity=64 time=221\n",
      "note_off channel=0 note=78 velocity=64 time=11\n",
      "note_off channel=0 note=35 velocity=64 time=13\n",
      "note_on channel=0 note=78 velocity=33 time=4\n",
      "note_on channel=0 note=90 velocity=42 time=0\n",
      "control_change channel=0 control=64 value=0 time=111\n",
      "control_change channel=0 control=64 value=127 time=174\n",
      "note_off channel=0 note=90 velocity=64 time=141\n",
      "note_off channel=0 note=78 velocity=64 time=40\n",
      "note_on channel=0 note=64 velocity=55 time=39\n",
      "note_off channel=0 note=64 velocity=64 time=87\n",
      "note_on channel=0 note=76 velocity=50 time=73\n",
      "note_off channel=0 note=76 velocity=64 time=23\n",
      "control_change channel=0 control=64 value=0 time=62\n",
      "note_on channel=0 note=49 velocity=35 time=20\n",
      "control_change channel=0 control=64 value=0 time=0\n",
      "note_on channel=0 note=76 velocity=61 time=1\n",
      "note_on channel=0 note=37 velocity=37 time=1\n",
      "note_on channel=0 note=64 velocity=55 time=4\n",
      "note_on channel=0 note=64 velocity=46 time=25\n",
      "control_change channel=0 control=64 value=127 time=70\n",
      "control_change channel=0 control=64 value=127 time=47\n",
      "note_off channel=0 note=64 velocity=64 time=87\n",
      "note_off channel=0 note=76 velocity=64 time=41\n",
      "note_on channel=0 note=64 velocity=55 time=112\n",
      "note_on channel=0 note=76 velocity=50 time=12\n",
      "note_off channel=0 note=64 velocity=64 time=30\n",
      "note_off channel=0 note=76 velocity=64 time=17\n",
      "note_on channel=0 note=64 velocity=93 time=85\n",
      "note_on channel=0 note=76 velocity=96 time=1\n",
      "note_on channel=0 note=76 velocity=59 time=4\n",
      "note_off channel=0 note=49 velocity=64 time=23\n",
      "note_off channel=0 note=76 velocity=64 time=113\n",
      "note_on channel=0 note=71 velocity=55 time=3\n",
      "note_off channel=0 note=64 velocity=64 time=110\n",
      "note_off channel=0 note=37 velocity=64 time=27\n",
      "note_off channel=0 note=71 velocity=64 time=97\n",
      "note_on channel=0 note=68 velocity=39 time=27\n",
      "note_off channel=0 note=68 velocity=64 time=48\n",
      "note_on channel=0 note=68 velocity=57 time=81\n",
      "note_on channel=0 note=47 velocity=45 time=4\n",
      "control_change channel=0 control=64 value=0 time=1\n",
      "note_on channel=0 note=35 velocity=54 time=1\n",
      "control_change channel=0 control=64 value=127 time=114\n",
      "note_on channel=0 note=64 velocity=50 time=14\n",
      "note_off channel=0 note=64 velocity=64 time=141\n",
      "note_on channel=0 note=71 velocity=46 time=0\n",
      "note_off channel=0 note=76 velocity=64 time=50\n",
      "note_off channel=0 note=71 velocity=64 time=46\n",
      "note_off channel=0 note=64 velocity=64 time=20\n",
      "note_on channel=0 note=76 velocity=64 time=3\n",
      "note_off channel=0 note=76 velocity=64 time=21\n",
      "note_on channel=0 note=76 velocity=82 time=114\n",
      "note_off channel=0 note=76 velocity=64 time=132\n",
      "note_on channel=0 note=76 velocity=57 time=3\n",
      "note_on channel=0 note=71 velocity=51 time=0\n",
      "note_off channel=0 note=71 velocity=64 time=125\n",
      "note_on channel=0 note=68 velocity=47 time=0\n",
      "note_off channel=0 note=76 velocity=64 time=13\n",
      "note_on channel=0 note=83 velocity=57 time=5\n",
      "note_off channel=0 note=68 velocity=64 time=100\n",
      "note_off channel=0 note=83 velocity=64 time=8\n",
      "note_on channel=0 note=64 velocity=55 time=5\n",
      "note_on channel=0 note=88 velocity=76 time=9\n",
      "note_off channel=0 note=88 velocity=64 time=35\n",
      "note_off channel=0 note=64 velocity=64 time=16\n",
      "control_change channel=0 control=64 value=0 time=59\n",
      "note_on channel=0 note=45 velocity=64 time=8\n",
      "note_on channel=0 note=64 velocity=70 time=8\n",
      "note_on channel=0 note=88 velocity=74 time=17\n",
      "note_off channel=0 note=88 velocity=64 time=44\n",
      "control_change channel=0 control=64 value=127 time=1\n",
      "note_on channel=0 note=52 velocity=64 time=72\n",
      "note_on channel=0 note=71 velocity=51 time=127\n",
      "note_off channel=0 note=64 velocity=64 time=48\n",
      "note_off channel=0 note=71 velocity=64 time=17\n",
      "note_on channel=0 note=76 velocity=87 time=53\n",
      "note_on channel=0 note=64 velocity=87 time=3\n",
      "note_on channel=0 note=57 velocity=58 time=135\n",
      "note_on channel=0 note=88 velocity=62 time=132\n",
      "note_on channel=0 note=71 velocity=52 time=3\n",
      "note_off channel=0 note=64 velocity=64 time=5\n",
      "note_off channel=0 note=45 velocity=64 time=3\n",
      "note_off channel=0 note=76 velocity=64 time=26\n",
      "note_on channel=0 note=64 velocity=59 time=99\n",
      "note_on channel=0 note=95 velocity=57 time=2\n",
      "note_off channel=0 note=71 velocity=64 time=7\n",
      "note_off channel=0 note=52 velocity=64 time=61\n",
      "note_off channel=0 note=88 velocity=64 time=29\n",
      "note_off channel=0 note=95 velocity=64 time=23\n",
      "note_off channel=0 note=57 velocity=64 time=19\n",
      "note_off channel=0 note=64 velocity=64 time=5\n",
      "note_on channel=0 note=71 velocity=61 time=18\n",
      "note_on channel=0 note=100 velocity=72 time=0\n",
      "note_off channel=0 note=100 velocity=64 time=3\n",
      "note_off channel=0 note=71 velocity=64 time=9\n",
      "note_on channel=0 note=64 velocity=72 time=74\n",
      "note_on channel=0 note=71 velocity=54 time=0\n",
      "control_change channel=0 control=64 value=0 time=5\n",
      "note_on channel=0 note=47 velocity=49 time=4\n",
      "note_on channel=0 note=100 velocity=76 time=10\n",
      "control_change channel=0 control=64 value=127 time=66\n",
      "note_off channel=0 note=100 velocity=64 time=27\n",
      "note_on channel=0 note=95 velocity=64 time=19\n",
      "note_on channel=0 note=54 velocity=49 time=19\n",
      "note_off channel=0 note=64 velocity=64 time=37\n",
      "note_off channel=0 note=95 velocity=64 time=62\n",
      "note_off channel=0 note=71 velocity=64 time=20\n",
      "note_on channel=0 note=64 velocity=50 time=6\n",
      "note_on channel=0 note=88 velocity=38 time=2\n",
      "note_off channel=0 note=88 velocity=64 time=60\n",
      "note_on channel=0 note=76 velocity=68 time=49\n",
      "note_off channel=0 note=64 velocity=64 time=15\n",
      "note_off channel=0 note=76 velocity=64 time=43\n",
      "note_on channel=0 note=64 velocity=80 time=95\n",
      "note_on channel=0 note=76 velocity=70 time=7\n",
      "note_off channel=0 note=54 velocity=64 time=20\n",
      "note_on channel=0 note=54 velocity=46 time=100\n",
      "note_on channel=0 note=83 velocity=64 time=3\n",
      "note_off channel=0 note=47 velocity=64 time=61\n",
      "note_off channel=0 note=83 velocity=64 time=36\n",
      "note_on channel=0 note=76 velocity=50 time=34\n",
      "note_on channel=0 note=75 velocity=48 time=7\n",
      "note_off channel=0 note=76 velocity=64 time=3\n",
      "note_off channel=0 note=76 velocity=64 time=15\n",
      "note_off channel=0 note=54 velocity=64 time=9\n",
      "note_off channel=0 note=64 velocity=64 time=41\n",
      "note_off channel=0 note=75 velocity=64 time=35\n",
      "note_on channel=0 note=76 velocity=59 time=9\n",
      "note_off channel=0 note=76 velocity=64 time=31\n",
      "control_change channel=0 control=64 value=0 time=90\n",
      "note_on channel=0 note=49 velocity=42 time=15\n",
      "note_on channel=0 note=76 velocity=47 time=7\n",
      "note_on channel=0 note=64 velocity=55 time=3\n",
      "note_on channel=0 note=76 velocity=64 time=4\n",
      "note_on channel=0 note=64 velocity=40 time=1\n",
      "control_change channel=0 control=64 value=0 time=4\n",
      "control_change channel=0 control=64 value=127 time=102\n",
      "note_on channel=0 note=56 velocity=40 time=13\n",
      "control_change channel=0 control=64 value=127 time=31\n",
      "note_off channel=0 note=64 velocity=64 time=2\n",
      "note_off channel=0 note=64 velocity=64 time=35\n",
      "note_off channel=0 note=76 velocity=64 time=42\n",
      "note_off channel=0 note=76 velocity=64 time=7\n",
      "note_on channel=0 note=61 velocity=43 time=20\n",
      "note_on channel=0 note=64 velocity=48 time=121\n",
      "note_off channel=0 note=64 velocity=64 time=128\n",
      "note_on channel=0 note=66 velocity=43 time=12\n",
      "note_off channel=0 note=61 velocity=64 time=7\n",
      "note_off channel=0 note=66 velocity=64 time=116\n",
      "note_on channel=0 note=64 velocity=49 time=11\n",
      "note_on channel=0 note=61 velocity=34 time=130\n",
      "note_off channel=0 note=56 velocity=64 time=36\n",
      "note_off channel=0 note=61 velocity=64 time=4\n",
      "note_off channel=0 note=49 velocity=64 time=16\n",
      "note_on channel=0 note=71 velocity=36 time=77\n",
      "note_on channel=0 note=78 velocity=59 time=1\n",
      "note_off channel=0 note=64 velocity=64 time=5\n",
      "note_off channel=0 note=71 velocity=64 time=19\n",
      "note_off channel=0 note=78 velocity=64 time=91\n",
      "note_on channel=0 note=47 velocity=47 time=11\n",
      "note_on channel=0 note=71 velocity=50 time=13\n",
      "control_change channel=0 control=64 value=0 time=5\n",
      "note_on channel=0 note=76 velocity=35 time=3\n",
      "control_change channel=0 control=64 value=127 time=87\n",
      "note_off channel=0 note=76 velocity=64 time=13\n",
      "note_on channel=0 note=54 velocity=41 time=13\n",
      "note_on channel=0 note=83 velocity=61 time=4\n",
      "note_on channel=0 note=59 velocity=34 time=152\n",
      "note_off channel=0 note=71 velocity=64 time=89\n",
      "note_on channel=0 note=66 velocity=42 time=40\n",
      "note_off channel=0 note=66 velocity=64 time=56\n",
      "note_on channel=0 note=68 velocity=44 time=80\n",
      "note_off channel=0 note=59 velocity=64 time=15\n",
      "note_off channel=0 note=68 velocity=64 time=104\n",
      "note_on channel=0 note=71 velocity=38 time=9\n",
      "note_off channel=0 note=83 velocity=64 time=100\n",
      "note_off channel=0 note=71 velocity=64 time=6\n",
      "note_on channel=0 note=59 velocity=37 time=30\n",
      "note_on channel=0 note=80 velocity=48 time=6\n",
      "note_off channel=0 note=59 velocity=64 time=19\n",
      "note_off channel=0 note=54 velocity=64 time=15\n",
      "note_off channel=0 note=47 velocity=64 time=12\n",
      "note_on channel=0 note=61 velocity=72 time=78\n",
      "note_off channel=0 note=80 velocity=64 time=7\n",
      "note_on channel=0 note=83 velocity=57 time=8\n",
      "note_off channel=0 note=83 velocity=64 time=24\n",
      "note_off channel=0 note=61 velocity=64 time=37\n",
      "control_change channel=0 control=64 value=0 time=48\n",
      "note_on channel=0 note=85 velocity=57 time=6\n",
      "note_on channel=0 note=45 velocity=99 time=7\n",
      "note_on channel=0 note=61 velocity=99 time=0\n",
      "note_on channel=0 note=73 velocity=99 time=2\n",
      "note_on channel=0 note=33 velocity=93 time=1\n",
      "note_on channel=0 note=73 velocity=39 time=1\n",
      "control_change channel=0 control=64 value=0 time=14\n",
      "control_change channel=0 control=64 value=127 time=49\n",
      "control_change channel=0 control=64 value=127 time=86\n",
      "note_off channel=0 note=33 velocity=64 time=96\n",
      "note_off channel=0 note=45 velocity=64 time=3\n",
      "note_off channel=0 note=61 velocity=64 time=10\n",
      "note_off channel=0 note=73 velocity=64 time=52\n",
      "note_off channel=0 note=73 velocity=64 time=14\n",
      "note_off channel=0 note=85 velocity=64 time=21\n",
      "note_on channel=0 note=45 velocity=108 time=58\n",
      "note_on channel=0 note=33 velocity=99 time=2\n",
      "note_off channel=0 note=45 velocity=64 time=40\n",
      "note_off channel=0 note=33 velocity=64 time=13\n",
      "note_on channel=0 note=75 velocity=105 time=95\n",
      "note_on channel=0 note=63 velocity=108 time=0\n",
      "note_on channel=0 note=85 velocity=96 time=0\n",
      "note_on channel=0 note=73 velocity=93 time=0\n",
      "note_off channel=0 note=73 velocity=64 time=20\n",
      "note_off channel=0 note=85 velocity=64 time=17\n",
      "note_off channel=0 note=63 velocity=64 time=138\n",
      "note_on channel=0 note=45 velocity=111 time=63\n",
      "note_on channel=0 note=33 velocity=99 time=2\n",
      "note_off channel=0 note=75 velocity=64 time=13\n",
      "note_off channel=0 note=45 velocity=64 time=42\n",
      "note_off channel=0 note=33 velocity=64 time=5\n",
      "note_on channel=0 note=64 velocity=90 time=61\n",
      "note_off channel=0 note=64 velocity=64 time=66\n",
      "control_change channel=0 control=64 value=0 time=45\n",
      "note_on channel=0 note=44 velocity=108 time=25\n",
      "note_on channel=0 note=32 velocity=102 time=1\n",
      "note_on channel=0 note=64 velocity=111 time=2\n",
      "note_on channel=0 note=76 velocity=102 time=1\n",
      "aftertouch channel=0 value=127 time=11\n",
      "aftertouch channel=0 value=122 time=24\n",
      "aftertouch channel=0 value=24 time=9\n",
      "control_change channel=0 control=64 value=127 time=7\n",
      "aftertouch channel=0 value=6 time=1\n",
      "aftertouch channel=0 value=18 time=9\n",
      "aftertouch channel=0 value=3 time=8\n",
      "aftertouch channel=0 value=0 time=8\n",
      "note_off channel=0 note=44 velocity=64 time=49\n",
      "note_off channel=0 note=32 velocity=64 time=31\n",
      "note_off channel=0 note=64 velocity=64 time=35\n",
      "control_change channel=0 control=64 value=0 time=24\n",
      "note_off channel=0 note=76 velocity=64 time=8\n",
      "note_on channel=0 note=44 velocity=105 time=48\n",
      "note_on channel=0 note=32 velocity=105 time=2\n",
      "note_on channel=0 note=76 velocity=87 time=2\n",
      "note_on channel=0 note=88 velocity=82 time=3\n",
      "note_on channel=0 note=34 velocity=66 time=5\n",
      "note_off channel=0 note=34 velocity=64 time=15\n",
      "note_off channel=0 note=44 velocity=64 time=3\n",
      "note_off channel=0 note=32 velocity=64 time=25\n",
      "control_change channel=0 control=64 value=127 time=2\n",
      "note_off channel=0 note=76 velocity=64 time=36\n",
      "note_on channel=0 note=32 velocity=96 time=34\n",
      "note_on channel=0 note=44 velocity=111 time=1\n",
      "note_off channel=0 note=88 velocity=64 time=14\n",
      "note_off channel=0 note=44 velocity=64 time=23\n",
      "note_off channel=0 note=32 velocity=64 time=17\n",
      "control_change channel=0 control=64 value=0 time=28\n",
      "note_on channel=0 note=66 velocity=111 time=54\n",
      "note_on channel=0 note=42 velocity=105 time=1\n",
      "note_on channel=0 note=30 velocity=102 time=0\n",
      "note_on channel=0 note=78 velocity=111 time=2\n",
      "aftertouch channel=0 value=55 time=17\n",
      "control_change channel=0 control=64 value=127 time=4\n",
      "aftertouch channel=0 value=10 time=5\n",
      "aftertouch channel=0 value=0 time=7\n",
      "note_off channel=0 note=42 velocity=64 time=14\n",
      "note_off channel=0 note=30 velocity=64 time=13\n",
      "control_change channel=0 control=64 value=0 time=26\n",
      "note_off channel=0 note=66 velocity=64 time=10\n",
      "note_off channel=0 note=78 velocity=64 time=36\n",
      "note_on channel=0 note=30 velocity=99 time=41\n",
      "note_on channel=0 note=42 velocity=102 time=3\n",
      "note_off channel=0 note=42 velocity=64 time=42\n",
      "note_off channel=0 note=30 velocity=64 time=8\n",
      "control_change channel=0 control=64 value=127 time=37\n",
      "note_on channel=0 note=42 velocity=93 time=89\n",
      "note_on channel=0 note=30 velocity=96 time=1\n",
      "note_off channel=0 note=42 velocity=64 time=47\n",
      "note_off channel=0 note=30 velocity=64 time=12\n",
      "control_change channel=0 control=64 value=0 time=81\n",
      "note_on channel=0 note=68 velocity=111 time=23\n",
      "note_on channel=0 note=80 velocity=105 time=1\n",
      "note_on channel=0 note=41 velocity=102 time=0\n",
      "note_on channel=0 note=29 velocity=102 time=4\n",
      "note_on channel=0 note=77 velocity=105 time=4\n",
      "aftertouch channel=0 value=127 time=11\n",
      "aftertouch channel=0 value=92 time=16\n",
      "aftertouch channel=0 value=0 time=10\n",
      "control_change channel=0 control=64 value=127 time=11\n",
      "note_off channel=0 note=68 velocity=64 time=179\n",
      "note_off channel=0 note=80 velocity=64 time=46\n",
      "note_off channel=0 note=77 velocity=64 time=9\n",
      "note_on channel=0 note=68 velocity=108 time=241\n",
      "note_on channel=0 note=80 velocity=96 time=0\n",
      "note_on channel=0 note=77 velocity=102 time=5\n",
      "control_change channel=0 control=64 value=0 time=5\n",
      "note_off channel=0 note=29 velocity=64 time=89\n",
      "control_change channel=0 control=64 value=127 time=15\n",
      "note_off channel=0 note=41 velocity=64 time=18\n",
      "note_off channel=0 note=77 velocity=64 time=10\n",
      "note_off channel=0 note=68 velocity=64 time=3\n",
      "note_off channel=0 note=80 velocity=64 time=27\n",
      "note_on channel=0 note=41 velocity=72 time=101\n",
      "note_on channel=0 note=29 velocity=74 time=4\n",
      "note_off channel=0 note=29 velocity=64 time=81\n",
      "note_off channel=0 note=41 velocity=64 time=14\n",
      "note_on channel=0 note=82 velocity=93 time=20\n",
      "note_off channel=0 note=82 velocity=64 time=97\n",
      "control_change channel=0 control=64 value=0 time=19\n",
      "note_on channel=0 note=39 velocity=93 time=25\n",
      "note_on channel=0 note=27 velocity=99 time=1\n",
      "note_on channel=0 note=82 velocity=111 time=5\n",
      "aftertouch channel=0 value=4 time=19\n",
      "aftertouch channel=0 value=14 time=9\n",
      "aftertouch channel=0 value=1 time=7\n",
      "aftertouch channel=0 value=0 time=8\n",
      "control_change channel=0 control=64 value=127 time=0\n",
      "note_off channel=0 note=82 velocity=64 time=277\n",
      "note_on channel=0 note=70 velocity=72 time=64\n",
      "note_off channel=0 note=70 velocity=64 time=64\n",
      "control_change channel=0 control=64 value=0 time=47\n",
      "note_on channel=0 note=70 velocity=108 time=10\n",
      "note_on channel=0 note=82 velocity=102 time=3\n",
      "note_off channel=0 note=70 velocity=64 time=30\n",
      "note_off channel=0 note=82 velocity=64 time=5\n",
      "note_on channel=0 note=27 velocity=39 time=2\n",
      "note_on channel=0 note=39 velocity=36 time=19\n",
      "control_change channel=0 control=64 value=127 time=25\n",
      "note_off channel=0 note=27 velocity=64 time=47\n",
      "note_off channel=0 note=39 velocity=64 time=3\n",
      "note_on channel=0 note=39 velocity=80 time=109\n",
      "note_on channel=0 note=27 velocity=70 time=0\n",
      "note_on channel=0 note=63 velocity=90 time=21\n",
      "note_on channel=0 note=75 velocity=87 time=1\n",
      "note_off channel=0 note=63 velocity=64 time=26\n",
      "note_on channel=0 note=63 velocity=108 time=0\n",
      "note_on channel=0 note=75 velocity=105 time=2\n",
      "note_off channel=0 note=39 velocity=64 time=6\n",
      "note_off channel=0 note=75 velocity=64 time=9\n",
      "note_off channel=0 note=63 velocity=64 time=17\n",
      "note_off channel=0 note=27 velocity=64 time=4\n",
      "note_off channel=0 note=75 velocity=64 time=17\n",
      "note_off channel=0 note=39 velocity=64 time=47\n",
      "control_change channel=0 control=64 value=0 time=88\n",
      "control_change channel=0 control=64 value=0 time=30\n",
      "note_on channel=0 note=87 velocity=111 time=17\n",
      "note_on channel=0 note=75 velocity=99 time=3\n",
      "note_on channel=0 note=75 velocity=105 time=2\n",
      "note_on channel=0 note=87 velocity=114 time=0\n",
      "note_on channel=0 note=37 velocity=93 time=1\n",
      "note_on channel=0 note=25 velocity=93 time=1\n",
      "aftertouch channel=0 value=1 time=11\n",
      "aftertouch channel=0 value=3 time=9\n",
      "aftertouch channel=0 value=0 time=8\n",
      "control_change channel=0 control=64 value=127 time=25\n",
      "control_change channel=0 control=64 value=127 time=85\n",
      "note_off channel=0 note=37 velocity=64 time=77\n",
      "note_off channel=0 note=25 velocity=64 time=36\n",
      "note_off channel=0 note=75 velocity=64 time=32\n",
      "note_off channel=0 note=87 velocity=64 time=1\n",
      "note_off channel=0 note=75 velocity=64 time=111\n",
      "note_off channel=0 note=87 velocity=64 time=54\n",
      "note_on channel=0 note=73 velocity=102 time=72\n",
      "note_on channel=0 note=85 velocity=105 time=5\n",
      "note_off channel=0 note=73 velocity=64 time=33\n",
      "note_off channel=0 note=85 velocity=64 time=21\n",
      "note_on channel=0 note=25 velocity=76 time=190\n",
      "note_on channel=0 note=37 velocity=80 time=1\n",
      "note_on channel=0 note=72 velocity=99 time=29\n",
      "note_on channel=0 note=84 velocity=99 time=3\n",
      "note_off channel=0 note=25 velocity=64 time=38\n",
      "note_off channel=0 note=84 velocity=64 time=3\n",
      "note_off channel=0 note=72 velocity=64 time=0\n",
      "note_off channel=0 note=37 velocity=64 time=10\n",
      "control_change channel=0 control=64 value=0 time=150\n",
      "control_change channel=0 control=64 value=0 time=36\n",
      "note_on channel=0 note=70 velocity=108 time=1\n",
      "note_on channel=0 note=39 velocity=82 time=2\n",
      "note_on channel=0 note=27 velocity=84 time=1\n",
      "note_on channel=0 note=82 velocity=105 time=0\n",
      "aftertouch channel=0 value=2 time=16\n",
      "aftertouch channel=0 value=0 time=8\n",
      "control_change channel=0 control=64 value=127 time=52\n",
      "control_change channel=0 control=64 value=127 time=81\n",
      "note_off channel=0 note=70 velocity=64 time=65\n",
      "note_on channel=0 note=70 velocity=72 time=138\n",
      "note_off channel=0 note=70 velocity=64 time=56\n",
      "note_on channel=0 note=70 velocity=102 time=80\n",
      "note_on channel=0 note=82 velocity=105 time=3\n",
      "note_off channel=0 note=70 velocity=64 time=43\n",
      "note_on channel=0 note=39 velocity=24 time=13\n",
      "note_off channel=0 note=82 velocity=64 time=12\n",
      "note_off channel=0 note=39 velocity=64 time=74\n",
      "note_on channel=0 note=72 velocity=99 time=14\n",
      "note_on channel=0 note=84 velocity=99 time=0\n",
      "note_off channel=0 note=72 velocity=64 time=61\n",
      "note_off channel=0 note=84 velocity=64 time=11\n",
      "note_on channel=0 note=27 velocity=78 time=5\n",
      "note_on channel=0 note=39 velocity=96 time=0\n",
      "note_off channel=0 note=27 velocity=64 time=44\n",
      "note_off channel=0 note=39 velocity=64 time=13\n",
      "note_on channel=0 note=73 velocity=90 time=11\n",
      "note_on channel=0 note=85 velocity=93 time=2\n",
      "note_off channel=0 note=39 velocity=64 time=2\n",
      "note_off channel=0 note=85 velocity=64 time=65\n",
      "note_off channel=0 note=73 velocity=64 time=5\n",
      "control_change channel=0 control=64 value=0 time=51\n",
      "control_change channel=0 control=64 value=0 time=64\n",
      "aftertouch channel=0 value=14 time=27\n",
      "aftertouch channel=0 value=0 time=9\n",
      "note_on channel=0 note=84 velocity=105 time=24\n",
      "note_on channel=0 note=72 velocity=105 time=0\n",
      "note_on channel=0 note=39 velocity=49 time=0\n",
      "note_on channel=0 note=41 velocity=72 time=0\n",
      "control_change channel=0 control=64 value=127 time=13\n",
      "control_change channel=0 control=64 value=127 time=9\n",
      "note_on channel=0 note=48 velocity=48 time=56\n",
      "note_off channel=0 note=72 velocity=64 time=92\n",
      "note_on channel=0 note=53 velocity=70 time=40\n",
      "note_off channel=0 note=84 velocity=64 time=11\n",
      "note_on channel=0 note=72 velocity=64 time=125\n",
      "note_off channel=0 note=72 velocity=64 time=65\n",
      "note_on channel=0 note=82 velocity=90 time=76\n",
      "note_on channel=0 note=70 velocity=90 time=3\n",
      "note_off channel=0 note=53 velocity=64 time=16\n",
      "note_off channel=0 note=70 velocity=64 time=29\n",
      "note_off channel=0 note=82 velocity=64 time=13\n",
      "note_on channel=0 note=68 velocity=87 time=180\n",
      "note_on channel=0 note=80 velocity=96 time=3\n",
      "note_on channel=0 note=53 velocity=78 time=6\n",
      "note_off channel=0 note=48 velocity=64 time=44\n",
      "note_off channel=0 note=68 velocity=64 time=51\n",
      "note_off channel=0 note=80 velocity=64 time=25\n",
      "note_off channel=0 note=53 velocity=64 time=13\n",
      "note_off channel=0 note=41 velocity=64 time=3\n",
      "note_on channel=0 note=48 velocity=54 time=24\n",
      "control_change channel=0 control=64 value=0 time=20\n",
      "note_off channel=0 note=48 velocity=64 time=1\n",
      "note_on channel=0 note=39 velocity=72 time=109\n",
      "control_change channel=0 control=64 value=0 time=44\n",
      "control_change channel=0 control=64 value=127 time=4\n",
      "control_change channel=0 control=64 value=127 time=70\n",
      "note_on channel=0 note=67 velocity=96 time=5\n",
      "note_on channel=0 note=79 velocity=93 time=3\n",
      "note_on channel=0 note=46 velocity=64 time=13\n",
      "control_change channel=0 control=64 value=0 time=76\n",
      "note_off channel=0 note=67 velocity=64 time=11\n",
      "note_on channel=0 note=51 velocity=76 time=43\n",
      "note_off channel=0 note=79 velocity=64 time=20\n",
      "control_change channel=0 control=64 value=127 time=20\n",
      "control_change channel=0 control=64 value=0 time=116\n",
      "note_on channel=0 note=80 velocity=96 time=113\n",
      "note_on channel=0 note=68 velocity=93 time=0\n",
      "control_change channel=0 control=64 value=127 time=57\n",
      "note_off channel=0 note=68 velocity=64 time=38\n",
      "note_off channel=0 note=51 velocity=64 time=2\n",
      "note_off channel=0 note=80 velocity=64 time=3\n",
      "note_on channel=0 note=67 velocity=90 time=80\n",
      "note_on channel=0 note=79 velocity=90 time=2\n",
      "note_off channel=0 note=67 velocity=64 time=51\n",
      "note_off channel=0 note=79 velocity=64 time=13\n",
      "note_on channel=0 note=51 velocity=82 time=2\n",
      "note_off channel=0 note=46 velocity=64 time=25\n",
      "note_off channel=0 note=39 velocity=64 time=35\n",
      "note_off channel=0 note=51 velocity=64 time=4\n",
      "note_on channel=0 note=65 velocity=76 time=43\n",
      "control_change channel=0 control=64 value=0 time=75\n",
      "note_off channel=0 note=65 velocity=64 time=22\n",
      "control_change channel=0 control=64 value=0 time=20\n",
      "note_on channel=0 note=37 velocity=72 time=19\n",
      "note_on channel=0 note=65 velocity=96 time=4\n",
      "note_on channel=0 note=77 velocity=99 time=1\n",
      "aftertouch channel=0 value=7 time=25\n"
     ]
    },
    {
     "name": "stdout",
     "output_type": "stream",
     "text": [
      "aftertouch channel=0 value=34 time=7\n",
      "aftertouch channel=0 value=0 time=9\n",
      "control_change channel=0 control=64 value=127 time=8\n",
      "control_change channel=0 control=64 value=127 time=0\n",
      "note_off channel=0 note=77 velocity=64 time=31\n",
      "note_off channel=0 note=65 velocity=64 time=27\n",
      "note_on channel=0 note=44 velocity=76 time=25\n",
      "note_on channel=0 note=49 velocity=90 time=127\n",
      "note_on channel=0 note=53 velocity=93 time=122\n",
      "note_off channel=0 note=53 velocity=64 time=90\n",
      "note_on channel=0 note=61 velocity=96 time=50\n",
      "note_on channel=0 note=53 velocity=105 time=0\n",
      "note_on channel=0 note=56 velocity=102 time=0\n",
      "note_on channel=0 note=39 velocity=42 time=1\n",
      "note_off channel=0 note=53 velocity=64 time=63\n",
      "note_off channel=0 note=49 velocity=64 time=2\n",
      "note_off channel=0 note=56 velocity=64 time=52\n",
      "note_off channel=0 note=61 velocity=64 time=27\n",
      "note_off channel=0 note=37 velocity=64 time=48\n",
      "note_off channel=0 note=39 velocity=64 time=7\n",
      "note_on channel=0 note=49 velocity=82 time=98\n",
      "note_off channel=0 note=44 velocity=64 time=28\n",
      "note_off channel=0 note=49 velocity=64 time=24\n",
      "note_on channel=0 note=63 velocity=80 time=46\n",
      "control_change channel=0 control=64 value=0 time=48\n",
      "note_off channel=0 note=63 velocity=64 time=22\n",
      "control_change channel=0 control=64 value=0 time=57\n",
      "note_on channel=0 note=36 velocity=93 time=5\n",
      "note_on channel=0 note=75 velocity=96 time=0\n",
      "note_on channel=0 note=87 velocity=105 time=0\n",
      "note_on channel=0 note=24 velocity=72 time=1\n",
      "note_on channel=0 note=36 velocity=57 time=4\n",
      "note_on channel=0 note=63 velocity=111 time=2\n",
      "note_on channel=0 note=75 velocity=108 time=1\n",
      "aftertouch channel=0 value=11 time=19\n",
      "aftertouch channel=0 value=2 time=9\n",
      "aftertouch channel=0 value=0 time=7\n",
      "control_change channel=0 control=64 value=127 time=19\n",
      "control_change channel=0 control=64 value=127 time=13\n",
      "note_off channel=0 note=36 velocity=64 time=107\n",
      "note_off channel=0 note=75 velocity=64 time=93\n",
      "note_off channel=0 note=63 velocity=64 time=8\n",
      "note_off channel=0 note=36 velocity=64 time=38\n",
      "note_off channel=0 note=24 velocity=64 time=1\n",
      "note_off channel=0 note=75 velocity=64 time=63\n",
      "note_on channel=0 note=36 velocity=66 time=8\n",
      "note_off channel=0 note=87 velocity=64 time=12\n",
      "note_off channel=0 note=36 velocity=64 time=27\n",
      "control_change channel=0 control=64 value=0 time=90\n",
      "note_on channel=0 note=61 velocity=111 time=20\n",
      "note_on channel=0 note=73 velocity=102 time=1\n",
      "note_on channel=0 note=34 velocity=90 time=0\n",
      "aftertouch channel=0 value=31 time=19\n",
      "aftertouch channel=0 value=17 time=9\n",
      "aftertouch channel=0 value=0 time=9\n",
      "control_change channel=0 control=64 value=127 time=11\n",
      "note_off channel=0 note=61 velocity=64 time=76\n",
      "note_off channel=0 note=34 velocity=64 time=46\n",
      "note_off channel=0 note=73 velocity=64 time=10\n",
      "note_on channel=0 note=34 velocity=84 time=88\n",
      "note_off channel=0 note=34 velocity=64 time=40\n",
      "control_change channel=0 control=64 value=0 time=156\n",
      "note_on channel=0 note=41 velocity=72 time=70\n",
      "note_on channel=0 note=80 velocity=99 time=0\n",
      "note_on channel=0 note=68 velocity=96 time=0\n",
      "note_on channel=0 note=29 velocity=76 time=1\n",
      "note_on channel=0 note=68 velocity=105 time=5\n",
      "note_on channel=0 note=80 velocity=102 time=2\n",
      "note_on channel=0 note=41 velocity=52 time=27\n",
      "control_change channel=0 control=64 value=0 time=19\n",
      "control_change channel=0 control=64 value=127 time=59\n",
      "note_on channel=0 note=48 velocity=72 time=18\n",
      "control_change channel=0 control=64 value=127 time=5\n",
      "note_on channel=0 note=53 velocity=76 time=128\n",
      "note_off channel=0 note=68 velocity=64 time=29\n",
      "note_off channel=0 note=80 velocity=64 time=55\n",
      "note_on channel=0 note=68 velocity=78 time=46\n",
      "note_off channel=0 note=68 velocity=64 time=64\n",
      "note_on channel=0 note=68 velocity=111 time=70\n",
      "note_on channel=0 note=80 velocity=102 time=1\n",
      "aftertouch channel=0 value=6 time=24\n",
      "aftertouch channel=0 value=0 time=8\n",
      "note_off channel=0 note=53 velocity=64 time=69\n",
      "note_off channel=0 note=68 velocity=64 time=70\n",
      "note_off channel=0 note=68 velocity=64 time=16\n",
      "note_off channel=0 note=41 velocity=64 time=20\n",
      "note_off channel=0 note=29 velocity=64 time=9\n",
      "note_off channel=0 note=80 velocity=64 time=23\n",
      "note_off channel=0 note=80 velocity=64 time=7\n",
      "note_on channel=0 note=53 velocity=87 time=23\n",
      "note_off channel=0 note=41 velocity=64 time=10\n",
      "note_off channel=0 note=48 velocity=64 time=16\n",
      "note_off channel=0 note=53 velocity=64 time=30\n",
      "note_on channel=0 note=70 velocity=80 time=62\n",
      "note_on channel=0 note=82 velocity=93 time=62\n",
      "note_off channel=0 note=70 velocity=64 time=3\n",
      "control_change channel=0 control=64 value=0 time=44\n",
      "note_off channel=0 note=82 velocity=64 time=1\n",
      "control_change channel=0 control=64 value=0 time=10\n",
      "note_on channel=0 note=70 velocity=96 time=13\n",
      "note_on channel=0 note=27 velocity=66 time=2\n",
      "note_on channel=0 note=82 velocity=87 time=0\n",
      "note_on channel=0 note=39 velocity=68 time=2\n",
      "note_on channel=0 note=39 velocity=78 time=5\n",
      "note_on channel=0 note=70 velocity=108 time=6\n",
      "note_on channel=0 note=82 velocity=105 time=0\n",
      "aftertouch channel=0 value=12 time=20\n",
      "aftertouch channel=0 value=0 time=10\n",
      "control_change channel=0 control=64 value=127 time=15\n",
      "note_on channel=0 note=46 velocity=55 time=85\n",
      "control_change channel=0 control=64 value=127 time=1\n",
      "note_off channel=0 note=70 velocity=64 time=95\n",
      "note_off channel=0 note=82 velocity=64 time=10\n",
      "note_on channel=0 note=51 velocity=76 time=14\n",
      "note_off channel=0 note=70 velocity=64 time=4\n",
      "note_off channel=0 note=82 velocity=64 time=11\n",
      "note_off channel=0 note=39 velocity=64 time=21\n",
      "note_on channel=0 note=70 velocity=74 time=86\n",
      "note_off channel=0 note=70 velocity=64 time=68\n",
      "note_on channel=0 note=82 velocity=90 time=69\n",
      "note_on channel=0 note=70 velocity=102 time=0\n",
      "note_on channel=0 note=39 velocity=44 time=3\n",
      "note_off channel=0 note=70 velocity=64 time=7\n",
      "note_off channel=0 note=82 velocity=64 time=0\n",
      "note_off channel=0 note=51 velocity=64 time=86\n",
      "note_on channel=0 note=63 velocity=99 time=47\n",
      "note_on channel=0 note=75 velocity=102 time=2\n",
      "note_off channel=0 note=63 velocity=64 time=60\n",
      "note_off channel=0 note=75 velocity=64 time=13\n",
      "note_on channel=0 note=51 velocity=90 time=3\n",
      "note_on channel=0 note=63 velocity=80 time=9\n",
      "note_on channel=0 note=75 velocity=72 time=0\n",
      "note_off channel=0 note=63 velocity=64 time=30\n",
      "note_off channel=0 note=75 velocity=64 time=18\n",
      "note_on channel=0 note=63 velocity=102 time=2\n",
      "note_on channel=0 note=75 velocity=102 time=2\n",
      "note_off channel=0 note=63 velocity=64 time=26\n",
      "note_off channel=0 note=75 velocity=64 time=22\n",
      "note_off channel=0 note=51 velocity=64 time=1\n",
      "note_off channel=0 note=46 velocity=64 time=12\n",
      "note_off channel=0 note=39 velocity=64 time=18\n",
      "control_change channel=0 control=64 value=0 time=105\n",
      "note_on channel=0 note=75 velocity=96 time=17\n",
      "note_on channel=0 note=87 velocity=99 time=2\n",
      "control_change channel=0 control=64 value=0 time=10\n",
      "note_on channel=0 note=75 velocity=105 time=6\n",
      "note_on channel=0 note=37 velocity=70 time=4\n",
      "note_on channel=0 note=87 velocity=108 time=0\n",
      "aftertouch channel=0 value=13 time=20\n",
      "aftertouch channel=0 value=0 time=10\n",
      "control_change channel=0 control=64 value=127 time=36\n",
      "note_on channel=0 note=44 velocity=55 time=64\n",
      "control_change channel=0 control=64 value=127 time=100\n",
      "note_off channel=0 note=75 velocity=64 time=15\n",
      "note_off channel=0 note=87 velocity=64 time=7\n",
      "note_on channel=0 note=49 velocity=72 time=15\n",
      "note_off channel=0 note=44 velocity=64 time=25\n",
      "note_off channel=0 note=75 velocity=64 time=44\n",
      "note_off channel=0 note=49 velocity=64 time=27\n",
      "note_off channel=0 note=87 velocity=64 time=29\n",
      "note_on channel=0 note=44 velocity=62 time=63\n",
      "control_change channel=0 control=64 value=0 time=48\n",
      "note_off channel=0 note=44 velocity=64 time=22\n",
      "note_on channel=0 note=73 velocity=105 time=1\n",
      "note_on channel=0 note=85 velocity=105 time=5\n",
      "note_on channel=0 note=49 velocity=84 time=1\n",
      "note_off channel=0 note=73 velocity=64 time=33\n",
      "note_off channel=0 note=85 velocity=64 time=26\n",
      "control_change channel=0 control=64 value=127 time=14\n",
      "note_off channel=0 note=49 velocity=64 time=30\n",
      "note_on channel=0 note=44 velocity=68 time=13\n",
      "control_change channel=0 control=64 value=0 time=62\n",
      "note_on channel=0 note=84 velocity=96 time=72\n",
      "note_on channel=0 note=72 velocity=82 time=4\n",
      "note_on channel=0 note=49 velocity=74 time=10\n",
      "note_off channel=0 note=37 velocity=64 time=5\n",
      "note_off channel=0 note=44 velocity=64 time=6\n",
      "note_off channel=0 note=84 velocity=64 time=16\n",
      "note_off channel=0 note=72 velocity=64 time=2\n",
      "note_off channel=0 note=49 velocity=64 time=57\n",
      "note_on channel=0 note=72 velocity=87 time=3\n",
      "note_on channel=0 note=84 velocity=90 time=1\n",
      "note_on channel=0 note=44 velocity=58 time=26\n",
      "note_off channel=0 note=72 velocity=64 time=11\n",
      "note_on channel=0 note=70 velocity=82 time=0\n",
      "note_off channel=0 note=84 velocity=64 time=2\n",
      "note_off channel=0 note=70 velocity=64 time=52\n",
      "note_off channel=0 note=44 velocity=64 time=21\n",
      "control_change channel=0 control=64 value=0 time=43\n",
      "note_on channel=0 note=82 velocity=87 time=6\n",
      "note_on channel=0 note=70 velocity=90 time=3\n",
      "note_on channel=0 note=39 velocity=61 time=1\n",
      "note_on channel=0 note=70 velocity=93 time=2\n",
      "note_on channel=0 note=82 velocity=105 time=3\n",
      "control_change channel=0 control=64 value=127 time=72\n",
      "note_on channel=0 note=46 velocity=16 time=190\n",
      "note_off channel=0 note=70 velocity=64 time=53\n",
      "control_change channel=0 control=64 value=127 time=22\n",
      "note_off channel=0 note=82 velocity=64 time=48\n",
      "note_on channel=0 note=51 velocity=70 time=5\n",
      "note_off channel=0 note=46 velocity=64 time=1\n",
      "note_off channel=0 note=70 velocity=64 time=48\n",
      "note_off channel=0 note=51 velocity=64 time=36\n",
      "note_off channel=0 note=82 velocity=64 time=12\n",
      "note_on channel=0 note=72 velocity=96 time=34\n",
      "note_on channel=0 note=84 velocity=99 time=0\n",
      "note_on channel=0 note=46 velocity=61 time=6\n",
      "control_change channel=0 control=64 value=0 time=13\n",
      "note_off channel=0 note=72 velocity=64 time=60\n",
      "note_off channel=0 note=84 velocity=64 time=24\n",
      "note_on channel=0 note=84 velocity=96 time=11\n",
      "note_on channel=0 note=72 velocity=102 time=1\n",
      "note_on channel=0 note=51 velocity=70 time=5\n",
      "note_off channel=0 note=46 velocity=64 time=23\n",
      "note_off channel=0 note=72 velocity=64 time=25\n",
      "note_off channel=0 note=84 velocity=64 time=23\n",
      "note_off channel=0 note=51 velocity=64 time=50\n",
      "note_on channel=0 note=46 velocity=64 time=8\n",
      "note_off channel=0 note=39 velocity=64 time=24\n",
      "note_on channel=0 note=73 velocity=87 time=23\n",
      "note_on channel=0 note=85 velocity=93 time=2\n",
      "note_on channel=0 note=73 velocity=105 time=58\n",
      "note_on channel=0 note=85 velocity=93 time=2\n",
      "note_on channel=0 note=51 velocity=80 time=0\n",
      "note_off channel=0 note=73 velocity=64 time=1\n",
      "note_off channel=0 note=85 velocity=64 time=10\n",
      "note_off channel=0 note=46 velocity=64 time=0\n",
      "note_off channel=0 note=73 velocity=64 time=34\n",
      "note_off channel=0 note=51 velocity=64 time=1\n",
      "note_off channel=0 note=85 velocity=64 time=12\n",
      "note_on channel=0 note=72 velocity=102 time=87\n",
      "note_on channel=0 note=84 velocity=102 time=0\n",
      "note_on channel=0 note=41 velocity=66 time=10\n",
      "note_on channel=0 note=84 velocity=99 time=8\n",
      "note_on channel=0 note=72 velocity=90 time=2\n",
      "control_change channel=0 control=64 value=0 time=3\n",
      "control_change channel=0 control=64 value=127 time=87\n",
      "note_on channel=0 note=48 velocity=58 time=33\n",
      "control_change channel=0 control=64 value=127 time=44\n",
      "note_off channel=0 note=72 velocity=64 time=46\n",
      "note_off channel=0 note=48 velocity=64 time=38\n",
      "note_off channel=0 note=72 velocity=64 time=6\n",
      "note_off channel=0 note=84 velocity=64 time=11\n",
      "note_on channel=0 note=53 velocity=49 time=7\n",
      "note_off channel=0 note=84 velocity=64 time=3\n",
      "note_off channel=0 note=53 velocity=64 time=65\n",
      "note_on channel=0 note=48 velocity=61 time=38\n",
      "control_change channel=0 control=64 value=0 time=90\n",
      "note_on channel=0 note=70 velocity=87 time=34\n",
      "note_on channel=0 note=82 velocity=96 time=1\n",
      "note_off channel=0 note=48 velocity=64 time=2\n",
      "note_on channel=0 note=70 velocity=93 time=8\n",
      "note_on channel=0 note=82 velocity=96 time=0\n",
      "note_on channel=0 note=53 velocity=74 time=6\n",
      "note_off channel=0 note=70 velocity=64 time=29\n",
      "note_off channel=0 note=82 velocity=64 time=16\n",
      "control_change channel=0 control=64 value=127 time=20\n",
      "note_off channel=0 note=53 velocity=64 time=30\n",
      "note_on channel=0 note=48 velocity=58 time=21\n",
      "note_off channel=0 note=41 velocity=64 time=73\n",
      "note_on channel=0 note=68 velocity=90 time=62\n",
      "note_on channel=0 note=80 velocity=90 time=2\n",
      "note_on channel=0 note=53 velocity=76 time=1\n",
      "note_off channel=0 note=48 velocity=64 time=1\n",
      "note_off channel=0 note=70 velocity=64 time=3\n",
      "note_off channel=0 note=82 velocity=64 time=30\n",
      "note_off channel=0 note=68 velocity=64 time=2\n",
      "note_off channel=0 note=80 velocity=64 time=15\n",
      "note_off channel=0 note=53 velocity=64 time=20\n",
      "note_on channel=0 note=80 velocity=80 time=66\n",
      "note_on channel=0 note=68 velocity=74 time=5\n",
      "control_change channel=0 control=64 value=0 time=22\n",
      "note_off channel=0 note=68 velocity=64 time=5\n",
      "note_off channel=0 note=80 velocity=64 time=8\n",
      "control_change channel=0 control=64 value=0 time=69\n",
      "note_on channel=0 note=67 velocity=111 time=10\n",
      "note_on channel=0 note=79 velocity=108 time=0\n",
      "note_on channel=0 note=39 velocity=66 time=5\n",
      "control_change channel=0 control=64 value=127 time=64\n",
      "note_on channel=0 note=46 velocity=27 time=86\n",
      "aftertouch channel=0 value=3 time=16\n",
      "note_off channel=0 note=46 velocity=64 time=5\n",
      "aftertouch channel=0 value=6 time=3\n",
      "control_change channel=0 control=64 value=127 time=11\n",
      "aftertouch channel=0 value=4 time=5\n",
      "aftertouch channel=0 value=3 time=18\n",
      "aftertouch channel=0 value=0 time=7\n",
      "note_on channel=0 note=46 velocity=57 time=48\n",
      "note_on channel=0 note=67 velocity=90 time=102\n",
      "note_on channel=0 note=79 velocity=87 time=0\n",
      "note_off channel=0 note=67 velocity=64 time=5\n",
      "note_off channel=0 note=79 velocity=64 time=20\n",
      "note_off channel=0 note=67 velocity=64 time=15\n",
      "note_off channel=0 note=79 velocity=64 time=16\n",
      "note_off channel=0 note=46 velocity=64 time=80\n",
      "note_on channel=0 note=51 velocity=70 time=9\n",
      "note_on channel=0 note=80 velocity=105 time=0\n",
      "note_on channel=0 note=68 velocity=102 time=1\n",
      "control_change channel=0 control=64 value=0 time=13\n",
      "note_on channel=0 note=80 velocity=87 time=2\n",
      "note_on channel=0 note=68 velocity=82 time=2\n",
      "note_off channel=0 note=51 velocity=64 time=83\n",
      "note_off channel=0 note=68 velocity=64 time=18\n",
      "note_off channel=0 note=80 velocity=64 time=17\n",
      "note_on channel=0 note=46 velocity=47 time=2\n",
      "control_change channel=0 control=64 value=127 time=21\n",
      "note_on channel=0 note=79 velocity=99 time=84\n",
      "note_off channel=0 note=68 velocity=64 time=1\n",
      "note_on channel=0 note=67 velocity=96 time=0\n",
      "note_off channel=0 note=80 velocity=64 time=26\n",
      "note_off channel=0 note=46 velocity=64 time=33\n",
      "note_on channel=0 note=51 velocity=74 time=53\n",
      "note_on channel=0 note=79 velocity=87 time=10\n",
      "note_on channel=0 note=67 velocity=82 time=2\n",
      "control_change channel=0 control=64 value=0 time=2\n",
      "note_off channel=0 note=39 velocity=64 time=8\n",
      "note_off channel=0 note=67 velocity=64 time=20\n",
      "note_off channel=0 note=51 velocity=64 time=13\n",
      "note_off channel=0 note=67 velocity=64 time=0\n",
      "note_off channel=0 note=79 velocity=64 time=12\n",
      "note_off channel=0 note=79 velocity=64 time=1\n",
      "control_change channel=0 control=64 value=0 time=69\n",
      "note_on channel=0 note=79 velocity=105 time=8\n",
      "note_on channel=0 note=37 velocity=64 time=0\n",
      "note_on channel=0 note=67 velocity=114 time=2\n",
      "note_on channel=0 note=79 velocity=93 time=5\n",
      "note_on channel=0 note=67 velocity=93 time=0\n",
      "control_change channel=0 control=64 value=127 time=57\n",
      "control_change channel=0 control=64 value=127 time=13\n",
      "note_off channel=0 note=67 velocity=64 time=48\n",
      "note_off channel=0 note=67 velocity=64 time=9\n",
      "note_off channel=0 note=79 velocity=64 time=11\n",
      "note_on channel=0 note=44 velocity=62 time=2\n",
      "note_off channel=0 note=79 velocity=64 time=22\n",
      "note_off channel=0 note=39 velocity=64 time=26\n",
      "note_off channel=0 note=27 velocity=64 time=28\n",
      "note_on channel=0 note=68 velocity=102 time=40\n",
      "note_on channel=0 note=80 velocity=105 time=0\n",
      "control_change channel=0 control=64 value=0 time=6\n",
      "note_on channel=0 note=68 velocity=84 time=1\n",
      "note_on channel=0 note=80 velocity=96 time=0\n",
      "note_off channel=0 note=68 velocity=64 time=155\n",
      "note_off channel=0 note=80 velocity=64 time=89\n",
      "note_on channel=0 note=49 velocity=93 time=28\n",
      "note_off channel=0 note=44 velocity=64 time=35\n",
      "note_off channel=0 note=68 velocity=64 time=11\n",
      "note_off channel=0 note=49 velocity=64 time=57\n",
      "note_off channel=0 note=37 velocity=64 time=64\n",
      "note_on channel=0 note=70 velocity=90 time=91\n",
      "note_on channel=0 note=82 velocity=84 time=4\n",
      "note_off channel=0 note=70 velocity=64 time=51\n",
      "note_off channel=0 note=82 velocity=64 time=28\n",
      "control_change channel=0 control=64 value=0 time=142\n",
      "note_off channel=0 note=80 velocity=64 time=28\n",
      "aftertouch channel=0 value=18 time=30\n",
      "aftertouch channel=0 value=0 time=9\n",
      "control_change channel=0 control=64 value=127 time=12\n",
      "note_on channel=0 note=39 velocity=87 time=3\n",
      "note_on channel=0 note=72 velocity=108 time=0\n",
      "note_on channel=0 note=27 velocity=87 time=0\n",
      "note_on channel=0 note=84 velocity=105 time=0\n",
      "note_off channel=0 note=84 velocity=64 time=13\n",
      "note_off channel=0 note=72 velocity=64 time=14\n",
      "note_off channel=0 note=39 velocity=64 time=145\n",
      "note_off channel=0 note=27 velocity=64 time=9\n",
      "note_on channel=0 note=27 velocity=37 time=639\n",
      "note_on channel=0 note=39 velocity=39 time=51\n",
      "note_on channel=0 note=70 velocity=62 time=7\n",
      "note_on channel=0 note=82 velocity=70 time=82\n",
      "note_off channel=0 note=39 velocity=64 time=85\n",
      "note_off channel=0 note=27 velocity=64 time=120\n",
      "note_off channel=0 note=82 velocity=64 time=11\n",
      "note_off channel=0 note=70 velocity=64 time=0\n",
      "note_on channel=0 note=80 velocity=46 time=580\n",
      "note_off channel=0 note=80 velocity=64 time=90\n",
      "control_change channel=0 control=64 value=0 time=55\n",
      "note_on channel=0 note=68 velocity=42 time=19\n",
      "note_on channel=0 note=80 velocity=35 time=0\n",
      "note_on channel=0 note=41 velocity=37 time=0\n",
      "control_change channel=0 control=64 value=127 time=62\n",
      "note_off channel=0 note=80 velocity=64 time=38\n",
      "note_off channel=0 note=68 velocity=64 time=35\n",
      "note_on channel=0 note=53 velocity=40 time=127\n",
      "note_on channel=0 note=60 velocity=45 time=124\n",
      "note_off channel=0 note=60 velocity=64 time=86\n",
      "note_off channel=0 note=53 velocity=64 time=40\n",
      "note_on channel=0 note=65 velocity=64 time=15\n",
      "note_off channel=0 note=65 velocity=64 time=21\n",
      "note_off channel=0 note=41 velocity=64 time=237\n",
      "note_on channel=0 note=53 velocity=40 time=11\n",
      "note_off channel=0 note=53 velocity=64 time=114\n",
      "note_on channel=0 note=68 velocity=44 time=50\n",
      "note_on channel=0 note=80 velocity=27 time=11\n",
      "note_off channel=0 note=80 velocity=64 time=21\n",
      "note_off channel=0 note=68 velocity=64 time=4\n",
      "control_change channel=0 control=64 value=0 time=64\n",
      "note_on channel=0 note=82 velocity=51 time=12\n",
      "note_on channel=0 note=39 velocity=49 time=5\n",
      "note_on channel=0 note=70 velocity=52 time=5\n",
      "control_change channel=0 control=64 value=127 time=78\n",
      "note_on channel=0 note=51 velocity=47 time=48\n",
      "note_off channel=0 note=70 velocity=64 time=57\n",
      "note_off channel=0 note=82 velocity=64 time=105\n",
      "note_on channel=0 note=70 velocity=49 time=130\n",
      "note_off channel=0 note=70 velocity=64 time=73\n",
      "note_on channel=0 note=82 velocity=51 time=73\n",
      "note_on channel=0 note=70 velocity=41 time=2\n",
      "note_off channel=0 note=70 velocity=64 time=48\n",
      "note_off channel=0 note=51 velocity=64 time=11\n",
      "note_off channel=0 note=82 velocity=64 time=25\n",
      "note_off channel=0 note=39 velocity=64 time=146\n",
      "note_on channel=0 note=51 velocity=46 time=42\n",
      "note_off channel=0 note=51 velocity=64 time=57\n",
      "note_on channel=0 note=87 velocity=70 time=60\n",
      "note_off channel=0 note=87 velocity=64 time=55\n",
      "control_change channel=0 control=64 value=0 time=64\n",
      "note_on channel=0 note=87 velocity=61 time=6\n",
      "note_on channel=0 note=49 velocity=34 time=4\n",
      "note_on channel=0 note=75 velocity=57 time=7\n",
      "control_change channel=0 control=64 value=127 time=74\n",
      "note_on channel=0 note=56 velocity=40 time=59\n",
      "note_off channel=0 note=75 velocity=64 time=32\n",
      "note_off channel=0 note=87 velocity=64 time=69\n",
      "note_on channel=0 note=61 velocity=54 time=29\n",
      "note_on channel=0 note=75 velocity=48 time=131\n",
      "note_off channel=0 note=75 velocity=64 time=84\n",
      "note_off channel=0 note=61 velocity=64 time=46\n",
      "note_on channel=0 note=87 velocity=50 time=13\n",
      "note_on channel=0 note=75 velocity=37 time=5\n",
      "note_off channel=0 note=49 velocity=64 time=218\n",
      "note_off channel=0 note=56 velocity=64 time=87\n",
      "note_on channel=0 note=49 velocity=40 time=226\n",
      "note_off channel=0 note=75 velocity=64 time=127\n",
      "note_off channel=0 note=87 velocity=64 time=8\n",
      "note_on channel=0 note=56 velocity=33 time=19\n",
      "note_on channel=0 note=61 velocity=37 time=130\n",
      "note_off channel=0 note=61 velocity=64 time=173\n",
      "note_on channel=0 note=65 velocity=21 time=137\n",
      "note_off channel=0 note=49 velocity=64 time=132\n",
      "note_on channel=0 note=61 velocity=37 time=74\n",
      "note_off channel=0 note=56 velocity=64 time=27\n",
      "note_off channel=0 note=61 velocity=64 time=29\n",
      "note_on channel=0 note=68 velocity=44 time=91\n",
      "note_off channel=0 note=65 velocity=64 time=5\n",
      "note_off channel=0 note=68 velocity=64 time=47\n",
      "control_change channel=0 control=64 value=0 time=55\n",
      "note_on channel=0 note=53 velocity=50 time=18\n",
      "note_on channel=0 note=68 velocity=44 time=8\n",
      "control_change channel=0 control=64 value=127 time=67\n",
      "note_on channel=0 note=60 velocity=47 time=60\n",
      "note_on channel=0 note=65 velocity=50 time=149\n",
      "note_off channel=0 note=65 velocity=64 time=29\n",
      "note_off channel=0 note=68 velocity=64 time=4\n",
      "note_on channel=0 note=65 velocity=40 time=86\n",
      "note_off channel=0 note=65 velocity=64 time=77\n",
      "note_on channel=0 note=68 velocity=58 time=77\n",
      "note_on channel=0 note=65 velocity=45 time=6\n",
      "note_off channel=0 note=65 velocity=64 time=74\n",
      "note_off channel=0 note=60 velocity=64 time=46\n",
      "note_off channel=0 note=53 velocity=64 time=102\n",
      "note_off channel=0 note=68 velocity=64 time=19\n",
      "note_on channel=0 note=65 velocity=45 time=31\n",
      "note_on channel=0 note=70 velocity=51 time=108\n",
      "note_off channel=0 note=65 velocity=64 time=35\n",
      "note_off channel=0 note=70 velocity=64 time=11\n",
      "control_change channel=0 control=64 value=0 time=76\n",
      "note_on channel=0 note=51 velocity=57 time=3\n",
      "note_on channel=0 note=70 velocity=36 time=9\n",
      "note_on channel=0 note=65 velocity=49 time=2\n",
      "control_change channel=0 control=64 value=127 time=75\n",
      "note_on channel=0 note=58 velocity=40 time=68\n",
      "note_off channel=0 note=65 velocity=64 time=26\n",
      "note_on channel=0 note=63 velocity=49 time=91\n",
      "note_off channel=0 note=70 velocity=64 time=4\n",
      "note_off channel=0 note=63 velocity=64 time=144\n",
      "note_on channel=0 note=70 velocity=61 time=141\n",
      "note_off channel=0 note=70 velocity=64 time=81\n",
      "note_on channel=0 note=63 velocity=43 time=178\n",
      "note_off channel=0 note=51 velocity=64 time=20\n",
      "note_off channel=0 note=63 velocity=64 time=11\n",
      "note_off channel=0 note=58 velocity=64 time=11\n",
      "note_on channel=0 note=70 velocity=52 time=76\n",
      "note_on channel=0 note=77 velocity=68 time=57\n",
      "note_off channel=0 note=70 velocity=64 time=7\n",
      "note_off channel=0 note=77 velocity=64 time=13\n",
      "note_on channel=0 note=49 velocity=61 time=52\n",
      "note_on channel=0 note=77 velocity=76 time=8\n",
      "control_change channel=0 control=64 value=0 time=2\n",
      "control_change channel=0 control=64 value=127 time=85\n",
      "note_on channel=0 note=56 velocity=37 time=56\n",
      "note_on channel=0 note=61 velocity=44 time=125\n",
      "note_off channel=0 note=56 velocity=64 time=34\n",
      "note_off channel=0 note=61 velocity=64 time=93\n",
      "note_off channel=0 note=77 velocity=64 time=17\n",
      "note_on channel=0 note=56 velocity=43 time=3\n",
      "note_on channel=0 note=61 velocity=57 time=123\n",
      "note_off channel=0 note=61 velocity=64 time=67\n",
      "note_off channel=0 note=56 velocity=64 time=62\n",
      "note_on channel=0 note=61 velocity=44 time=154\n",
      "note_off channel=0 note=49 velocity=64 time=110\n",
      "note_on channel=0 note=56 velocity=49 time=10\n",
      "note_on channel=0 note=49 velocity=52 time=142\n",
      "note_off channel=0 note=56 velocity=64 time=8\n",
      "note_off channel=0 note=49 velocity=64 time=205\n",
      "note_off channel=0 note=61 velocity=64 time=27\n",
      "note_on channel=0 note=53 velocity=44 time=20\n",
      "note_on channel=0 note=56 velocity=52 time=122\n",
      "note_on channel=0 note=44 velocity=51 time=246\n",
      "note_off channel=0 note=44 velocity=64 time=125\n",
      "note_on channel=0 note=37 velocity=52 time=6\n",
      "note_off channel=0 note=56 velocity=64 time=21\n",
      "note_off channel=0 note=37 velocity=64 time=12\n",
      "note_on channel=0 note=41 velocity=40 time=227\n",
      "note_on channel=0 note=56 velocity=44 time=9\n",
      "control_change channel=0 control=64 value=0 time=9\n",
      "control_change channel=0 control=64 value=127 time=115\n",
      "note_on channel=0 note=48 velocity=44 time=6\n",
      "note_on channel=0 note=53 velocity=51 time=135\n",
      "note_off channel=0 note=56 velocity=64 time=24\n",
      "note_off channel=0 note=53 velocity=64 time=23\n",
      "note_on channel=0 note=53 velocity=35 time=70\n",
      "note_off channel=0 note=53 velocity=64 time=75\n",
      "note_on channel=0 note=53 velocity=76 time=77\n",
      "note_on channel=0 note=56 velocity=70 time=1\n",
      "note_off channel=0 note=48 velocity=64 time=45\n",
      "note_off channel=0 note=53 velocity=64 time=135\n",
      "note_off channel=0 note=41 velocity=64 time=47\n",
      "note_on channel=0 note=48 velocity=61 time=37\n",
      "note_off channel=0 note=48 velocity=64 time=22\n",
      "note_off channel=0 note=56 velocity=64 time=83\n",
      "note_on channel=0 note=53 velocity=62 time=11\n",
      "note_off channel=0 note=53 velocity=64 time=55\n",
      "note_on channel=0 note=58 velocity=61 time=0\n",
      "note_off channel=0 note=58 velocity=64 time=37\n",
      "control_change channel=0 control=64 value=0 time=40\n",
      "note_on channel=0 note=39 velocity=64 time=7\n",
      "note_on channel=0 note=53 velocity=96 time=1\n",
      "note_on channel=0 note=58 velocity=84 time=2\n",
      "control_change channel=0 control=64 value=127 time=90\n",
      "note_on channel=0 note=46 velocity=41 time=58\n",
      "note_off channel=0 note=53 velocity=64 time=41\n",
      "note_on channel=0 note=51 velocity=64 time=84\n",
      "note_off channel=0 note=58 velocity=64 time=36\n",
      "note_on channel=0 note=55 velocity=58 time=100\n",
      "note_off channel=0 note=55 velocity=64 time=33\n",
      "note_on channel=0 note=58 velocity=62 time=102\n",
      "note_off channel=0 note=51 velocity=64 time=4\n",
      "note_off channel=0 note=58 velocity=64 time=122\n",
      "note_on channel=0 note=51 velocity=54 time=128\n",
      "note_off channel=0 note=46 velocity=64 time=26\n",
      "note_off channel=0 note=51 velocity=64 time=29\n",
      "note_off channel=0 note=39 velocity=64 time=0\n",
      "note_on channel=0 note=68 velocity=35 time=79\n",
      "note_off channel=0 note=68 velocity=64 time=21\n",
      "control_change channel=0 control=64 value=0 time=106\n",
      "note_on channel=0 note=37 velocity=38 time=1\n",
      "note_on channel=0 note=68 velocity=66 time=4\n",
      "control_change channel=0 control=64 value=127 time=95\n",
      "note_on channel=0 note=44 velocity=43 time=39\n",
      "note_off channel=0 note=68 velocity=64 time=45\n",
      "note_on channel=0 note=49 velocity=41 time=97\n",
      "note_on channel=0 note=53 velocity=47 time=125\n",
      "note_off channel=0 note=49 velocity=64 time=73\n",
      "note_on channel=0 note=56 velocity=41 time=66\n",
      "note_off channel=0 note=53 velocity=64 time=11\n",
      "note_off channel=0 note=56 velocity=64 time=99\n",
      "note_on channel=0 note=68 velocity=47 time=406\n",
      "note_off channel=0 note=68 velocity=64 time=883\n",
      "note_on channel=0 note=70 velocity=33 time=309\n",
      "note_off channel=0 note=37 velocity=64 time=297\n",
      "note_off channel=0 note=44 velocity=64 time=35\n",
      "note_off channel=0 note=70 velocity=64 time=605\n",
      "note_on channel=0 note=56 velocity=29 time=93\n",
      "control_change channel=0 control=64 value=0 time=16\n",
      "note_on channel=0 note=68 velocity=37 time=5\n",
      "control_change channel=0 control=64 value=127 time=95\n",
      "note_on channel=0 note=63 velocity=40 time=46\n",
      "note_off channel=0 note=68 velocity=64 time=6\n",
      "note_off channel=0 note=63 velocity=64 time=122\n",
      "note_on channel=0 note=68 velocity=31 time=16\n",
      "note_off channel=0 note=68 velocity=64 time=105\n",
      "note_on channel=0 note=63 velocity=34 time=19\n",
      "note_off channel=0 note=63 velocity=64 time=112\n",
      "note_on channel=0 note=68 velocity=32 time=36\n",
      "note_on channel=0 note=63 velocity=31 time=120\n",
      "note_off channel=0 note=68 velocity=64 time=2\n",
      "note_off channel=0 note=63 velocity=64 time=95\n",
      "note_on channel=0 note=68 velocity=42 time=31\n",
      "note_on channel=0 note=63 velocity=45 time=136\n",
      "note_off channel=0 note=68 velocity=64 time=5\n",
      "note_off channel=0 note=56 velocity=64 time=58\n",
      "note_off channel=0 note=63 velocity=64 time=57\n",
      "note_on channel=0 note=58 velocity=43 time=13\n",
      "note_on channel=0 note=63 velocity=43 time=141\n",
      "note_off channel=0 note=63 velocity=64 time=106\n",
      "note_on channel=0 note=67 velocity=37 time=48\n",
      "note_off channel=0 note=67 velocity=64 time=78\n",
      "note_on channel=0 note=63 velocity=43 time=25\n",
      "note_off channel=0 note=63 velocity=64 time=110\n",
      "note_on channel=0 note=67 velocity=34 time=38\n",
      "note_off channel=0 note=67 velocity=64 time=100\n",
      "note_on channel=0 note=63 velocity=38 time=29\n",
      "note_off channel=0 note=58 velocity=64 time=87\n",
      "note_off channel=0 note=63 velocity=64 time=14\n",
      "note_on channel=0 note=67 velocity=48 time=12\n",
      "note_off channel=0 note=67 velocity=64 time=119\n",
      "note_on channel=0 note=63 velocity=37 time=23\n",
      "note_off channel=0 note=63 velocity=64 time=105\n",
      "note_on channel=0 note=56 velocity=49 time=27\n",
      "note_on channel=0 note=63 velocity=40 time=128\n",
      "note_off channel=0 note=63 velocity=64 time=127\n",
      "note_on channel=0 note=68 velocity=30 time=25\n",
      "note_off channel=0 note=68 velocity=64 time=109\n",
      "note_on channel=0 note=63 velocity=38 time=12\n",
      "note_off channel=0 note=63 velocity=64 time=97\n",
      "note_on channel=0 note=68 velocity=44 time=28\n",
      "note_off channel=0 note=68 velocity=64 time=107\n",
      "note_on channel=0 note=63 velocity=33 time=23\n",
      "note_off channel=0 note=63 velocity=64 time=118\n",
      "note_on channel=0 note=68 velocity=35 time=6\n",
      "note_off channel=0 note=68 velocity=64 time=73\n",
      "note_off channel=0 note=56 velocity=64 time=111\n",
      "note_on channel=0 note=58 velocity=43 time=87\n",
      "note_on channel=0 note=63 velocity=37 time=125\n",
      "note_on channel=0 note=75 velocity=40 time=145\n",
      "note_off channel=0 note=75 velocity=64 time=99\n",
      "note_on channel=0 note=80 velocity=68 time=35\n",
      "note_off channel=0 note=63 velocity=64 time=9\n",
      "note_on channel=0 note=67 velocity=23 time=11\n",
      "note_off channel=0 note=67 velocity=64 time=43\n",
      "note_on channel=0 note=63 velocity=40 time=62\n",
      "note_off channel=0 note=80 velocity=64 time=6\n",
      "note_on channel=0 note=80 velocity=59 time=134\n",
      "note_off channel=0 note=63 velocity=64 time=30\n",
      "note_off channel=0 note=58 velocity=64 time=129\n",
      "note_on channel=0 note=63 velocity=40 time=9\n",
      "note_off channel=0 note=80 velocity=64 time=71\n",
      "note_on channel=0 note=75 velocity=46 time=37\n",
      "note_off channel=0 note=75 velocity=64 time=93\n",
      "note_off channel=0 note=63 velocity=64 time=14\n",
      "note_on channel=0 note=56 velocity=44 time=25\n",
      "note_on channel=0 note=68 velocity=54 time=0\n",
      "control_change channel=0 control=64 value=0 time=7\n",
      "control_change channel=0 control=64 value=127 time=80\n",
      "note_on channel=0 note=63 velocity=47 time=46\n",
      "note_off channel=0 note=68 velocity=64 time=17\n",
      "note_off channel=0 note=63 velocity=64 time=96\n",
      "note_on channel=0 note=68 velocity=23 time=37\n",
      "note_off channel=0 note=68 velocity=64 time=74\n",
      "note_on channel=0 note=63 velocity=51 time=33\n",
      "note_off channel=0 note=63 velocity=64 time=88\n",
      "note_on channel=0 note=68 velocity=34 time=47\n",
      "note_off channel=0 note=68 velocity=64 time=112\n",
      "note_on channel=0 note=63 velocity=44 time=6\n",
      "note_off channel=0 note=63 velocity=64 time=85\n",
      "note_on channel=0 note=68 velocity=33 time=68\n",
      "note_off channel=0 note=56 velocity=64 time=121\n",
      "note_on channel=0 note=63 velocity=44 time=28\n",
      "note_off channel=0 note=63 velocity=64 time=111\n",
      "note_on channel=0 note=58 velocity=50 time=14\n",
      "note_on channel=0 note=63 velocity=47 time=112\n",
      "note_off channel=0 note=68 velocity=64 time=10\n",
      "note_off channel=0 note=63 velocity=64 time=76\n",
      "note_on channel=0 note=68 velocity=34 time=53\n",
      "note_on channel=0 note=63 velocity=32 time=137\n",
      "note_off channel=0 note=63 velocity=64 time=99\n",
      "note_on channel=0 note=80 velocity=51 time=35\n",
      "note_on channel=0 note=63 velocity=39 time=126\n",
      "note_off channel=0 note=68 velocity=64 time=39\n",
      "note_off channel=0 note=63 velocity=64 time=16\n",
      "note_off channel=0 note=58 velocity=64 time=162\n",
      "note_off channel=0 note=80 velocity=64 time=2\n",
      "note_on channel=0 note=68 velocity=45 time=80\n",
      "note_off channel=0 note=68 velocity=64 time=46\n",
      "note_on channel=0 note=56 velocity=44 time=83\n",
      "control_change channel=0 control=64 value=0 time=5\n",
      "note_on channel=0 note=68 velocity=47 time=0\n",
      "control_change channel=0 control=64 value=127 time=82\n",
      "note_on channel=0 note=63 velocity=42 time=54\n",
      "note_off channel=0 note=68 velocity=64 time=19\n",
      "note_on channel=0 note=68 velocity=41 time=117\n",
      "note_off channel=0 note=63 velocity=64 time=4\n",
      "note_off channel=0 note=68 velocity=64 time=78\n",
      "note_on channel=0 note=63 velocity=36 time=53\n",
      "note_off channel=0 note=63 velocity=64 time=63\n",
      "note_on channel=0 note=63 velocity=39 time=99\n",
      "note_on channel=0 note=87 velocity=23 time=327\n",
      "note_off channel=0 note=63 velocity=64 time=15\n",
      "note_off channel=0 note=56 velocity=64 time=55\n",
      "note_off channel=0 note=87 velocity=64 time=53\n",
      "note_on channel=0 note=92 velocity=37 time=25\n",
      "note_off channel=0 note=92 velocity=64 time=36\n",
      "note_on channel=0 note=58 velocity=29 time=115\n",
      "note_on channel=0 note=92 velocity=49 time=17\n",
      "note_on channel=0 note=61 velocity=37 time=147\n",
      "note_off channel=0 note=61 velocity=64 time=156\n",
      "note_on channel=0 note=65 velocity=16 time=56\n",
      "note_off channel=0 note=58 velocity=64 time=29\n",
      "note_off channel=0 note=65 velocity=64 time=70\n",
      "note_on channel=0 note=61 velocity=31 time=109\n",
      "note_off channel=0 note=92 velocity=64 time=72\n",
      "note_off channel=0 note=61 velocity=64 time=359\n",
      "note_on channel=0 note=94 velocity=40 time=1926\n",
      "control_change channel=0 control=64 value=0 time=179\n",
      "control_change channel=0 control=64 value=127 time=170\n",
      "note_off channel=0 note=94 velocity=64 time=244\n",
      "note_on channel=0 note=44 velocity=5 time=926\n",
      "note_on channel=0 note=32 velocity=5 time=34\n",
      "note_on channel=0 note=68 velocity=17 time=56\n",
      "control_change channel=0 control=64 value=0 time=6\n",
      "note_on channel=0 note=56 velocity=5 time=10\n",
      "control_change channel=0 control=64 value=127 time=144\n",
      "note_off channel=0 note=68 velocity=64 time=97\n",
      "note_off channel=0 note=56 velocity=64 time=27\n",
      "note_on channel=0 note=51 velocity=27 time=273\n",
      "note_on channel=0 note=56 velocity=27 time=290\n",
      "note_off channel=0 note=51 velocity=64 time=39\n",
      "note_off channel=0 note=56 velocity=64 time=70\n",
      "note_on channel=0 note=63 velocity=45 time=155\n",
      "note_off channel=0 note=63 velocity=64 time=154\n",
      "note_on channel=0 note=68 velocity=36 time=27\n",
      "note_off channel=0 note=68 velocity=64 time=40\n",
      "note_on channel=0 note=75 velocity=36 time=147\n",
      "note_off channel=0 note=75 velocity=64 time=142\n",
      "note_on channel=0 note=80 velocity=52 time=68\n",
      "note_off channel=0 note=80 velocity=64 time=2\n",
      "note_on channel=0 note=87 velocity=58 time=153\n",
      "note_off channel=0 note=87 velocity=64 time=201\n",
      "note_on channel=0 note=92 velocity=44 time=31\n",
      "note_off channel=0 note=92 velocity=64 time=110\n",
      "note_off channel=0 note=44 velocity=64 time=381\n",
      "note_off channel=0 note=32 velocity=64 time=30\n",
      "note_on channel=0 note=63 velocity=33 time=308\n",
      "note_on channel=0 note=44 velocity=5 time=1\n",
      "note_on channel=0 note=68 velocity=25 time=8\n",
      "note_on channel=0 note=32 velocity=5 time=3\n",
      "note_on channel=0 note=56 velocity=5 time=55\n",
      "note_off channel=0 note=56 velocity=64 time=442\n",
      "note_off channel=0 note=44 velocity=64 time=7\n",
      "note_off channel=0 note=63 velocity=64 time=30\n",
      "note_off channel=0 note=68 velocity=64 time=3\n",
      "note_off channel=0 note=32 velocity=64 time=13\n",
      "control_change channel=0 control=64 value=0 time=1037\n",
      "<meta message end_of_track time=0>\n"
     ]
    }
   ],
   "source": [
    "## read midi file\n",
    "mid2 = MidiFile('MidiSample/tv16.mid')\n",
    "\n",
    "## get midi information\n",
    "temp=[]\n",
    "for i, track in enumerate(mid2.tracks):\n",
    "    print('Track {}: {}'.format(i, track.name))\n",
    "for msg in mid2.tracks[1]:\n",
    "    print(msg)\n",
    "    temp.append(msg)"
   ]
  },
  {
   "cell_type": "code",
   "execution_count": 183,
   "metadata": {},
   "outputs": [],
   "source": [
    "pitch_list = ['C','C#','D','D#','E','F','F#','G','G#','A','A#','B']\n",
    "\n",
    "def get_pitch(num):\n",
    "    return [pitch_list[num%12],num%12]\n",
    "\n",
    "def parse_midi(filename):\n",
    "    data = filename[5:]  # remove headers\n",
    "    note_= []; velocity_= []; time_= []\n",
    "    \n",
    "    ## seperate column\n",
    "    for i in range(len(data)-1):\n",
    "        t = str(data[i])\n",
    "        note_.append(t.split(' ')[2])\n",
    "        velocity_.append(t.split(' ')[3])\n",
    "        time_.append(t.split(' ')[4])\n",
    "        \n",
    "    ## to note\n",
    "    note_2=[];velocity_2=[];time_2=[]; midi_data=[]\n",
    "    for i in range(len(note_)):\n",
    "        note_2.append(get_pitch(int(note_[i].split('=')[1])))\n",
    "        velocity_2.append(int(velocity_[i].split('=')[1]))\n",
    "        time_2.append(int(time_[i].split('=')[1]))\n",
    "        midi_data.append((note_2[i],velocity_2[i], time_2[i])) # merge all\n",
    "\n",
    "    return midi_data\n",
    "\n",
    "def get_velocity(data):\n",
    "    v=0\n",
    "    for i in range(len(data)):\n",
    "        v += data[i][1]\n",
    "    avg_v = v/len(data) #duration??\n",
    "\n",
    "    return avg_v\n"
   ]
  },
  {
   "cell_type": "code",
   "execution_count": 184,
   "metadata": {},
   "outputs": [
    {
     "ename": "IndexError",
     "evalue": "list index out of range",
     "output_type": "error",
     "traceback": [
      "\u001b[0;31m---------------------------------------------------------------------------\u001b[0m",
      "\u001b[0;31mIndexError\u001b[0m                                Traceback (most recent call last)",
      "\u001b[0;32m<ipython-input-184-dead31e6fba2>\u001b[0m in \u001b[0;36m<module>\u001b[0;34m\u001b[0m\n\u001b[0;32m----> 1\u001b[0;31m \u001b[0mdata\u001b[0m \u001b[0;34m=\u001b[0m \u001b[0mparse_midi\u001b[0m\u001b[0;34m(\u001b[0m\u001b[0mtemp\u001b[0m\u001b[0;34m)\u001b[0m \u001b[0;31m# (note, velocity, time)\u001b[0m\u001b[0;34m\u001b[0m\u001b[0m\n\u001b[0m",
      "\u001b[0;32m<ipython-input-183-171cad9434ae>\u001b[0m in \u001b[0;36mparse_midi\u001b[0;34m(filename)\u001b[0m\n\u001b[1;32m     13\u001b[0m         \u001b[0mnote_\u001b[0m\u001b[0;34m.\u001b[0m\u001b[0mappend\u001b[0m\u001b[0;34m(\u001b[0m\u001b[0mt\u001b[0m\u001b[0;34m.\u001b[0m\u001b[0msplit\u001b[0m\u001b[0;34m(\u001b[0m\u001b[0;34m' '\u001b[0m\u001b[0;34m)\u001b[0m\u001b[0;34m[\u001b[0m\u001b[0;36m2\u001b[0m\u001b[0;34m]\u001b[0m\u001b[0;34m)\u001b[0m\u001b[0;34m\u001b[0m\u001b[0m\n\u001b[1;32m     14\u001b[0m         \u001b[0mvelocity_\u001b[0m\u001b[0;34m.\u001b[0m\u001b[0mappend\u001b[0m\u001b[0;34m(\u001b[0m\u001b[0mt\u001b[0m\u001b[0;34m.\u001b[0m\u001b[0msplit\u001b[0m\u001b[0;34m(\u001b[0m\u001b[0;34m' '\u001b[0m\u001b[0;34m)\u001b[0m\u001b[0;34m[\u001b[0m\u001b[0;36m3\u001b[0m\u001b[0;34m]\u001b[0m\u001b[0;34m)\u001b[0m\u001b[0;34m\u001b[0m\u001b[0m\n\u001b[0;32m---> 15\u001b[0;31m         \u001b[0mtime_\u001b[0m\u001b[0;34m.\u001b[0m\u001b[0mappend\u001b[0m\u001b[0;34m(\u001b[0m\u001b[0mt\u001b[0m\u001b[0;34m.\u001b[0m\u001b[0msplit\u001b[0m\u001b[0;34m(\u001b[0m\u001b[0;34m' '\u001b[0m\u001b[0;34m)\u001b[0m\u001b[0;34m[\u001b[0m\u001b[0;36m4\u001b[0m\u001b[0;34m]\u001b[0m\u001b[0;34m)\u001b[0m\u001b[0;34m\u001b[0m\u001b[0m\n\u001b[0m\u001b[1;32m     16\u001b[0m \u001b[0;34m\u001b[0m\u001b[0m\n\u001b[1;32m     17\u001b[0m     \u001b[0;31m## to note\u001b[0m\u001b[0;34m\u001b[0m\u001b[0;34m\u001b[0m\u001b[0m\n",
      "\u001b[0;31mIndexError\u001b[0m: list index out of range"
     ]
    }
   ],
   "source": [
    "data = parse_midi(temp) # (note, velocity, time)"
   ]
  },
  {
   "cell_type": "code",
   "execution_count": 190,
   "metadata": {},
   "outputs": [],
   "source": [
    "## create midi\n",
    "\n",
    "from mido import Message, MidiFile, MidiTrack\n",
    "\n",
    "mid = MidiFile()\n",
    "track = MidiTrack()\n",
    "mid.tracks.append(track)\n",
    "\n",
    "track.append(Message('program_change', program=12, time=0))\n",
    "track.append(Message('note_on', note=64, velocity=64, time=32))\n",
    "track.append(Message('note_off', note=64, velocity=127, time=32))\n"
   ]
  },
  {
   "cell_type": "code",
   "execution_count": null,
   "metadata": {},
   "outputs": [],
   "source": []
  }
 ],
 "metadata": {
  "kernelspec": {
   "display_name": "Python 3",
   "language": "python",
   "name": "python3"
  },
  "language_info": {
   "codemirror_mode": {
    "name": "ipython",
    "version": 3
   },
   "file_extension": ".py",
   "mimetype": "text/x-python",
   "name": "python",
   "nbconvert_exporter": "python",
   "pygments_lexer": "ipython3",
   "version": "3.6.6"
  }
 },
 "nbformat": 4,
 "nbformat_minor": 2
}
